<svg width="162" height="50" viewBox="0 0 162 50" fill="none" xmlns="http://www.w3.org/2000/svg">
<rect x="0.5" y="0.5" width="161" height="49" fill="#D9D9D9" stroke="#2D2652"/>
<path d="M53.7045 22C53.5483 21.5218 53.3423 21.0933 53.0866 20.7145C52.8357 20.331 52.535 20.0043 52.1847 19.7344C51.839 19.4645 51.446 19.2585 51.0057 19.1165C50.5653 18.9744 50.0824 18.9034 49.5568 18.9034C48.6951 18.9034 47.9115 19.1259 47.206 19.571C46.5005 20.0161 45.9394 20.6719 45.5227 21.5384C45.1061 22.4048 44.8977 23.4678 44.8977 24.7273C44.8977 25.9867 45.1084 27.0497 45.5298 27.9162C45.9512 28.7827 46.5218 29.4384 47.2415 29.8835C47.9612 30.3286 48.7708 30.5511 49.6705 30.5511C50.5038 30.5511 51.2377 30.3736 51.8722 30.0185C52.5114 29.6586 53.0085 29.152 53.3636 28.4986C53.7235 27.8404 53.9034 27.0663 53.9034 26.1761L54.4432 26.2898H50.0682V24.7273H55.608V26.2898C55.608 27.4877 55.3523 28.5294 54.8409 29.4148C54.3343 30.3002 53.6335 30.9867 52.7386 31.4744C51.8485 31.9574 50.8258 32.1989 49.6705 32.1989C48.3826 32.1989 47.2509 31.8958 46.2756 31.2898C45.3049 30.6837 44.5473 29.822 44.0028 28.7045C43.4631 27.5871 43.1932 26.2614 43.1932 24.7273C43.1932 23.5767 43.3471 22.5421 43.6548 21.6236C43.9673 20.7003 44.4077 19.9143 44.9759 19.2656C45.544 18.617 46.2164 18.1198 46.9929 17.7741C47.7694 17.4285 48.6241 17.2557 49.5568 17.2557C50.3239 17.2557 51.0388 17.3717 51.7017 17.6037C52.3693 17.831 52.9635 18.1553 53.4844 18.5767C54.0099 18.9934 54.4479 19.4929 54.7983 20.0753C55.1487 20.6529 55.3902 21.2945 55.5227 22H53.7045ZM62.8292 32.2273C61.8443 32.2273 60.9802 31.9929 60.2369 31.5241C59.4982 31.0554 58.9206 30.3996 58.5039 29.5568C58.092 28.714 57.886 27.7292 57.886 26.6023C57.886 25.4659 58.092 24.474 58.5039 23.6264C58.9206 22.7789 59.4982 22.1207 60.2369 21.652C60.9802 21.1832 61.8443 20.9489 62.8292 20.9489C63.814 20.9489 64.6758 21.1832 65.4144 21.652C66.1578 22.1207 66.7354 22.7789 67.1474 23.6264C67.564 24.474 67.7724 25.4659 67.7724 26.6023C67.7724 27.7292 67.564 28.714 67.1474 29.5568C66.7354 30.3996 66.1578 31.0554 65.4144 31.5241C64.6758 31.9929 63.814 32.2273 62.8292 32.2273ZM62.8292 30.7216C63.5773 30.7216 64.1928 30.5298 64.6758 30.1463C65.1587 29.7628 65.5162 29.2585 65.7482 28.6335C65.9802 28.0085 66.0962 27.3314 66.0962 26.6023C66.0962 25.8731 65.9802 25.1937 65.7482 24.5639C65.5162 23.9342 65.1587 23.4252 64.6758 23.0369C64.1928 22.6487 63.5773 22.4545 62.8292 22.4545C62.0811 22.4545 61.4656 22.6487 60.9826 23.0369C60.4996 23.4252 60.1422 23.9342 59.9102 24.5639C59.6781 25.1937 59.5621 25.8731 59.5621 26.6023C59.5621 27.3314 59.6781 28.0085 59.9102 28.6335C60.1422 29.2585 60.4996 29.7628 60.9826 30.1463C61.4656 30.5298 62.0811 30.7216 62.8292 30.7216ZM76.1832 32V17.4545H77.8594V22.8239H78.0014C78.1245 22.6345 78.295 22.393 78.5128 22.0994C78.7353 21.8011 79.0526 21.536 79.4645 21.304C79.8812 21.0672 80.4446 20.9489 81.1548 20.9489C82.0734 20.9489 82.883 21.1785 83.5838 21.6378C84.2846 22.0971 84.8314 22.7481 85.2244 23.5909C85.6174 24.4337 85.8139 25.428 85.8139 26.5739C85.8139 27.7292 85.6174 28.7306 85.2244 29.5781C84.8314 30.4209 84.2869 31.0743 83.5909 31.5384C82.8949 31.9976 82.0923 32.2273 81.1832 32.2273C80.4825 32.2273 79.9214 32.1113 79.5 31.8793C79.0786 31.6425 78.7543 31.375 78.527 31.0767C78.2997 30.7737 78.1245 30.5227 78.0014 30.3239H77.8026V32H76.1832ZM77.831 26.5455C77.831 27.3693 77.9517 28.0961 78.1932 28.7259C78.4347 29.3509 78.7874 29.8409 79.2514 30.196C79.7154 30.5464 80.2836 30.7216 80.956 30.7216C81.6567 30.7216 82.2415 30.5369 82.7102 30.1676C83.1837 29.7936 83.5388 29.2917 83.7756 28.6619C84.017 28.0275 84.1378 27.322 84.1378 26.5455C84.1378 25.7784 84.0194 25.0871 83.7827 24.4716C83.5507 23.8513 83.1979 23.3613 82.7244 23.0014C82.2557 22.6368 81.6662 22.4545 80.956 22.4545C80.2741 22.4545 79.7012 22.6274 79.2372 22.973C78.7732 23.3139 78.4228 23.7921 78.1861 24.4077C77.9493 25.0185 77.831 25.7311 77.831 26.5455ZM91.5881 32.2557C90.8968 32.2557 90.2694 32.1255 89.706 31.8651C89.1425 31.5999 88.6951 31.2188 88.3636 30.7216C88.0322 30.2197 87.8665 29.6136 87.8665 28.9034C87.8665 28.2784 87.9896 27.7718 88.2358 27.3835C88.482 26.9905 88.8111 26.6828 89.223 26.4602C89.6349 26.2377 90.0895 26.072 90.5866 25.9631C91.0885 25.8494 91.5928 25.7595 92.0994 25.6932C92.7623 25.608 93.2997 25.544 93.7116 25.5014C94.1283 25.4541 94.4313 25.3759 94.6207 25.267C94.8149 25.1581 94.9119 24.9687 94.9119 24.6989V24.642C94.9119 23.9413 94.7202 23.3968 94.3366 23.0085C93.9579 22.6203 93.3826 22.4261 92.6108 22.4261C91.8106 22.4261 91.1832 22.6013 90.7287 22.9517C90.2741 23.3021 89.9545 23.6761 89.7699 24.0739L88.179 23.5057C88.4631 22.8428 88.8419 22.3267 89.3153 21.9574C89.7936 21.5833 90.3144 21.3229 90.8778 21.1761C91.446 21.0246 92.0047 20.9489 92.554 20.9489C92.9044 20.9489 93.3068 20.9915 93.7614 21.0767C94.2206 21.1572 94.6634 21.3253 95.0895 21.581C95.5204 21.8366 95.8778 22.2225 96.1619 22.7386C96.446 23.2547 96.5881 23.946 96.5881 24.8125V32H94.9119V30.5227H94.8267C94.7131 30.7595 94.5237 31.0128 94.2585 31.2827C93.9934 31.5526 93.6406 31.7822 93.2003 31.9716C92.7599 32.161 92.2225 32.2557 91.5881 32.2557ZM91.8438 30.75C92.5066 30.75 93.0653 30.6198 93.5199 30.3594C93.9792 30.099 94.3248 29.7628 94.5568 29.3509C94.7936 28.9389 94.9119 28.5057 94.9119 28.0511V26.517C94.8409 26.6023 94.6847 26.6804 94.4432 26.7514C94.2064 26.8177 93.9318 26.8769 93.6193 26.929C93.3116 26.9763 93.0109 27.0189 92.7173 27.0568C92.4285 27.09 92.1941 27.1184 92.0142 27.142C91.5786 27.1989 91.1714 27.2912 90.7926 27.419C90.4186 27.5421 90.1155 27.7292 89.8835 27.9801C89.6563 28.2263 89.5426 28.5625 89.5426 28.9886C89.5426 29.571 89.758 30.0114 90.1889 30.3097C90.6245 30.6032 91.1761 30.75 91.8438 30.75ZM104.079 32.2273C103.056 32.2273 102.176 31.9858 101.437 31.5028C100.699 31.0199 100.13 30.3546 99.7326 29.5071C99.3349 28.6596 99.136 27.6913 99.136 26.6023C99.136 25.4943 99.3396 24.5166 99.7468 23.669C100.159 22.8168 100.732 22.1515 101.466 21.6733C102.204 21.1903 103.066 20.9489 104.051 20.9489C104.818 20.9489 105.509 21.0909 106.125 21.375C106.74 21.6591 107.244 22.0568 107.637 22.5682C108.03 23.0795 108.274 23.6761 108.369 24.358H106.693C106.565 23.8608 106.281 23.4205 105.841 23.0369C105.405 22.6487 104.818 22.4545 104.079 22.4545C103.426 22.4545 102.853 22.625 102.36 22.9659C101.873 23.3021 101.492 23.7779 101.217 24.3935C100.947 25.0043 100.812 25.7216 100.812 26.5455C100.812 27.3883 100.945 28.1222 101.21 28.7472C101.48 29.3722 101.859 29.8575 102.346 30.2031C102.839 30.5488 103.416 30.7216 104.079 30.7216C104.515 30.7216 104.91 30.6458 105.265 30.4943C105.62 30.3428 105.921 30.125 106.167 29.8409C106.413 29.5568 106.589 29.2159 106.693 28.8182H108.369C108.274 29.4621 108.04 30.0421 107.666 30.5582C107.297 31.0696 106.806 31.4768 106.196 31.7798C105.59 32.0781 104.884 32.2273 104.079 32.2273ZM112.382 28.0227L112.353 25.9489H112.694L117.467 21.0909H119.541L114.456 26.233H114.314L112.382 28.0227ZM110.819 32V17.4545H112.495V32H110.819ZM117.751 32L113.49 26.6023L114.683 25.4375L119.882 32H117.751Z" fill="black"/>
</svg>
