<svg width="162" height="50" viewBox="0 0 162 50" fill="none" xmlns="http://www.w3.org/2000/svg">
<rect x="0.5" y="0.5" width="161" height="49" fill="#D9D9D9" stroke="#ADADAD"/>
<path d="M61 17.08C62.3467 17.08 63.6 17.38 64.76 17.98L64.44 19.5L64.24 19.54C63.6 19.14 63.0067 18.8533 62.46 18.68C61.9267 18.5067 61.36 18.42 60.76 18.42C57.8667 18.42 56.42 20.2067 56.42 23.78C56.42 25.5 56.7533 26.7667 57.42 27.58C58.1 28.38 59.1467 28.78 60.56 28.78C60.9333 28.78 61.3067 28.7467 61.68 28.68C62.0667 28.6133 62.56 28.4867 63.16 28.3L63.2 26.8L63.18 24.88L64.68 24.76L64.64 26.58L64.72 29.38C63.8533 29.6467 63.0867 29.84 62.42 29.96C61.7533 30.08 61.1067 30.14 60.48 30.14C58.5733 30.14 57.14 29.6 56.18 28.52C55.2333 27.44 54.76 25.88 54.76 23.84C54.76 21.64 55.3 19.9667 56.38 18.82C57.46 17.66 59 17.08 61 17.08ZM71.4016 20.82C71.5616 20.82 71.7349 20.8333 71.9216 20.86V22.4L71.7416 22.46C71.5149 22.3933 71.2682 22.36 71.0016 22.36C70.5616 22.36 70.1549 22.54 69.7816 22.9C69.4216 23.2467 69.0616 23.8067 68.7016 24.58L68.6816 25.98L68.7816 30H67.2016L67.3016 26.12L67.2216 20.94L68.7216 20.8L68.7016 22.68H68.8216C69.1949 22.0133 69.6082 21.54 70.0616 21.26C70.5149 20.9667 70.9616 20.82 71.4016 20.82ZM76.4911 20.68C77.3578 20.68 78.0378 20.8933 78.5311 21.32C79.0378 21.7467 79.2911 22.3333 79.2911 23.08C79.2911 23.3067 79.2511 24.1267 79.1711 25.54C79.0911 26.9533 79.0511 27.78 79.0511 28.02C79.0511 28.3133 79.0978 28.52 79.1911 28.64C79.2844 28.7467 79.4444 28.8 79.6711 28.8C79.8711 28.8 80.0978 28.76 80.3511 28.68L80.5111 28.82L80.3511 29.72C79.9644 29.9467 79.5844 30.08 79.2111 30.12C78.7978 30.08 78.4644 29.9333 78.2111 29.68C77.9711 29.4267 77.8444 29.08 77.8311 28.64H77.6911C76.9711 29.3733 76.2578 29.8733 75.5511 30.14C74.6578 30.14 73.9578 29.92 73.4511 29.48C72.9578 29.0267 72.7111 28.4133 72.7111 27.64C72.7111 27.0533 72.8644 26.5867 73.1711 26.24C73.4911 25.8933 73.9578 25.6467 74.5711 25.5L77.8111 24.74L77.8311 23.44C77.8311 22.92 77.6911 22.52 77.4111 22.24C77.1444 21.96 76.7578 21.82 76.2511 21.82C75.7978 21.82 75.3444 21.9267 74.8911 22.14C74.4378 22.3533 73.9511 22.6867 73.4311 23.14L73.2711 23.06L73.0711 21.92C74.1778 21.0933 75.3178 20.68 76.4911 20.68ZM74.8911 26.46C74.6244 26.54 74.4311 26.6533 74.3111 26.8C74.1911 26.9333 74.1311 27.14 74.1311 27.42C74.1311 27.86 74.2511 28.2067 74.4911 28.46C74.7444 28.7 75.0778 28.82 75.4911 28.82C76.2244 28.82 76.9711 28.3467 77.7311 27.4L77.7911 25.76L74.8911 26.46ZM89.5498 25.98L89.6098 28.04C89.6232 28.32 89.6698 28.52 89.7498 28.64C89.8298 28.7467 89.9765 28.8 90.1898 28.8C90.4032 28.8 90.6298 28.76 90.8698 28.68L91.0298 28.82L90.8698 29.72C90.5098 29.9467 90.1365 30.08 89.7498 30.12C89.3365 30.08 89.0098 29.94 88.7698 29.7C88.5432 29.46 88.4032 29.1333 88.3498 28.72H88.2098C87.8098 29.0667 87.4498 29.3467 87.1298 29.56C86.8098 29.76 86.4432 29.94 86.0298 30.1C84.7098 30.1 83.6965 29.7 82.9898 28.9C82.2832 28.0867 81.9298 26.9333 81.9298 25.44C81.9298 23.9333 82.3232 22.7667 83.1098 21.94C83.8965 21.1 84.9832 20.68 86.3698 20.68C86.9965 20.68 87.5832 20.7467 88.1298 20.88L88.1098 16.1L89.6898 15.96L89.5498 25.98ZM86.1898 21.8C85.3365 21.8 84.6632 22.0933 84.1698 22.68C83.6765 23.2533 83.4298 24.0867 83.4298 25.18C83.4298 26.3133 83.6498 27.1933 84.0898 27.82C84.5432 28.4467 85.1632 28.76 85.9498 28.76C86.3232 28.76 86.6832 28.6667 87.0298 28.48C87.3898 28.2933 87.7632 27.98 88.1498 27.54L88.1898 26.1L88.1298 22.3C87.4232 21.9667 86.7765 21.8 86.1898 21.8ZM93.7614 25.36V25.4C93.7614 26.52 94.0147 27.38 94.5214 27.98C95.0281 28.58 95.7481 28.88 96.6814 28.88C97.1481 28.88 97.6147 28.8067 98.0814 28.66C98.5481 28.5 98.9747 28.28 99.3614 28L99.5214 28.12L99.2814 29.48C98.3481 29.9333 97.4147 30.16 96.4814 30.16C95.1747 30.16 94.1481 29.7467 93.4014 28.92C92.6547 28.08 92.2814 26.9333 92.2814 25.48C92.2814 24.0133 92.6547 22.8467 93.4014 21.98C94.1481 21.1133 95.1547 20.68 96.4214 20.68C97.4881 20.68 98.3147 20.9867 98.9014 21.6C99.4881 22.2 99.7814 23.04 99.7814 24.12C99.7814 24.48 99.7547 24.82 99.7014 25.14L99.5014 25.34L93.7614 25.36ZM96.4214 21.8C95.7547 21.8 95.1947 22.02 94.7414 22.46C94.3014 22.8867 94.0081 23.4933 93.8614 24.28L98.2814 24.2L98.3214 23.92C98.3214 23.24 98.1547 22.72 97.8214 22.36C97.5014 21.9867 97.0347 21.8 96.4214 21.8ZM104.76 20.7C105.52 20.7 106.253 20.8467 106.96 21.14L106.74 22.44L106.5 22.5C105.833 22.06 105.193 21.84 104.58 21.84C104.127 21.84 103.76 21.9667 103.48 22.22C103.2 22.4733 103.06 22.78 103.06 23.14C103.06 23.5 103.2 23.7933 103.48 24.02C103.773 24.2333 104.22 24.48 104.82 24.76C105.34 25 105.753 25.22 106.06 25.42C106.38 25.6067 106.653 25.86 106.88 26.18C107.107 26.5 107.22 26.8933 107.22 27.36C107.22 27.8533 107.093 28.3133 106.84 28.74C106.587 29.1667 106.213 29.5133 105.72 29.78C105.227 30.0333 104.64 30.16 103.96 30.16C103.027 30.16 102.14 29.94 101.3 29.5L101.5 28.14L101.68 28.02C102.053 28.34 102.453 28.5867 102.88 28.76C103.32 28.9333 103.733 29.02 104.12 29.02C104.613 29.02 105.013 28.8867 105.32 28.62C105.627 28.34 105.78 28.0133 105.78 27.64C105.78 27.28 105.633 26.9933 105.34 26.78C105.06 26.5533 104.62 26.3 104.02 26.02C103.5 25.78 103.08 25.5667 102.76 25.38C102.44 25.18 102.167 24.9133 101.94 24.58C101.713 24.2467 101.6 23.8333 101.6 23.34C101.6 22.5667 101.88 21.9333 102.44 21.44C103.013 20.9467 103.787 20.7 104.76 20.7Z" fill="#393939"/>
</svg>
