<svg width="162" height="50" viewBox="0 0 162 50" fill="none" xmlns="http://www.w3.org/2000/svg">
<rect x="0.5" y="0.5" width="161" height="49" fill="#D9D9D9" stroke="#ADADAD"/>
<path d="M30.1136 33V15.5455H32.2273V31.125H40.3409V33H30.1136ZM48.8295 33.2727C47.5682 33.2727 46.4801 32.9943 45.5653 32.4375C44.6562 31.875 43.9545 31.0909 43.4602 30.0852C42.9716 29.0739 42.7273 27.8977 42.7273 26.5568C42.7273 25.2159 42.9716 24.0341 43.4602 23.0114C43.9545 21.983 44.642 21.1818 45.5227 20.608C46.4091 20.0284 47.4432 19.7386 48.625 19.7386C49.3068 19.7386 49.9801 19.8523 50.6449 20.0795C51.3097 20.3068 51.9148 20.6761 52.4602 21.1875C53.0057 21.6932 53.4403 22.3636 53.7642 23.1989C54.0881 24.0341 54.25 25.0625 54.25 26.2841V27.1364H44.1591V25.3977H52.2045C52.2045 24.6591 52.0568 24 51.7614 23.4205C51.4716 22.8409 51.0568 22.3835 50.517 22.0483C49.983 21.7131 49.3523 21.5455 48.625 21.5455C47.8239 21.5455 47.1307 21.7443 46.5455 22.142C45.9659 22.5341 45.5199 23.0455 45.2074 23.6761C44.8949 24.3068 44.7386 24.983 44.7386 25.7045V26.8636C44.7386 27.8523 44.9091 28.6903 45.25 29.3778C45.5966 30.0597 46.0767 30.5795 46.6903 30.9375C47.304 31.2898 48.017 31.4659 48.8295 31.4659C49.358 31.4659 49.8352 31.392 50.2614 31.2443C50.6932 31.0909 51.0653 30.8636 51.3778 30.5625C51.6903 30.2557 51.9318 29.875 52.1023 29.4205L54.0455 29.9659C53.8409 30.625 53.4972 31.2045 53.0142 31.7045C52.5313 32.1989 51.9347 32.5852 51.2244 32.8636C50.5142 33.1364 49.7159 33.2727 48.8295 33.2727ZM66.5824 22.8409L64.7756 23.3523C64.6619 23.0511 64.4943 22.7585 64.2727 22.4744C64.0568 22.1847 63.7614 21.946 63.3864 21.7585C63.0114 21.571 62.5312 21.4773 61.946 21.4773C61.1449 21.4773 60.4773 21.6619 59.9432 22.0312C59.4148 22.3949 59.1506 22.858 59.1506 23.4205C59.1506 23.9205 59.3324 24.3153 59.696 24.6051C60.0597 24.8949 60.6278 25.1364 61.4006 25.3295L63.3438 25.8068C64.5142 26.0909 65.3864 26.5256 65.9602 27.1108C66.5341 27.6903 66.821 28.4375 66.821 29.3523C66.821 30.1023 66.6051 30.7727 66.1733 31.3636C65.7472 31.9545 65.1506 32.4205 64.3835 32.7614C63.6165 33.1023 62.7244 33.2727 61.7074 33.2727C60.3722 33.2727 59.267 32.983 58.392 32.4034C57.517 31.8239 56.9631 30.9773 56.7301 29.8636L58.6392 29.3864C58.821 30.0909 59.1648 30.6193 59.6705 30.9716C60.1818 31.3239 60.8494 31.5 61.6733 31.5C62.6108 31.5 63.3551 31.3011 63.9062 30.9034C64.4631 30.5 64.7415 30.017 64.7415 29.4545C64.7415 29 64.5824 28.6193 64.2642 28.3125C63.946 28 63.4574 27.767 62.7983 27.6136L60.6165 27.1023C59.4176 26.8182 58.5369 26.3778 57.9744 25.7812C57.4176 25.179 57.1392 24.4261 57.1392 23.5227C57.1392 22.7841 57.3466 22.1307 57.7614 21.5625C58.1818 20.9943 58.7528 20.5483 59.4744 20.2244C60.2017 19.9006 61.0256 19.7386 61.946 19.7386C63.2415 19.7386 64.2585 20.0227 64.9972 20.5909C65.7415 21.1591 66.2699 21.9091 66.5824 22.8409ZM79.1214 22.8409L77.3146 23.3523C77.201 23.0511 77.0334 22.7585 76.8118 22.4744C76.5959 22.1847 76.3004 21.946 75.9254 21.7585C75.5504 21.571 75.0703 21.4773 74.4851 21.4773C73.6839 21.4773 73.0163 21.6619 72.4822 22.0312C71.9538 22.3949 71.6896 22.858 71.6896 23.4205C71.6896 23.9205 71.8714 24.3153 72.2351 24.6051C72.5987 24.8949 73.1669 25.1364 73.9396 25.3295L75.8828 25.8068C77.0533 26.0909 77.9254 26.5256 78.4993 27.1108C79.0732 27.6903 79.3601 28.4375 79.3601 29.3523C79.3601 30.1023 79.1442 30.7727 78.7124 31.3636C78.2862 31.9545 77.6896 32.4205 76.9226 32.7614C76.1555 33.1023 75.2635 33.2727 74.2464 33.2727C72.9112 33.2727 71.8061 32.983 70.9311 32.4034C70.0561 31.8239 69.5021 30.9773 69.2692 29.8636L71.1783 29.3864C71.3601 30.0909 71.7038 30.6193 72.2095 30.9716C72.7209 31.3239 73.3885 31.5 74.2124 31.5C75.1499 31.5 75.8942 31.3011 76.4453 30.9034C77.0021 30.5 77.2805 30.017 77.2805 29.4545C77.2805 29 77.1214 28.6193 76.8033 28.3125C76.4851 28 75.9964 27.767 75.3374 27.6136L73.1555 27.1023C71.9567 26.8182 71.076 26.3778 70.5135 25.7812C69.9567 25.179 69.6783 24.4261 69.6783 23.5227C69.6783 22.7841 69.8857 22.1307 70.3004 21.5625C70.7209 20.9943 71.2919 20.5483 72.0135 20.2244C72.7408 19.9006 73.5646 19.7386 74.4851 19.7386C75.7805 19.7386 76.7976 20.0227 77.5362 20.5909C78.2805 21.1591 78.8089 21.9091 79.1214 22.8409ZM87.706 33.2727C86.5241 33.2727 85.4872 32.9915 84.5952 32.429C83.7088 31.8665 83.0156 31.0795 82.5156 30.0682C82.0213 29.0568 81.7741 27.875 81.7741 26.5227C81.7741 25.1591 82.0213 23.9687 82.5156 22.9517C83.0156 21.9347 83.7088 21.1449 84.5952 20.5824C85.4872 20.0199 86.5241 19.7386 87.706 19.7386C88.8878 19.7386 89.9219 20.0199 90.8082 20.5824C91.7003 21.1449 92.3935 21.9347 92.8878 22.9517C93.3878 23.9687 93.6378 25.1591 93.6378 26.5227C93.6378 27.875 93.3878 29.0568 92.8878 30.0682C92.3935 31.0795 91.7003 31.8665 90.8082 32.429C89.9219 32.9915 88.8878 33.2727 87.706 33.2727ZM87.706 31.4659C88.6037 31.4659 89.3423 31.2358 89.9219 30.7756C90.5014 30.3153 90.9304 29.7102 91.2088 28.9602C91.4872 28.2102 91.6264 27.3977 91.6264 26.5227C91.6264 25.6477 91.4872 24.8324 91.2088 24.0767C90.9304 23.321 90.5014 22.7102 89.9219 22.2443C89.3423 21.7784 88.6037 21.5455 87.706 21.5455C86.8082 21.5455 86.0696 21.7784 85.4901 22.2443C84.9105 22.7102 84.4815 23.321 84.2031 24.0767C83.9247 24.8324 83.7855 25.6477 83.7855 26.5227C83.7855 27.3977 83.9247 28.2102 84.2031 28.9602C84.4815 29.7102 84.9105 30.3153 85.4901 30.7756C86.0696 31.2358 86.8082 31.4659 87.706 31.4659ZM98.7195 25.125V33H96.7081V19.9091H98.6513V21.9545H98.8217C99.1286 21.2898 99.5945 20.7557 100.219 20.3523C100.844 19.9432 101.651 19.7386 102.64 19.7386C103.526 19.7386 104.302 19.9205 104.967 20.2841C105.631 20.642 106.148 21.1875 106.518 21.9205C106.887 22.6477 107.072 23.5682 107.072 24.6818V33H105.06V24.8182C105.06 23.7898 104.793 22.9886 104.259 22.4148C103.725 21.8352 102.992 21.5455 102.06 21.5455C101.418 21.5455 100.844 21.6847 100.339 21.9631C99.8388 22.2415 99.4439 22.6477 99.1541 23.1818C98.8643 23.7159 98.7195 24.3636 98.7195 25.125ZM117.463 33V31.4659L123.224 25.1591C123.901 24.4205 124.457 23.7784 124.895 23.233C125.332 22.6818 125.656 22.1648 125.866 21.6818C126.082 21.1932 126.19 20.6818 126.19 20.1477C126.19 19.5341 126.043 19.0028 125.747 18.554C125.457 18.1051 125.06 17.7585 124.554 17.5142C124.048 17.2699 123.48 17.1477 122.849 17.1477C122.179 17.1477 121.594 17.2869 121.094 17.5653C120.599 17.8381 120.216 18.2216 119.943 18.7159C119.676 19.2102 119.543 19.7898 119.543 20.4545H117.531C117.531 19.4318 117.767 18.5341 118.239 17.7614C118.71 16.9886 119.352 16.3864 120.165 15.9545C120.983 15.5227 121.901 15.3068 122.918 15.3068C123.94 15.3068 124.847 15.5227 125.636 15.9545C126.426 16.3864 127.045 16.9687 127.494 17.7017C127.943 18.4347 128.168 19.25 128.168 20.1477C128.168 20.7898 128.051 21.4176 127.818 22.0312C127.591 22.6392 127.193 23.3182 126.625 24.0682C126.062 24.8125 125.281 25.7216 124.281 26.7955L120.361 30.9886V31.125H128.474V33H117.463Z" fill="black"/>
</svg>
