<svg width="362" height="89" viewBox="0 0 362 89" fill="none" xmlns="http://www.w3.org/2000/svg">
<g filter="url(#filter0_dd_232_17)">
<path d="M138.6 27.744C141.024 27.744 143.28 28.284 145.368 29.364L144.792 32.1L144.432 32.172C143.28 31.452 142.212 30.936 141.228 30.624C140.268 30.312 139.248 30.156 138.168 30.156C132.96 30.156 130.356 33.372 130.356 39.804C130.356 42.9 130.956 45.18 132.156 46.644C133.38 48.084 135.264 48.804 137.808 48.804C138.48 48.804 139.152 48.744 139.824 48.624C140.52 48.504 141.408 48.276 142.488 47.94L142.56 45.24L142.524 41.784L145.224 41.568L145.152 44.844L145.296 49.884C143.736 50.364 142.356 50.712 141.156 50.928C139.956 51.144 138.792 51.252 137.664 51.252C134.232 51.252 131.652 50.28 129.924 48.336C128.22 46.392 127.368 43.584 127.368 39.912C127.368 35.952 128.34 32.94 130.284 30.876C132.228 28.788 135 27.744 138.6 27.744ZM157.323 34.476C157.611 34.476 157.923 34.5 158.259 34.548V37.32L157.935 37.428C157.527 37.308 157.083 37.248 156.603 37.248C155.811 37.248 155.079 37.572 154.407 38.22C153.759 38.844 153.111 39.852 152.463 41.244L152.427 43.764L152.607 51H149.763L149.943 44.016L149.799 34.692L152.499 34.44L152.463 37.824H152.679C153.351 36.624 154.095 35.772 154.911 35.268C155.727 34.74 156.531 34.476 157.323 34.476ZM167.52 34.224C169.752 34.224 171.48 34.956 172.704 36.42C173.952 37.86 174.576 39.9 174.576 42.54C174.576 45.324 173.928 47.484 172.632 49.02C171.336 50.532 169.488 51.288 167.088 51.288C164.832 51.288 163.08 50.568 161.832 49.128C160.608 47.664 159.996 45.612 159.996 42.972C159.996 40.188 160.644 38.04 161.94 36.528C163.26 34.992 165.12 34.224 167.52 34.224ZM167.34 36.24C165.828 36.24 164.676 36.756 163.884 37.788C163.092 38.82 162.696 40.332 162.696 42.324C162.696 44.628 163.08 46.356 163.848 47.508C164.64 48.66 165.78 49.236 167.268 49.236C168.78 49.236 169.932 48.732 170.724 47.724C171.516 46.716 171.912 45.204 171.912 43.188C171.912 40.908 171.516 39.18 170.724 38.004C169.956 36.828 168.828 36.24 167.34 36.24ZM193.808 48.876L193.52 50.496C192.824 50.904 192.14 51.144 191.468 51.216C190.772 51.12 190.208 50.88 189.776 50.496C189.368 50.088 189.08 49.488 188.912 48.696H188.696C187.256 49.992 185.768 50.832 184.232 51.216C182.456 51.216 181.1 50.796 180.164 49.956C179.252 49.116 178.808 47.916 178.832 46.356L178.868 41.784L178.76 34.692L181.64 34.44L181.424 45.672C181.424 46.656 181.652 47.424 182.108 47.976C182.588 48.528 183.284 48.804 184.196 48.804C185.684 48.804 187.172 48.084 188.66 46.644V34.692L191.396 34.44L191.216 47.472C191.216 47.976 191.288 48.336 191.432 48.552C191.6 48.744 191.876 48.84 192.26 48.84C192.644 48.84 193.064 48.768 193.52 48.624L193.808 48.876ZM204.888 34.332C206.952 34.332 208.536 35.016 209.64 36.384C210.744 37.752 211.296 39.708 211.296 42.252C211.296 45.132 210.6 47.364 209.208 48.948C207.816 50.508 205.836 51.288 203.268 51.288C202.26 51.288 201.216 51.18 200.136 50.964L200.208 57.66H197.4L197.58 44.016L197.4 34.692L200.136 34.44L200.1 36.78H200.352C201.192 36.084 201.948 35.556 202.62 35.196C203.292 34.836 204.048 34.548 204.888 34.332ZM203.628 49.2C205.212 49.2 206.436 48.648 207.3 47.544C208.164 46.44 208.596 44.868 208.596 42.828C208.596 40.836 208.248 39.312 207.552 38.256C206.88 37.2 205.908 36.672 204.636 36.672C203.892 36.672 203.148 36.876 202.404 37.284C201.684 37.692 200.916 38.328 200.1 39.192L200.064 43.764L200.1 48.264C201.276 48.888 202.452 49.2 203.628 49.2ZM227.057 32.928C228.497 32.928 229.673 33.3 230.585 34.044C231.521 34.764 231.989 35.724 231.989 36.924C231.989 37.884 231.653 38.964 230.981 40.164C230.309 41.34 229.241 42.78 227.777 44.484L224.141 48.624L224.213 48.768H230.873L233.897 48.552L234.113 48.732L233.717 51.144L230.045 51H221.981L220.649 51.072L220.469 50.928V49.128L225.473 43.692C226.769 42.252 227.717 41.064 228.317 40.128C228.917 39.168 229.217 38.328 229.217 37.608C229.217 36.96 228.977 36.432 228.497 36.024C228.017 35.592 227.345 35.376 226.481 35.376C225.617 35.376 224.753 35.592 223.889 36.024C223.049 36.456 222.281 37.056 221.585 37.824H221.225L220.757 35.628C221.693 34.764 222.701 34.104 223.781 33.648C224.861 33.168 225.953 32.928 227.057 32.928Z" fill="#393939"/>
<rect opacity="0.6" x="4" width="354" height="81" rx="7" fill="#E3E2DE"/>
</g>
<defs>
<filter id="filter0_dd_232_17" x="0" y="0" width="362" height="89" filterUnits="userSpaceOnUse" color-interpolation-filters="sRGB">
<feFlood flood-opacity="0" result="BackgroundImageFix"/>
<feColorMatrix in="SourceAlpha" type="matrix" values="0 0 0 0 0 0 0 0 0 0 0 0 0 0 0 0 0 0 127 0" result="hardAlpha"/>
<feOffset dy="4"/>
<feGaussianBlur stdDeviation="2"/>
<feComposite in2="hardAlpha" operator="out"/>
<feColorMatrix type="matrix" values="0 0 0 0 0 0 0 0 0 0 0 0 0 0 0 0 0 0 0.25 0"/>
<feBlend mode="normal" in2="BackgroundImageFix" result="effect1_dropShadow_232_17"/>
<feColorMatrix in="SourceAlpha" type="matrix" values="0 0 0 0 0 0 0 0 0 0 0 0 0 0 0 0 0 0 127 0" result="hardAlpha"/>
<feOffset dy="4"/>
<feGaussianBlur stdDeviation="2"/>
<feComposite in2="hardAlpha" operator="out"/>
<feColorMatrix type="matrix" values="0 0 0 0 0 0 0 0 0 0 0 0 0 0 0 0 0 0 0.25 0"/>
<feBlend mode="normal" in2="effect1_dropShadow_232_17" result="effect2_dropShadow_232_17"/>
<feBlend mode="normal" in="SourceGraphic" in2="effect2_dropShadow_232_17" result="shape"/>
</filter>
</defs>
</svg>
