<svg width="1020" height="566" viewBox="0 0 1020 566" fill="none" xmlns="http://www.w3.org/2000/svg">
<rect opacity="0.6" x="0.5" y="0.5" width="1016" height="565" fill="#D9D9D9" stroke="#B2B2B2"/>
<line x1="494.5" x2="494.5" y2="566" stroke="black"/>
<line y1="57.5" x2="1017" y2="57.5" stroke="black"/>
<line x1="3" y1="117.5" x2="1020" y2="117.5" stroke="black"/>
<line y1="174.5" x2="1017" y2="174.5" stroke="black"/>
<line y1="234.5" x2="1017" y2="234.5" stroke="black"/>
<line y1="294.5" x2="1017" y2="294.5" stroke="black"/>
<path d="M198.045 43L191.682 19.7273H194.545L199.409 38.6818H199.636L204.591 19.7273H207.773L212.727 38.6818H212.955L217.818 19.7273H220.682L214.318 43H211.409L206.273 24.4545H206.091L200.955 43H198.045ZM229.295 43.3636C227.72 43.3636 226.337 42.9886 225.148 42.2386C223.966 41.4886 223.042 40.4394 222.375 39.0909C221.716 37.7424 221.386 36.1667 221.386 34.3636C221.386 32.5455 221.716 30.9583 222.375 29.6023C223.042 28.2462 223.966 27.1932 225.148 26.4432C226.337 25.6932 227.72 25.3182 229.295 25.3182C230.871 25.3182 232.25 25.6932 233.432 26.4432C234.621 27.1932 235.545 28.2462 236.205 29.6023C236.871 30.9583 237.205 32.5455 237.205 34.3636C237.205 36.1667 236.871 37.7424 236.205 39.0909C235.545 40.4394 234.621 41.4886 233.432 42.2386C232.25 42.9886 230.871 43.3636 229.295 43.3636ZM229.295 40.9545C230.492 40.9545 231.477 40.6477 232.25 40.0341C233.023 39.4205 233.595 38.6136 233.966 37.6136C234.337 36.6136 234.523 35.5303 234.523 34.3636C234.523 33.197 234.337 32.1098 233.966 31.1023C233.595 30.0947 233.023 29.2803 232.25 28.6591C231.477 28.0379 230.492 27.7273 229.295 27.7273C228.098 27.7273 227.114 28.0379 226.341 28.6591C225.568 29.2803 224.996 30.0947 224.625 31.1023C224.254 32.1098 224.068 33.197 224.068 34.3636C224.068 35.5303 224.254 36.6136 224.625 37.6136C224.996 38.6136 225.568 39.4205 226.341 40.0341C227.114 40.6477 228.098 40.9545 229.295 40.9545ZM241.298 43V25.5455H243.889V28.1818H244.071C244.389 27.3182 244.965 26.6174 245.798 26.0795C246.632 25.5417 247.571 25.2727 248.616 25.2727C248.813 25.2727 249.06 25.2765 249.355 25.2841C249.651 25.2917 249.874 25.303 250.026 25.3182V28.0455C249.935 28.0227 249.726 27.9886 249.401 27.9432C249.082 27.8902 248.745 27.8636 248.389 27.8636C247.541 27.8636 246.783 28.0417 246.116 28.3977C245.457 28.7462 244.935 29.2311 244.548 29.8523C244.17 30.4659 243.98 31.1667 243.98 31.9545V43H241.298ZM259.264 43.3636C257.81 43.3636 256.526 42.9962 255.412 42.2614C254.298 41.5189 253.427 40.4735 252.798 39.125C252.17 37.7689 251.855 36.1667 251.855 34.3182C251.855 32.4848 252.17 30.8939 252.798 29.5455C253.427 28.197 254.302 27.1553 255.423 26.4205C256.545 25.6856 257.84 25.3182 259.31 25.3182C260.446 25.3182 261.344 25.5076 262.003 25.8864C262.67 26.2576 263.177 26.6818 263.526 27.1591C263.882 27.6288 264.158 28.0152 264.355 28.3182H264.582V19.7273H267.264V43H264.673V40.3182H264.355C264.158 40.6364 263.878 41.0379 263.514 41.5227C263.151 42 262.632 42.428 261.957 42.8068C261.283 43.178 260.385 43.3636 259.264 43.3636ZM259.628 40.9545C260.704 40.9545 261.613 40.6742 262.355 40.1136C263.098 39.5455 263.662 38.7614 264.048 37.7614C264.435 36.7538 264.628 35.5909 264.628 34.2727C264.628 32.9697 264.438 31.8295 264.06 30.8523C263.681 29.8674 263.12 29.1023 262.378 28.5568C261.635 28.0038 260.719 27.7273 259.628 27.7273C258.491 27.7273 257.545 28.0189 256.787 28.6023C256.037 29.178 255.473 29.9621 255.094 30.9545C254.723 31.9394 254.537 33.0455 254.537 34.2727C254.537 35.5152 254.726 36.6439 255.105 37.6591C255.491 38.6667 256.06 39.4697 256.81 40.0682C257.567 40.6591 258.507 40.9545 259.628 40.9545Z" fill="black"/>
<path d="M198.045 99L191.682 75.7273H194.545L199.409 94.6818H199.636L204.591 75.7273H207.773L212.727 94.6818H212.955L217.818 75.7273H220.682L214.318 99H211.409L206.273 80.4545H206.091L200.955 99H198.045ZM229.295 99.3636C227.72 99.3636 226.337 98.9886 225.148 98.2386C223.966 97.4886 223.042 96.4394 222.375 95.0909C221.716 93.7424 221.386 92.1667 221.386 90.3636C221.386 88.5455 221.716 86.9583 222.375 85.6023C223.042 84.2462 223.966 83.1932 225.148 82.4432C226.337 81.6932 227.72 81.3182 229.295 81.3182C230.871 81.3182 232.25 81.6932 233.432 82.4432C234.621 83.1932 235.545 84.2462 236.205 85.6023C236.871 86.9583 237.205 88.5455 237.205 90.3636C237.205 92.1667 236.871 93.7424 236.205 95.0909C235.545 96.4394 234.621 97.4886 233.432 98.2386C232.25 98.9886 230.871 99.3636 229.295 99.3636ZM229.295 96.9545C230.492 96.9545 231.477 96.6477 232.25 96.0341C233.023 95.4205 233.595 94.6136 233.966 93.6136C234.337 92.6136 234.523 91.5303 234.523 90.3636C234.523 89.197 234.337 88.1098 233.966 87.1023C233.595 86.0947 233.023 85.2803 232.25 84.6591C231.477 84.0379 230.492 83.7273 229.295 83.7273C228.098 83.7273 227.114 84.0379 226.341 84.6591C225.568 85.2803 224.996 86.0947 224.625 87.1023C224.254 88.1098 224.068 89.197 224.068 90.3636C224.068 91.5303 224.254 92.6136 224.625 93.6136C224.996 94.6136 225.568 95.4205 226.341 96.0341C227.114 96.6477 228.098 96.9545 229.295 96.9545ZM241.298 99V81.5455H243.889V84.1818H244.071C244.389 83.3182 244.965 82.6174 245.798 82.0795C246.632 81.5417 247.571 81.2727 248.616 81.2727C248.813 81.2727 249.06 81.2765 249.355 81.2841C249.651 81.2917 249.874 81.303 250.026 81.3182V84.0455C249.935 84.0227 249.726 83.9886 249.401 83.9432C249.082 83.8902 248.745 83.8636 248.389 83.8636C247.541 83.8636 246.783 84.0417 246.116 84.3977C245.457 84.7462 244.935 85.2311 244.548 85.8523C244.17 86.4659 243.98 87.1667 243.98 87.9545V99H241.298ZM259.264 99.3636C257.81 99.3636 256.526 98.9962 255.412 98.2614C254.298 97.5189 253.427 96.4735 252.798 95.125C252.17 93.7689 251.855 92.1667 251.855 90.3182C251.855 88.4848 252.17 86.8939 252.798 85.5455C253.427 84.197 254.302 83.1553 255.423 82.4205C256.545 81.6856 257.84 81.3182 259.31 81.3182C260.446 81.3182 261.344 81.5076 262.003 81.8864C262.67 82.2576 263.177 82.6818 263.526 83.1591C263.882 83.6288 264.158 84.0152 264.355 84.3182H264.582V75.7273H267.264V99H264.673V96.3182H264.355C264.158 96.6364 263.878 97.0379 263.514 97.5227C263.151 98 262.632 98.428 261.957 98.8068C261.283 99.178 260.385 99.3636 259.264 99.3636ZM259.628 96.9545C260.704 96.9545 261.613 96.6742 262.355 96.1136C263.098 95.5455 263.662 94.7614 264.048 93.7614C264.435 92.7538 264.628 91.5909 264.628 90.2727C264.628 88.9697 264.438 87.8295 264.06 86.8523C263.681 85.8674 263.12 85.1023 262.378 84.5568C261.635 84.0038 260.719 83.7273 259.628 83.7273C258.491 83.7273 257.545 84.0189 256.787 84.6023C256.037 85.178 255.473 85.9621 255.094 86.9545C254.723 87.9394 254.537 89.0455 254.537 90.2727C254.537 91.5152 254.726 92.6439 255.105 93.6591C255.491 94.6667 256.06 95.4697 256.81 96.0682C257.567 96.6591 258.507 96.9545 259.628 96.9545Z" fill="black"/>
<path d="M198.045 164L191.682 140.727H194.545L199.409 159.682H199.636L204.591 140.727H207.773L212.727 159.682H212.955L217.818 140.727H220.682L214.318 164H211.409L206.273 145.455H206.091L200.955 164H198.045ZM229.295 164.364C227.72 164.364 226.337 163.989 225.148 163.239C223.966 162.489 223.042 161.439 222.375 160.091C221.716 158.742 221.386 157.167 221.386 155.364C221.386 153.545 221.716 151.958 222.375 150.602C223.042 149.246 223.966 148.193 225.148 147.443C226.337 146.693 227.72 146.318 229.295 146.318C230.871 146.318 232.25 146.693 233.432 147.443C234.621 148.193 235.545 149.246 236.205 150.602C236.871 151.958 237.205 153.545 237.205 155.364C237.205 157.167 236.871 158.742 236.205 160.091C235.545 161.439 234.621 162.489 233.432 163.239C232.25 163.989 230.871 164.364 229.295 164.364ZM229.295 161.955C230.492 161.955 231.477 161.648 232.25 161.034C233.023 160.42 233.595 159.614 233.966 158.614C234.337 157.614 234.523 156.53 234.523 155.364C234.523 154.197 234.337 153.11 233.966 152.102C233.595 151.095 233.023 150.28 232.25 149.659C231.477 149.038 230.492 148.727 229.295 148.727C228.098 148.727 227.114 149.038 226.341 149.659C225.568 150.28 224.996 151.095 224.625 152.102C224.254 153.11 224.068 154.197 224.068 155.364C224.068 156.53 224.254 157.614 224.625 158.614C224.996 159.614 225.568 160.42 226.341 161.034C227.114 161.648 228.098 161.955 229.295 161.955ZM241.298 164V146.545H243.889V149.182H244.071C244.389 148.318 244.965 147.617 245.798 147.08C246.632 146.542 247.571 146.273 248.616 146.273C248.813 146.273 249.06 146.277 249.355 146.284C249.651 146.292 249.874 146.303 250.026 146.318V149.045C249.935 149.023 249.726 148.989 249.401 148.943C249.082 148.89 248.745 148.864 248.389 148.864C247.541 148.864 246.783 149.042 246.116 149.398C245.457 149.746 244.935 150.231 244.548 150.852C244.17 151.466 243.98 152.167 243.98 152.955V164H241.298ZM259.264 164.364C257.81 164.364 256.526 163.996 255.412 163.261C254.298 162.519 253.427 161.473 252.798 160.125C252.17 158.769 251.855 157.167 251.855 155.318C251.855 153.485 252.17 151.894 252.798 150.545C253.427 149.197 254.302 148.155 255.423 147.42C256.545 146.686 257.84 146.318 259.31 146.318C260.446 146.318 261.344 146.508 262.003 146.886C262.67 147.258 263.177 147.682 263.526 148.159C263.882 148.629 264.158 149.015 264.355 149.318H264.582V140.727H267.264V164H264.673V161.318H264.355C264.158 161.636 263.878 162.038 263.514 162.523C263.151 163 262.632 163.428 261.957 163.807C261.283 164.178 260.385 164.364 259.264 164.364ZM259.628 161.955C260.704 161.955 261.613 161.674 262.355 161.114C263.098 160.545 263.662 159.761 264.048 158.761C264.435 157.754 264.628 156.591 264.628 155.273C264.628 153.97 264.438 152.83 264.06 151.852C263.681 150.867 263.12 150.102 262.378 149.557C261.635 149.004 260.719 148.727 259.628 148.727C258.491 148.727 257.545 149.019 256.787 149.602C256.037 150.178 255.473 150.962 255.094 151.955C254.723 152.939 254.537 154.045 254.537 155.273C254.537 156.515 254.726 157.644 255.105 158.659C255.491 159.667 256.06 160.47 256.81 161.068C257.567 161.659 258.507 161.955 259.628 161.955Z" fill="black"/>
<path d="M198.045 216L191.682 192.727H194.545L199.409 211.682H199.636L204.591 192.727H207.773L212.727 211.682H212.955L217.818 192.727H220.682L214.318 216H211.409L206.273 197.455H206.091L200.955 216H198.045ZM229.295 216.364C227.72 216.364 226.337 215.989 225.148 215.239C223.966 214.489 223.042 213.439 222.375 212.091C221.716 210.742 221.386 209.167 221.386 207.364C221.386 205.545 221.716 203.958 222.375 202.602C223.042 201.246 223.966 200.193 225.148 199.443C226.337 198.693 227.72 198.318 229.295 198.318C230.871 198.318 232.25 198.693 233.432 199.443C234.621 200.193 235.545 201.246 236.205 202.602C236.871 203.958 237.205 205.545 237.205 207.364C237.205 209.167 236.871 210.742 236.205 212.091C235.545 213.439 234.621 214.489 233.432 215.239C232.25 215.989 230.871 216.364 229.295 216.364ZM229.295 213.955C230.492 213.955 231.477 213.648 232.25 213.034C233.023 212.42 233.595 211.614 233.966 210.614C234.337 209.614 234.523 208.53 234.523 207.364C234.523 206.197 234.337 205.11 233.966 204.102C233.595 203.095 233.023 202.28 232.25 201.659C231.477 201.038 230.492 200.727 229.295 200.727C228.098 200.727 227.114 201.038 226.341 201.659C225.568 202.28 224.996 203.095 224.625 204.102C224.254 205.11 224.068 206.197 224.068 207.364C224.068 208.53 224.254 209.614 224.625 210.614C224.996 211.614 225.568 212.42 226.341 213.034C227.114 213.648 228.098 213.955 229.295 213.955ZM241.298 216V198.545H243.889V201.182H244.071C244.389 200.318 244.965 199.617 245.798 199.08C246.632 198.542 247.571 198.273 248.616 198.273C248.813 198.273 249.06 198.277 249.355 198.284C249.651 198.292 249.874 198.303 250.026 198.318V201.045C249.935 201.023 249.726 200.989 249.401 200.943C249.082 200.89 248.745 200.864 248.389 200.864C247.541 200.864 246.783 201.042 246.116 201.398C245.457 201.746 244.935 202.231 244.548 202.852C244.17 203.466 243.98 204.167 243.98 204.955V216H241.298ZM259.264 216.364C257.81 216.364 256.526 215.996 255.412 215.261C254.298 214.519 253.427 213.473 252.798 212.125C252.17 210.769 251.855 209.167 251.855 207.318C251.855 205.485 252.17 203.894 252.798 202.545C253.427 201.197 254.302 200.155 255.423 199.42C256.545 198.686 257.84 198.318 259.31 198.318C260.446 198.318 261.344 198.508 262.003 198.886C262.67 199.258 263.177 199.682 263.526 200.159C263.882 200.629 264.158 201.015 264.355 201.318H264.582V192.727H267.264V216H264.673V213.318H264.355C264.158 213.636 263.878 214.038 263.514 214.523C263.151 215 262.632 215.428 261.957 215.807C261.283 216.178 260.385 216.364 259.264 216.364ZM259.628 213.955C260.704 213.955 261.613 213.674 262.355 213.114C263.098 212.545 263.662 211.761 264.048 210.761C264.435 209.754 264.628 208.591 264.628 207.273C264.628 205.97 264.438 204.83 264.06 203.852C263.681 202.867 263.12 202.102 262.378 201.557C261.635 201.004 260.719 200.727 259.628 200.727C258.491 200.727 257.545 201.019 256.787 201.602C256.037 202.178 255.473 202.962 255.094 203.955C254.723 204.939 254.537 206.045 254.537 207.273C254.537 208.515 254.726 209.644 255.105 210.659C255.491 211.667 256.06 212.47 256.81 213.068C257.567 213.659 258.507 213.955 259.628 213.955Z" fill="black"/>
<path d="M198.045 279L191.682 255.727H194.545L199.409 274.682H199.636L204.591 255.727H207.773L212.727 274.682H212.955L217.818 255.727H220.682L214.318 279H211.409L206.273 260.455H206.091L200.955 279H198.045ZM229.295 279.364C227.72 279.364 226.337 278.989 225.148 278.239C223.966 277.489 223.042 276.439 222.375 275.091C221.716 273.742 221.386 272.167 221.386 270.364C221.386 268.545 221.716 266.958 222.375 265.602C223.042 264.246 223.966 263.193 225.148 262.443C226.337 261.693 227.72 261.318 229.295 261.318C230.871 261.318 232.25 261.693 233.432 262.443C234.621 263.193 235.545 264.246 236.205 265.602C236.871 266.958 237.205 268.545 237.205 270.364C237.205 272.167 236.871 273.742 236.205 275.091C235.545 276.439 234.621 277.489 233.432 278.239C232.25 278.989 230.871 279.364 229.295 279.364ZM229.295 276.955C230.492 276.955 231.477 276.648 232.25 276.034C233.023 275.42 233.595 274.614 233.966 273.614C234.337 272.614 234.523 271.53 234.523 270.364C234.523 269.197 234.337 268.11 233.966 267.102C233.595 266.095 233.023 265.28 232.25 264.659C231.477 264.038 230.492 263.727 229.295 263.727C228.098 263.727 227.114 264.038 226.341 264.659C225.568 265.28 224.996 266.095 224.625 267.102C224.254 268.11 224.068 269.197 224.068 270.364C224.068 271.53 224.254 272.614 224.625 273.614C224.996 274.614 225.568 275.42 226.341 276.034C227.114 276.648 228.098 276.955 229.295 276.955ZM241.298 279V261.545H243.889V264.182H244.071C244.389 263.318 244.965 262.617 245.798 262.08C246.632 261.542 247.571 261.273 248.616 261.273C248.813 261.273 249.06 261.277 249.355 261.284C249.651 261.292 249.874 261.303 250.026 261.318V264.045C249.935 264.023 249.726 263.989 249.401 263.943C249.082 263.89 248.745 263.864 248.389 263.864C247.541 263.864 246.783 264.042 246.116 264.398C245.457 264.746 244.935 265.231 244.548 265.852C244.17 266.466 243.98 267.167 243.98 267.955V279H241.298ZM259.264 279.364C257.81 279.364 256.526 278.996 255.412 278.261C254.298 277.519 253.427 276.473 252.798 275.125C252.17 273.769 251.855 272.167 251.855 270.318C251.855 268.485 252.17 266.894 252.798 265.545C253.427 264.197 254.302 263.155 255.423 262.42C256.545 261.686 257.84 261.318 259.31 261.318C260.446 261.318 261.344 261.508 262.003 261.886C262.67 262.258 263.177 262.682 263.526 263.159C263.882 263.629 264.158 264.015 264.355 264.318H264.582V255.727H267.264V279H264.673V276.318H264.355C264.158 276.636 263.878 277.038 263.514 277.523C263.151 278 262.632 278.428 261.957 278.807C261.283 279.178 260.385 279.364 259.264 279.364ZM259.628 276.955C260.704 276.955 261.613 276.674 262.355 276.114C263.098 275.545 263.662 274.761 264.048 273.761C264.435 272.754 264.628 271.591 264.628 270.273C264.628 268.97 264.438 267.83 264.06 266.852C263.681 265.867 263.12 265.102 262.378 264.557C261.635 264.004 260.719 263.727 259.628 263.727C258.491 263.727 257.545 264.019 256.787 264.602C256.037 265.178 255.473 265.962 255.094 266.955C254.723 267.939 254.537 269.045 254.537 270.273C254.537 271.515 254.726 272.644 255.105 273.659C255.491 274.667 256.06 275.47 256.81 276.068C257.567 276.659 258.507 276.955 259.628 276.955Z" fill="black"/>
<path d="M680.545 22.2273V19.7273H698V22.2273H690.682V43H687.864V22.2273H680.545ZM700.173 43V25.5455H702.764V28.1818H702.946C703.264 27.3182 703.84 26.6174 704.673 26.0795C705.507 25.5417 706.446 25.2727 707.491 25.2727C707.688 25.2727 707.935 25.2765 708.23 25.2841C708.526 25.2917 708.749 25.303 708.901 25.3182V28.0455C708.81 28.0227 708.601 27.9886 708.276 27.9432C707.957 27.8902 707.62 27.8636 707.264 27.8636C706.416 27.8636 705.658 28.0417 704.991 28.3977C704.332 28.7462 703.81 29.2311 703.423 29.8523C703.045 30.4659 702.855 31.1667 702.855 31.9545V43H700.173ZM717.216 43.4091C716.11 43.4091 715.106 43.2008 714.205 42.7841C713.303 42.3598 712.587 41.75 712.057 40.9545C711.527 40.1515 711.261 39.1818 711.261 38.0455C711.261 37.0455 711.458 36.2348 711.852 35.6136C712.246 34.9848 712.773 34.4924 713.432 34.1364C714.091 33.7803 714.818 33.5152 715.614 33.3409C716.417 33.1591 717.223 33.0152 718.034 32.9091C719.095 32.7727 719.955 32.6705 720.614 32.6023C721.28 32.5265 721.765 32.4015 722.068 32.2273C722.379 32.053 722.534 31.75 722.534 31.3182V31.2273C722.534 30.1061 722.227 29.2348 721.614 28.6136C721.008 27.9924 720.087 27.6818 718.852 27.6818C717.572 27.6818 716.568 27.9621 715.841 28.5227C715.114 29.0833 714.602 29.6818 714.307 30.3182L711.761 29.4091C712.216 28.3485 712.822 27.5227 713.58 26.9318C714.345 26.3333 715.178 25.9167 716.08 25.6818C716.989 25.4394 717.883 25.3182 718.761 25.3182C719.322 25.3182 719.966 25.3864 720.693 25.5227C721.428 25.6515 722.136 25.9205 722.818 26.3295C723.508 26.7386 724.08 27.3561 724.534 28.1818C724.989 29.0076 725.216 30.1136 725.216 31.5V43H722.534V40.6364H722.398C722.216 41.0152 721.913 41.4205 721.489 41.8523C721.064 42.2841 720.5 42.6515 719.795 42.9545C719.091 43.2576 718.231 43.4091 717.216 43.4091ZM717.625 41C718.686 41 719.58 40.7917 720.307 40.375C721.042 39.9583 721.595 39.4205 721.966 38.7614C722.345 38.1023 722.534 37.4091 722.534 36.6818V34.2273C722.42 34.3636 722.17 34.4886 721.784 34.6023C721.405 34.7083 720.966 34.803 720.466 34.8864C719.973 34.9621 719.492 35.0303 719.023 35.0909C718.561 35.1439 718.186 35.1894 717.898 35.2273C717.201 35.3182 716.549 35.4659 715.943 35.6705C715.345 35.8674 714.86 36.1667 714.489 36.5682C714.125 36.9621 713.943 37.5 713.943 38.1818C713.943 39.1136 714.288 39.8182 714.977 40.2955C715.674 40.7652 716.557 41 717.625 41ZM732.793 32.5V43H730.111V25.5455H732.702V28.2727H732.929C733.338 27.3864 733.959 26.6742 734.793 26.1364C735.626 25.5909 736.702 25.3182 738.02 25.3182C739.202 25.3182 740.236 25.5606 741.122 26.0455C742.009 26.5227 742.698 27.25 743.19 28.2273C743.683 29.197 743.929 30.4242 743.929 31.9091V43H741.247V32.0909C741.247 30.7197 740.891 29.6515 740.179 28.8864C739.467 28.1136 738.49 27.7273 737.247 27.7273C736.391 27.7273 735.626 27.9129 734.952 28.2841C734.285 28.6553 733.759 29.197 733.372 29.9091C732.986 30.6212 732.793 31.4848 732.793 32.5ZM761.193 29.4545L758.784 30.1364C758.633 29.7348 758.409 29.3447 758.114 28.9659C757.826 28.5795 757.432 28.2614 756.932 28.0114C756.432 27.7614 755.792 27.6364 755.011 27.6364C753.943 27.6364 753.053 27.8826 752.341 28.375C751.636 28.8598 751.284 29.4773 751.284 30.2273C751.284 30.8939 751.527 31.4205 752.011 31.8068C752.496 32.1932 753.254 32.5152 754.284 32.7727L756.875 33.4091C758.436 33.7879 759.598 34.3674 760.364 35.1477C761.129 35.9205 761.511 36.9167 761.511 38.1364C761.511 39.1364 761.223 40.0303 760.648 40.8182C760.08 41.6061 759.284 42.2273 758.261 42.6818C757.239 43.1364 756.049 43.3636 754.693 43.3636C752.913 43.3636 751.439 42.9773 750.273 42.2045C749.106 41.4318 748.367 40.303 748.057 38.8182L750.602 38.1818C750.845 39.1212 751.303 39.8258 751.977 40.2955C752.659 40.7652 753.549 41 754.648 41C755.898 41 756.89 40.7348 757.625 40.2045C758.367 39.6667 758.739 39.0227 758.739 38.2727C758.739 37.6667 758.527 37.1591 758.102 36.75C757.678 36.3333 757.027 36.0227 756.148 35.8182L753.239 35.1364C751.64 34.7576 750.466 34.1705 749.716 33.375C748.973 32.572 748.602 31.5682 748.602 30.3636C748.602 29.3788 748.879 28.5076 749.432 27.75C749.992 26.9924 750.754 26.3977 751.716 25.9659C752.686 25.5341 753.784 25.3182 755.011 25.3182C756.739 25.3182 758.095 25.697 759.08 26.4545C760.072 27.2121 760.777 28.2121 761.193 29.4545ZM768.23 19.7273V43H765.548V19.7273H768.23ZM778.278 43.4091C777.172 43.4091 776.169 43.2008 775.267 42.7841C774.366 42.3598 773.65 41.75 773.119 40.9545C772.589 40.1515 772.324 39.1818 772.324 38.0455C772.324 37.0455 772.521 36.2348 772.915 35.6136C773.309 34.9848 773.835 34.4924 774.494 34.1364C775.153 33.7803 775.881 33.5152 776.676 33.3409C777.479 33.1591 778.286 33.0152 779.097 32.9091C780.157 32.7727 781.017 32.6705 781.676 32.6023C782.343 32.5265 782.828 32.4015 783.131 32.2273C783.441 32.053 783.597 31.75 783.597 31.3182V31.2273C783.597 30.1061 783.29 29.2348 782.676 28.6136C782.07 27.9924 781.15 27.6818 779.915 27.6818C778.634 27.6818 777.631 27.9621 776.903 28.5227C776.176 29.0833 775.665 29.6818 775.369 30.3182L772.824 29.4091C773.278 28.3485 773.884 27.5227 774.642 26.9318C775.407 26.3333 776.241 25.9167 777.142 25.6818C778.051 25.4394 778.945 25.3182 779.824 25.3182C780.384 25.3182 781.028 25.3864 781.756 25.5227C782.491 25.6515 783.199 25.9205 783.881 26.3295C784.57 26.7386 785.142 27.3561 785.597 28.1818C786.051 29.0076 786.278 30.1136 786.278 31.5V43H783.597V40.6364H783.46C783.278 41.0152 782.975 41.4205 782.551 41.8523C782.127 42.2841 781.563 42.6515 780.858 42.9545C780.153 43.2576 779.294 43.4091 778.278 43.4091ZM778.688 41C779.748 41 780.642 40.7917 781.369 40.375C782.104 39.9583 782.657 39.4205 783.028 38.7614C783.407 38.1023 783.597 37.4091 783.597 36.6818V34.2273C783.483 34.3636 783.233 34.4886 782.847 34.6023C782.468 34.7083 782.028 34.803 781.528 34.8864C781.036 34.9621 780.555 35.0303 780.085 35.0909C779.623 35.1439 779.248 35.1894 778.96 35.2273C778.263 35.3182 777.612 35.4659 777.006 35.6705C776.407 35.8674 775.922 36.1667 775.551 36.5682C775.188 36.9621 775.006 37.5 775.006 38.1818C775.006 39.1136 775.35 39.8182 776.04 40.2955C776.737 40.7652 777.619 41 778.688 41ZM798.764 25.5455V27.8182H789.719V25.5455H798.764ZM792.355 21.3636H795.037V38C795.037 38.7576 795.147 39.3258 795.366 39.7045C795.594 40.0758 795.882 40.3258 796.23 40.4545C796.586 40.5758 796.961 40.6364 797.355 40.6364C797.651 40.6364 797.893 40.6212 798.082 40.5909C798.272 40.553 798.423 40.5227 798.537 40.5L799.082 42.9091C798.901 42.9773 798.647 43.0455 798.321 43.1136C797.995 43.1894 797.582 43.2273 797.082 43.2273C796.325 43.2273 795.582 43.0644 794.855 42.7386C794.135 42.4129 793.537 41.9167 793.06 41.25C792.59 40.5833 792.355 39.7424 792.355 38.7273V21.3636ZM809.929 43.3636C808.247 43.3636 806.796 42.9924 805.577 42.25C804.365 41.5 803.429 40.4545 802.77 39.1136C802.118 37.7652 801.793 36.197 801.793 34.4091C801.793 32.6212 802.118 31.0455 802.77 29.6818C803.429 28.3106 804.346 27.2424 805.52 26.4773C806.702 25.7045 808.08 25.3182 809.656 25.3182C810.565 25.3182 811.463 25.4697 812.349 25.7727C813.236 26.0758 814.043 26.5682 814.77 27.25C815.497 27.9242 816.077 28.8182 816.509 29.9318C816.94 31.0455 817.156 32.4167 817.156 34.0455V35.1818H803.702V32.8636H814.429C814.429 31.8788 814.232 31 813.838 30.2273C813.452 29.4545 812.899 28.8447 812.179 28.3977C811.467 27.9508 810.626 27.7273 809.656 27.7273C808.588 27.7273 807.664 27.9924 806.884 28.5227C806.111 29.0455 805.516 29.7273 805.099 30.5682C804.683 31.4091 804.474 32.3106 804.474 33.2727V34.8182C804.474 36.1364 804.702 37.2538 805.156 38.1705C805.618 39.0795 806.259 39.7727 807.077 40.25C807.895 40.7197 808.846 40.9545 809.929 40.9545C810.634 40.9545 811.27 40.8561 811.838 40.6591C812.414 40.4545 812.91 40.1515 813.327 39.75C813.743 39.3409 814.065 38.8333 814.293 38.2273L816.884 38.9545C816.611 39.8333 816.152 40.6061 815.509 41.2727C814.865 41.9318 814.069 42.447 813.122 42.8182C812.175 43.1818 811.111 43.3636 809.929 43.3636Z" fill="black"/>
<path d="M680.545 78.2273V75.7273H698V78.2273H690.682V99H687.864V78.2273H680.545ZM700.173 99V81.5455H702.764V84.1818H702.946C703.264 83.3182 703.84 82.6174 704.673 82.0795C705.507 81.5417 706.446 81.2727 707.491 81.2727C707.688 81.2727 707.935 81.2765 708.23 81.2841C708.526 81.2917 708.749 81.303 708.901 81.3182V84.0455C708.81 84.0227 708.601 83.9886 708.276 83.9432C707.957 83.8902 707.62 83.8636 707.264 83.8636C706.416 83.8636 705.658 84.0417 704.991 84.3977C704.332 84.7462 703.81 85.2311 703.423 85.8523C703.045 86.4659 702.855 87.1667 702.855 87.9545V99H700.173ZM717.216 99.4091C716.11 99.4091 715.106 99.2008 714.205 98.7841C713.303 98.3598 712.587 97.75 712.057 96.9545C711.527 96.1515 711.261 95.1818 711.261 94.0455C711.261 93.0455 711.458 92.2348 711.852 91.6136C712.246 90.9848 712.773 90.4924 713.432 90.1364C714.091 89.7803 714.818 89.5152 715.614 89.3409C716.417 89.1591 717.223 89.0152 718.034 88.9091C719.095 88.7727 719.955 88.6705 720.614 88.6023C721.28 88.5265 721.765 88.4015 722.068 88.2273C722.379 88.053 722.534 87.75 722.534 87.3182V87.2273C722.534 86.1061 722.227 85.2348 721.614 84.6136C721.008 83.9924 720.087 83.6818 718.852 83.6818C717.572 83.6818 716.568 83.9621 715.841 84.5227C715.114 85.0833 714.602 85.6818 714.307 86.3182L711.761 85.4091C712.216 84.3485 712.822 83.5227 713.58 82.9318C714.345 82.3333 715.178 81.9167 716.08 81.6818C716.989 81.4394 717.883 81.3182 718.761 81.3182C719.322 81.3182 719.966 81.3864 720.693 81.5227C721.428 81.6515 722.136 81.9205 722.818 82.3295C723.508 82.7386 724.08 83.3561 724.534 84.1818C724.989 85.0076 725.216 86.1136 725.216 87.5V99H722.534V96.6364H722.398C722.216 97.0152 721.913 97.4205 721.489 97.8523C721.064 98.2841 720.5 98.6515 719.795 98.9545C719.091 99.2576 718.231 99.4091 717.216 99.4091ZM717.625 97C718.686 97 719.58 96.7917 720.307 96.375C721.042 95.9583 721.595 95.4205 721.966 94.7614C722.345 94.1023 722.534 93.4091 722.534 92.6818V90.2273C722.42 90.3636 722.17 90.4886 721.784 90.6023C721.405 90.7083 720.966 90.803 720.466 90.8864C719.973 90.9621 719.492 91.0303 719.023 91.0909C718.561 91.1439 718.186 91.1894 717.898 91.2273C717.201 91.3182 716.549 91.4659 715.943 91.6705C715.345 91.8674 714.86 92.1667 714.489 92.5682C714.125 92.9621 713.943 93.5 713.943 94.1818C713.943 95.1136 714.288 95.8182 714.977 96.2955C715.674 96.7652 716.557 97 717.625 97ZM732.793 88.5V99H730.111V81.5455H732.702V84.2727H732.929C733.338 83.3864 733.959 82.6742 734.793 82.1364C735.626 81.5909 736.702 81.3182 738.02 81.3182C739.202 81.3182 740.236 81.5606 741.122 82.0455C742.009 82.5227 742.698 83.25 743.19 84.2273C743.683 85.197 743.929 86.4242 743.929 87.9091V99H741.247V88.0909C741.247 86.7197 740.891 85.6515 740.179 84.8864C739.467 84.1136 738.49 83.7273 737.247 83.7273C736.391 83.7273 735.626 83.9129 734.952 84.2841C734.285 84.6553 733.759 85.197 733.372 85.9091C732.986 86.6212 732.793 87.4848 732.793 88.5ZM761.193 85.4545L758.784 86.1364C758.633 85.7348 758.409 85.3447 758.114 84.9659C757.826 84.5795 757.432 84.2614 756.932 84.0114C756.432 83.7614 755.792 83.6364 755.011 83.6364C753.943 83.6364 753.053 83.8826 752.341 84.375C751.636 84.8598 751.284 85.4773 751.284 86.2273C751.284 86.8939 751.527 87.4205 752.011 87.8068C752.496 88.1932 753.254 88.5152 754.284 88.7727L756.875 89.4091C758.436 89.7879 759.598 90.3674 760.364 91.1477C761.129 91.9205 761.511 92.9167 761.511 94.1364C761.511 95.1364 761.223 96.0303 760.648 96.8182C760.08 97.6061 759.284 98.2273 758.261 98.6818C757.239 99.1364 756.049 99.3636 754.693 99.3636C752.913 99.3636 751.439 98.9773 750.273 98.2045C749.106 97.4318 748.367 96.303 748.057 94.8182L750.602 94.1818C750.845 95.1212 751.303 95.8258 751.977 96.2955C752.659 96.7652 753.549 97 754.648 97C755.898 97 756.89 96.7348 757.625 96.2045C758.367 95.6667 758.739 95.0227 758.739 94.2727C758.739 93.6667 758.527 93.1591 758.102 92.75C757.678 92.3333 757.027 92.0227 756.148 91.8182L753.239 91.1364C751.64 90.7576 750.466 90.1705 749.716 89.375C748.973 88.572 748.602 87.5682 748.602 86.3636C748.602 85.3788 748.879 84.5076 749.432 83.75C749.992 82.9924 750.754 82.3977 751.716 81.9659C752.686 81.5341 753.784 81.3182 755.011 81.3182C756.739 81.3182 758.095 81.697 759.08 82.4545C760.072 83.2121 760.777 84.2121 761.193 85.4545ZM768.23 75.7273V99H765.548V75.7273H768.23ZM778.278 99.4091C777.172 99.4091 776.169 99.2008 775.267 98.7841C774.366 98.3598 773.65 97.75 773.119 96.9545C772.589 96.1515 772.324 95.1818 772.324 94.0455C772.324 93.0455 772.521 92.2348 772.915 91.6136C773.309 90.9848 773.835 90.4924 774.494 90.1364C775.153 89.7803 775.881 89.5152 776.676 89.3409C777.479 89.1591 778.286 89.0152 779.097 88.9091C780.157 88.7727 781.017 88.6705 781.676 88.6023C782.343 88.5265 782.828 88.4015 783.131 88.2273C783.441 88.053 783.597 87.75 783.597 87.3182V87.2273C783.597 86.1061 783.29 85.2348 782.676 84.6136C782.07 83.9924 781.15 83.6818 779.915 83.6818C778.634 83.6818 777.631 83.9621 776.903 84.5227C776.176 85.0833 775.665 85.6818 775.369 86.3182L772.824 85.4091C773.278 84.3485 773.884 83.5227 774.642 82.9318C775.407 82.3333 776.241 81.9167 777.142 81.6818C778.051 81.4394 778.945 81.3182 779.824 81.3182C780.384 81.3182 781.028 81.3864 781.756 81.5227C782.491 81.6515 783.199 81.9205 783.881 82.3295C784.57 82.7386 785.142 83.3561 785.597 84.1818C786.051 85.0076 786.278 86.1136 786.278 87.5V99H783.597V96.6364H783.46C783.278 97.0152 782.975 97.4205 782.551 97.8523C782.127 98.2841 781.563 98.6515 780.858 98.9545C780.153 99.2576 779.294 99.4091 778.278 99.4091ZM778.688 97C779.748 97 780.642 96.7917 781.369 96.375C782.104 95.9583 782.657 95.4205 783.028 94.7614C783.407 94.1023 783.597 93.4091 783.597 92.6818V90.2273C783.483 90.3636 783.233 90.4886 782.847 90.6023C782.468 90.7083 782.028 90.803 781.528 90.8864C781.036 90.9621 780.555 91.0303 780.085 91.0909C779.623 91.1439 779.248 91.1894 778.96 91.2273C778.263 91.3182 777.612 91.4659 777.006 91.6705C776.407 91.8674 775.922 92.1667 775.551 92.5682C775.188 92.9621 775.006 93.5 775.006 94.1818C775.006 95.1136 775.35 95.8182 776.04 96.2955C776.737 96.7652 777.619 97 778.688 97ZM798.764 81.5455V83.8182H789.719V81.5455H798.764ZM792.355 77.3636H795.037V94C795.037 94.7576 795.147 95.3258 795.366 95.7045C795.594 96.0758 795.882 96.3258 796.23 96.4545C796.586 96.5758 796.961 96.6364 797.355 96.6364C797.651 96.6364 797.893 96.6212 798.082 96.5909C798.272 96.553 798.423 96.5227 798.537 96.5L799.082 98.9091C798.901 98.9773 798.647 99.0455 798.321 99.1136C797.995 99.1894 797.582 99.2273 797.082 99.2273C796.325 99.2273 795.582 99.0644 794.855 98.7386C794.135 98.4129 793.537 97.9167 793.06 97.25C792.59 96.5833 792.355 95.7424 792.355 94.7273V77.3636ZM809.929 99.3636C808.247 99.3636 806.796 98.9924 805.577 98.25C804.365 97.5 803.429 96.4545 802.77 95.1136C802.118 93.7652 801.793 92.197 801.793 90.4091C801.793 88.6212 802.118 87.0455 802.77 85.6818C803.429 84.3106 804.346 83.2424 805.52 82.4773C806.702 81.7045 808.08 81.3182 809.656 81.3182C810.565 81.3182 811.463 81.4697 812.349 81.7727C813.236 82.0758 814.043 82.5682 814.77 83.25C815.497 83.9242 816.077 84.8182 816.509 85.9318C816.94 87.0455 817.156 88.4167 817.156 90.0455V91.1818H803.702V88.8636H814.429C814.429 87.8788 814.232 87 813.838 86.2273C813.452 85.4545 812.899 84.8447 812.179 84.3977C811.467 83.9508 810.626 83.7273 809.656 83.7273C808.588 83.7273 807.664 83.9924 806.884 84.5227C806.111 85.0455 805.516 85.7273 805.099 86.5682C804.683 87.4091 804.474 88.3106 804.474 89.2727V90.8182C804.474 92.1364 804.702 93.2538 805.156 94.1705C805.618 95.0795 806.259 95.7727 807.077 96.25C807.895 96.7197 808.846 96.9545 809.929 96.9545C810.634 96.9545 811.27 96.8561 811.838 96.6591C812.414 96.4545 812.91 96.1515 813.327 95.75C813.743 95.3409 814.065 94.8333 814.293 94.2273L816.884 94.9545C816.611 95.8333 816.152 96.6061 815.509 97.2727C814.865 97.9318 814.069 98.447 813.122 98.8182C812.175 99.1818 811.111 99.3636 809.929 99.3636Z" fill="black"/>
<path d="M680.545 135.227V132.727H698V135.227H690.682V156H687.864V135.227H680.545ZM700.173 156V138.545H702.764V141.182H702.946C703.264 140.318 703.84 139.617 704.673 139.08C705.507 138.542 706.446 138.273 707.491 138.273C707.688 138.273 707.935 138.277 708.23 138.284C708.526 138.292 708.749 138.303 708.901 138.318V141.045C708.81 141.023 708.601 140.989 708.276 140.943C707.957 140.89 707.62 140.864 707.264 140.864C706.416 140.864 705.658 141.042 704.991 141.398C704.332 141.746 703.81 142.231 703.423 142.852C703.045 143.466 702.855 144.167 702.855 144.955V156H700.173ZM717.216 156.409C716.11 156.409 715.106 156.201 714.205 155.784C713.303 155.36 712.587 154.75 712.057 153.955C711.527 153.152 711.261 152.182 711.261 151.045C711.261 150.045 711.458 149.235 711.852 148.614C712.246 147.985 712.773 147.492 713.432 147.136C714.091 146.78 714.818 146.515 715.614 146.341C716.417 146.159 717.223 146.015 718.034 145.909C719.095 145.773 719.955 145.67 720.614 145.602C721.28 145.527 721.765 145.402 722.068 145.227C722.379 145.053 722.534 144.75 722.534 144.318V144.227C722.534 143.106 722.227 142.235 721.614 141.614C721.008 140.992 720.087 140.682 718.852 140.682C717.572 140.682 716.568 140.962 715.841 141.523C715.114 142.083 714.602 142.682 714.307 143.318L711.761 142.409C712.216 141.348 712.822 140.523 713.58 139.932C714.345 139.333 715.178 138.917 716.08 138.682C716.989 138.439 717.883 138.318 718.761 138.318C719.322 138.318 719.966 138.386 720.693 138.523C721.428 138.652 722.136 138.92 722.818 139.33C723.508 139.739 724.08 140.356 724.534 141.182C724.989 142.008 725.216 143.114 725.216 144.5V156H722.534V153.636H722.398C722.216 154.015 721.913 154.42 721.489 154.852C721.064 155.284 720.5 155.652 719.795 155.955C719.091 156.258 718.231 156.409 717.216 156.409ZM717.625 154C718.686 154 719.58 153.792 720.307 153.375C721.042 152.958 721.595 152.42 721.966 151.761C722.345 151.102 722.534 150.409 722.534 149.682V147.227C722.42 147.364 722.17 147.489 721.784 147.602C721.405 147.708 720.966 147.803 720.466 147.886C719.973 147.962 719.492 148.03 719.023 148.091C718.561 148.144 718.186 148.189 717.898 148.227C717.201 148.318 716.549 148.466 715.943 148.67C715.345 148.867 714.86 149.167 714.489 149.568C714.125 149.962 713.943 150.5 713.943 151.182C713.943 152.114 714.288 152.818 714.977 153.295C715.674 153.765 716.557 154 717.625 154ZM732.793 145.5V156H730.111V138.545H732.702V141.273H732.929C733.338 140.386 733.959 139.674 734.793 139.136C735.626 138.591 736.702 138.318 738.02 138.318C739.202 138.318 740.236 138.561 741.122 139.045C742.009 139.523 742.698 140.25 743.19 141.227C743.683 142.197 743.929 143.424 743.929 144.909V156H741.247V145.091C741.247 143.72 740.891 142.652 740.179 141.886C739.467 141.114 738.49 140.727 737.247 140.727C736.391 140.727 735.626 140.913 734.952 141.284C734.285 141.655 733.759 142.197 733.372 142.909C732.986 143.621 732.793 144.485 732.793 145.5ZM761.193 142.455L758.784 143.136C758.633 142.735 758.409 142.345 758.114 141.966C757.826 141.58 757.432 141.261 756.932 141.011C756.432 140.761 755.792 140.636 755.011 140.636C753.943 140.636 753.053 140.883 752.341 141.375C751.636 141.86 751.284 142.477 751.284 143.227C751.284 143.894 751.527 144.42 752.011 144.807C752.496 145.193 753.254 145.515 754.284 145.773L756.875 146.409C758.436 146.788 759.598 147.367 760.364 148.148C761.129 148.92 761.511 149.917 761.511 151.136C761.511 152.136 761.223 153.03 760.648 153.818C760.08 154.606 759.284 155.227 758.261 155.682C757.239 156.136 756.049 156.364 754.693 156.364C752.913 156.364 751.439 155.977 750.273 155.205C749.106 154.432 748.367 153.303 748.057 151.818L750.602 151.182C750.845 152.121 751.303 152.826 751.977 153.295C752.659 153.765 753.549 154 754.648 154C755.898 154 756.89 153.735 757.625 153.205C758.367 152.667 758.739 152.023 758.739 151.273C758.739 150.667 758.527 150.159 758.102 149.75C757.678 149.333 757.027 149.023 756.148 148.818L753.239 148.136C751.64 147.758 750.466 147.17 749.716 146.375C748.973 145.572 748.602 144.568 748.602 143.364C748.602 142.379 748.879 141.508 749.432 140.75C749.992 139.992 750.754 139.398 751.716 138.966C752.686 138.534 753.784 138.318 755.011 138.318C756.739 138.318 758.095 138.697 759.08 139.455C760.072 140.212 760.777 141.212 761.193 142.455ZM768.23 132.727V156H765.548V132.727H768.23ZM778.278 156.409C777.172 156.409 776.169 156.201 775.267 155.784C774.366 155.36 773.65 154.75 773.119 153.955C772.589 153.152 772.324 152.182 772.324 151.045C772.324 150.045 772.521 149.235 772.915 148.614C773.309 147.985 773.835 147.492 774.494 147.136C775.153 146.78 775.881 146.515 776.676 146.341C777.479 146.159 778.286 146.015 779.097 145.909C780.157 145.773 781.017 145.67 781.676 145.602C782.343 145.527 782.828 145.402 783.131 145.227C783.441 145.053 783.597 144.75 783.597 144.318V144.227C783.597 143.106 783.29 142.235 782.676 141.614C782.07 140.992 781.15 140.682 779.915 140.682C778.634 140.682 777.631 140.962 776.903 141.523C776.176 142.083 775.665 142.682 775.369 143.318L772.824 142.409C773.278 141.348 773.884 140.523 774.642 139.932C775.407 139.333 776.241 138.917 777.142 138.682C778.051 138.439 778.945 138.318 779.824 138.318C780.384 138.318 781.028 138.386 781.756 138.523C782.491 138.652 783.199 138.92 783.881 139.33C784.57 139.739 785.142 140.356 785.597 141.182C786.051 142.008 786.278 143.114 786.278 144.5V156H783.597V153.636H783.46C783.278 154.015 782.975 154.42 782.551 154.852C782.127 155.284 781.563 155.652 780.858 155.955C780.153 156.258 779.294 156.409 778.278 156.409ZM778.688 154C779.748 154 780.642 153.792 781.369 153.375C782.104 152.958 782.657 152.42 783.028 151.761C783.407 151.102 783.597 150.409 783.597 149.682V147.227C783.483 147.364 783.233 147.489 782.847 147.602C782.468 147.708 782.028 147.803 781.528 147.886C781.036 147.962 780.555 148.03 780.085 148.091C779.623 148.144 779.248 148.189 778.96 148.227C778.263 148.318 777.612 148.466 777.006 148.67C776.407 148.867 775.922 149.167 775.551 149.568C775.188 149.962 775.006 150.5 775.006 151.182C775.006 152.114 775.35 152.818 776.04 153.295C776.737 153.765 777.619 154 778.688 154ZM798.764 138.545V140.818H789.719V138.545H798.764ZM792.355 134.364H795.037V151C795.037 151.758 795.147 152.326 795.366 152.705C795.594 153.076 795.882 153.326 796.23 153.455C796.586 153.576 796.961 153.636 797.355 153.636C797.651 153.636 797.893 153.621 798.082 153.591C798.272 153.553 798.423 153.523 798.537 153.5L799.082 155.909C798.901 155.977 798.647 156.045 798.321 156.114C797.995 156.189 797.582 156.227 797.082 156.227C796.325 156.227 795.582 156.064 794.855 155.739C794.135 155.413 793.537 154.917 793.06 154.25C792.59 153.583 792.355 152.742 792.355 151.727V134.364ZM809.929 156.364C808.247 156.364 806.796 155.992 805.577 155.25C804.365 154.5 803.429 153.455 802.77 152.114C802.118 150.765 801.793 149.197 801.793 147.409C801.793 145.621 802.118 144.045 802.77 142.682C803.429 141.311 804.346 140.242 805.52 139.477C806.702 138.705 808.08 138.318 809.656 138.318C810.565 138.318 811.463 138.47 812.349 138.773C813.236 139.076 814.043 139.568 814.77 140.25C815.497 140.924 816.077 141.818 816.509 142.932C816.94 144.045 817.156 145.417 817.156 147.045V148.182H803.702V145.864H814.429C814.429 144.879 814.232 144 813.838 143.227C813.452 142.455 812.899 141.845 812.179 141.398C811.467 140.951 810.626 140.727 809.656 140.727C808.588 140.727 807.664 140.992 806.884 141.523C806.111 142.045 805.516 142.727 805.099 143.568C804.683 144.409 804.474 145.311 804.474 146.273V147.818C804.474 149.136 804.702 150.254 805.156 151.17C805.618 152.08 806.259 152.773 807.077 153.25C807.895 153.72 808.846 153.955 809.929 153.955C810.634 153.955 811.27 153.856 811.838 153.659C812.414 153.455 812.91 153.152 813.327 152.75C813.743 152.341 814.065 151.833 814.293 151.227L816.884 151.955C816.611 152.833 816.152 153.606 815.509 154.273C814.865 154.932 814.069 155.447 813.122 155.818C812.175 156.182 811.111 156.364 809.929 156.364Z" fill="black"/>
<path d="M680.545 195.227V192.727H698V195.227H690.682V216H687.864V195.227H680.545ZM700.173 216V198.545H702.764V201.182H702.946C703.264 200.318 703.84 199.617 704.673 199.08C705.507 198.542 706.446 198.273 707.491 198.273C707.688 198.273 707.935 198.277 708.23 198.284C708.526 198.292 708.749 198.303 708.901 198.318V201.045C708.81 201.023 708.601 200.989 708.276 200.943C707.957 200.89 707.62 200.864 707.264 200.864C706.416 200.864 705.658 201.042 704.991 201.398C704.332 201.746 703.81 202.231 703.423 202.852C703.045 203.466 702.855 204.167 702.855 204.955V216H700.173ZM717.216 216.409C716.11 216.409 715.106 216.201 714.205 215.784C713.303 215.36 712.587 214.75 712.057 213.955C711.527 213.152 711.261 212.182 711.261 211.045C711.261 210.045 711.458 209.235 711.852 208.614C712.246 207.985 712.773 207.492 713.432 207.136C714.091 206.78 714.818 206.515 715.614 206.341C716.417 206.159 717.223 206.015 718.034 205.909C719.095 205.773 719.955 205.67 720.614 205.602C721.28 205.527 721.765 205.402 722.068 205.227C722.379 205.053 722.534 204.75 722.534 204.318V204.227C722.534 203.106 722.227 202.235 721.614 201.614C721.008 200.992 720.087 200.682 718.852 200.682C717.572 200.682 716.568 200.962 715.841 201.523C715.114 202.083 714.602 202.682 714.307 203.318L711.761 202.409C712.216 201.348 712.822 200.523 713.58 199.932C714.345 199.333 715.178 198.917 716.08 198.682C716.989 198.439 717.883 198.318 718.761 198.318C719.322 198.318 719.966 198.386 720.693 198.523C721.428 198.652 722.136 198.92 722.818 199.33C723.508 199.739 724.08 200.356 724.534 201.182C724.989 202.008 725.216 203.114 725.216 204.5V216H722.534V213.636H722.398C722.216 214.015 721.913 214.42 721.489 214.852C721.064 215.284 720.5 215.652 719.795 215.955C719.091 216.258 718.231 216.409 717.216 216.409ZM717.625 214C718.686 214 719.58 213.792 720.307 213.375C721.042 212.958 721.595 212.42 721.966 211.761C722.345 211.102 722.534 210.409 722.534 209.682V207.227C722.42 207.364 722.17 207.489 721.784 207.602C721.405 207.708 720.966 207.803 720.466 207.886C719.973 207.962 719.492 208.03 719.023 208.091C718.561 208.144 718.186 208.189 717.898 208.227C717.201 208.318 716.549 208.466 715.943 208.67C715.345 208.867 714.86 209.167 714.489 209.568C714.125 209.962 713.943 210.5 713.943 211.182C713.943 212.114 714.288 212.818 714.977 213.295C715.674 213.765 716.557 214 717.625 214ZM732.793 205.5V216H730.111V198.545H732.702V201.273H732.929C733.338 200.386 733.959 199.674 734.793 199.136C735.626 198.591 736.702 198.318 738.02 198.318C739.202 198.318 740.236 198.561 741.122 199.045C742.009 199.523 742.698 200.25 743.19 201.227C743.683 202.197 743.929 203.424 743.929 204.909V216H741.247V205.091C741.247 203.72 740.891 202.652 740.179 201.886C739.467 201.114 738.49 200.727 737.247 200.727C736.391 200.727 735.626 200.913 734.952 201.284C734.285 201.655 733.759 202.197 733.372 202.909C732.986 203.621 732.793 204.485 732.793 205.5ZM761.193 202.455L758.784 203.136C758.633 202.735 758.409 202.345 758.114 201.966C757.826 201.58 757.432 201.261 756.932 201.011C756.432 200.761 755.792 200.636 755.011 200.636C753.943 200.636 753.053 200.883 752.341 201.375C751.636 201.86 751.284 202.477 751.284 203.227C751.284 203.894 751.527 204.42 752.011 204.807C752.496 205.193 753.254 205.515 754.284 205.773L756.875 206.409C758.436 206.788 759.598 207.367 760.364 208.148C761.129 208.92 761.511 209.917 761.511 211.136C761.511 212.136 761.223 213.03 760.648 213.818C760.08 214.606 759.284 215.227 758.261 215.682C757.239 216.136 756.049 216.364 754.693 216.364C752.913 216.364 751.439 215.977 750.273 215.205C749.106 214.432 748.367 213.303 748.057 211.818L750.602 211.182C750.845 212.121 751.303 212.826 751.977 213.295C752.659 213.765 753.549 214 754.648 214C755.898 214 756.89 213.735 757.625 213.205C758.367 212.667 758.739 212.023 758.739 211.273C758.739 210.667 758.527 210.159 758.102 209.75C757.678 209.333 757.027 209.023 756.148 208.818L753.239 208.136C751.64 207.758 750.466 207.17 749.716 206.375C748.973 205.572 748.602 204.568 748.602 203.364C748.602 202.379 748.879 201.508 749.432 200.75C749.992 199.992 750.754 199.398 751.716 198.966C752.686 198.534 753.784 198.318 755.011 198.318C756.739 198.318 758.095 198.697 759.08 199.455C760.072 200.212 760.777 201.212 761.193 202.455ZM768.23 192.727V216H765.548V192.727H768.23ZM778.278 216.409C777.172 216.409 776.169 216.201 775.267 215.784C774.366 215.36 773.65 214.75 773.119 213.955C772.589 213.152 772.324 212.182 772.324 211.045C772.324 210.045 772.521 209.235 772.915 208.614C773.309 207.985 773.835 207.492 774.494 207.136C775.153 206.78 775.881 206.515 776.676 206.341C777.479 206.159 778.286 206.015 779.097 205.909C780.157 205.773 781.017 205.67 781.676 205.602C782.343 205.527 782.828 205.402 783.131 205.227C783.441 205.053 783.597 204.75 783.597 204.318V204.227C783.597 203.106 783.29 202.235 782.676 201.614C782.07 200.992 781.15 200.682 779.915 200.682C778.634 200.682 777.631 200.962 776.903 201.523C776.176 202.083 775.665 202.682 775.369 203.318L772.824 202.409C773.278 201.348 773.884 200.523 774.642 199.932C775.407 199.333 776.241 198.917 777.142 198.682C778.051 198.439 778.945 198.318 779.824 198.318C780.384 198.318 781.028 198.386 781.756 198.523C782.491 198.652 783.199 198.92 783.881 199.33C784.57 199.739 785.142 200.356 785.597 201.182C786.051 202.008 786.278 203.114 786.278 204.5V216H783.597V213.636H783.46C783.278 214.015 782.975 214.42 782.551 214.852C782.127 215.284 781.563 215.652 780.858 215.955C780.153 216.258 779.294 216.409 778.278 216.409ZM778.688 214C779.748 214 780.642 213.792 781.369 213.375C782.104 212.958 782.657 212.42 783.028 211.761C783.407 211.102 783.597 210.409 783.597 209.682V207.227C783.483 207.364 783.233 207.489 782.847 207.602C782.468 207.708 782.028 207.803 781.528 207.886C781.036 207.962 780.555 208.03 780.085 208.091C779.623 208.144 779.248 208.189 778.96 208.227C778.263 208.318 777.612 208.466 777.006 208.67C776.407 208.867 775.922 209.167 775.551 209.568C775.188 209.962 775.006 210.5 775.006 211.182C775.006 212.114 775.35 212.818 776.04 213.295C776.737 213.765 777.619 214 778.688 214ZM798.764 198.545V200.818H789.719V198.545H798.764ZM792.355 194.364H795.037V211C795.037 211.758 795.147 212.326 795.366 212.705C795.594 213.076 795.882 213.326 796.23 213.455C796.586 213.576 796.961 213.636 797.355 213.636C797.651 213.636 797.893 213.621 798.082 213.591C798.272 213.553 798.423 213.523 798.537 213.5L799.082 215.909C798.901 215.977 798.647 216.045 798.321 216.114C797.995 216.189 797.582 216.227 797.082 216.227C796.325 216.227 795.582 216.064 794.855 215.739C794.135 215.413 793.537 214.917 793.06 214.25C792.59 213.583 792.355 212.742 792.355 211.727V194.364ZM809.929 216.364C808.247 216.364 806.796 215.992 805.577 215.25C804.365 214.5 803.429 213.455 802.77 212.114C802.118 210.765 801.793 209.197 801.793 207.409C801.793 205.621 802.118 204.045 802.77 202.682C803.429 201.311 804.346 200.242 805.52 199.477C806.702 198.705 808.08 198.318 809.656 198.318C810.565 198.318 811.463 198.47 812.349 198.773C813.236 199.076 814.043 199.568 814.77 200.25C815.497 200.924 816.077 201.818 816.509 202.932C816.94 204.045 817.156 205.417 817.156 207.045V208.182H803.702V205.864H814.429C814.429 204.879 814.232 204 813.838 203.227C813.452 202.455 812.899 201.845 812.179 201.398C811.467 200.951 810.626 200.727 809.656 200.727C808.588 200.727 807.664 200.992 806.884 201.523C806.111 202.045 805.516 202.727 805.099 203.568C804.683 204.409 804.474 205.311 804.474 206.273V207.818C804.474 209.136 804.702 210.254 805.156 211.17C805.618 212.08 806.259 212.773 807.077 213.25C807.895 213.72 808.846 213.955 809.929 213.955C810.634 213.955 811.27 213.856 811.838 213.659C812.414 213.455 812.91 213.152 813.327 212.75C813.743 212.341 814.065 211.833 814.293 211.227L816.884 211.955C816.611 212.833 816.152 213.606 815.509 214.273C814.865 214.932 814.069 215.447 813.122 215.818C812.175 216.182 811.111 216.364 809.929 216.364Z" fill="black"/>
<path d="M680.545 247.227V244.727H698V247.227H690.682V268H687.864V247.227H680.545ZM700.173 268V250.545H702.764V253.182H702.946C703.264 252.318 703.84 251.617 704.673 251.08C705.507 250.542 706.446 250.273 707.491 250.273C707.688 250.273 707.935 250.277 708.23 250.284C708.526 250.292 708.749 250.303 708.901 250.318V253.045C708.81 253.023 708.601 252.989 708.276 252.943C707.957 252.89 707.62 252.864 707.264 252.864C706.416 252.864 705.658 253.042 704.991 253.398C704.332 253.746 703.81 254.231 703.423 254.852C703.045 255.466 702.855 256.167 702.855 256.955V268H700.173ZM717.216 268.409C716.11 268.409 715.106 268.201 714.205 267.784C713.303 267.36 712.587 266.75 712.057 265.955C711.527 265.152 711.261 264.182 711.261 263.045C711.261 262.045 711.458 261.235 711.852 260.614C712.246 259.985 712.773 259.492 713.432 259.136C714.091 258.78 714.818 258.515 715.614 258.341C716.417 258.159 717.223 258.015 718.034 257.909C719.095 257.773 719.955 257.67 720.614 257.602C721.28 257.527 721.765 257.402 722.068 257.227C722.379 257.053 722.534 256.75 722.534 256.318V256.227C722.534 255.106 722.227 254.235 721.614 253.614C721.008 252.992 720.087 252.682 718.852 252.682C717.572 252.682 716.568 252.962 715.841 253.523C715.114 254.083 714.602 254.682 714.307 255.318L711.761 254.409C712.216 253.348 712.822 252.523 713.58 251.932C714.345 251.333 715.178 250.917 716.08 250.682C716.989 250.439 717.883 250.318 718.761 250.318C719.322 250.318 719.966 250.386 720.693 250.523C721.428 250.652 722.136 250.92 722.818 251.33C723.508 251.739 724.08 252.356 724.534 253.182C724.989 254.008 725.216 255.114 725.216 256.5V268H722.534V265.636H722.398C722.216 266.015 721.913 266.42 721.489 266.852C721.064 267.284 720.5 267.652 719.795 267.955C719.091 268.258 718.231 268.409 717.216 268.409ZM717.625 266C718.686 266 719.58 265.792 720.307 265.375C721.042 264.958 721.595 264.42 721.966 263.761C722.345 263.102 722.534 262.409 722.534 261.682V259.227C722.42 259.364 722.17 259.489 721.784 259.602C721.405 259.708 720.966 259.803 720.466 259.886C719.973 259.962 719.492 260.03 719.023 260.091C718.561 260.144 718.186 260.189 717.898 260.227C717.201 260.318 716.549 260.466 715.943 260.67C715.345 260.867 714.86 261.167 714.489 261.568C714.125 261.962 713.943 262.5 713.943 263.182C713.943 264.114 714.288 264.818 714.977 265.295C715.674 265.765 716.557 266 717.625 266ZM732.793 257.5V268H730.111V250.545H732.702V253.273H732.929C733.338 252.386 733.959 251.674 734.793 251.136C735.626 250.591 736.702 250.318 738.02 250.318C739.202 250.318 740.236 250.561 741.122 251.045C742.009 251.523 742.698 252.25 743.19 253.227C743.683 254.197 743.929 255.424 743.929 256.909V268H741.247V257.091C741.247 255.72 740.891 254.652 740.179 253.886C739.467 253.114 738.49 252.727 737.247 252.727C736.391 252.727 735.626 252.913 734.952 253.284C734.285 253.655 733.759 254.197 733.372 254.909C732.986 255.621 732.793 256.485 732.793 257.5ZM761.193 254.455L758.784 255.136C758.633 254.735 758.409 254.345 758.114 253.966C757.826 253.58 757.432 253.261 756.932 253.011C756.432 252.761 755.792 252.636 755.011 252.636C753.943 252.636 753.053 252.883 752.341 253.375C751.636 253.86 751.284 254.477 751.284 255.227C751.284 255.894 751.527 256.42 752.011 256.807C752.496 257.193 753.254 257.515 754.284 257.773L756.875 258.409C758.436 258.788 759.598 259.367 760.364 260.148C761.129 260.92 761.511 261.917 761.511 263.136C761.511 264.136 761.223 265.03 760.648 265.818C760.08 266.606 759.284 267.227 758.261 267.682C757.239 268.136 756.049 268.364 754.693 268.364C752.913 268.364 751.439 267.977 750.273 267.205C749.106 266.432 748.367 265.303 748.057 263.818L750.602 263.182C750.845 264.121 751.303 264.826 751.977 265.295C752.659 265.765 753.549 266 754.648 266C755.898 266 756.89 265.735 757.625 265.205C758.367 264.667 758.739 264.023 758.739 263.273C758.739 262.667 758.527 262.159 758.102 261.75C757.678 261.333 757.027 261.023 756.148 260.818L753.239 260.136C751.64 259.758 750.466 259.17 749.716 258.375C748.973 257.572 748.602 256.568 748.602 255.364C748.602 254.379 748.879 253.508 749.432 252.75C749.992 251.992 750.754 251.398 751.716 250.966C752.686 250.534 753.784 250.318 755.011 250.318C756.739 250.318 758.095 250.697 759.08 251.455C760.072 252.212 760.777 253.212 761.193 254.455ZM768.23 244.727V268H765.548V244.727H768.23ZM778.278 268.409C777.172 268.409 776.169 268.201 775.267 267.784C774.366 267.36 773.65 266.75 773.119 265.955C772.589 265.152 772.324 264.182 772.324 263.045C772.324 262.045 772.521 261.235 772.915 260.614C773.309 259.985 773.835 259.492 774.494 259.136C775.153 258.78 775.881 258.515 776.676 258.341C777.479 258.159 778.286 258.015 779.097 257.909C780.157 257.773 781.017 257.67 781.676 257.602C782.343 257.527 782.828 257.402 783.131 257.227C783.441 257.053 783.597 256.75 783.597 256.318V256.227C783.597 255.106 783.29 254.235 782.676 253.614C782.07 252.992 781.15 252.682 779.915 252.682C778.634 252.682 777.631 252.962 776.903 253.523C776.176 254.083 775.665 254.682 775.369 255.318L772.824 254.409C773.278 253.348 773.884 252.523 774.642 251.932C775.407 251.333 776.241 250.917 777.142 250.682C778.051 250.439 778.945 250.318 779.824 250.318C780.384 250.318 781.028 250.386 781.756 250.523C782.491 250.652 783.199 250.92 783.881 251.33C784.57 251.739 785.142 252.356 785.597 253.182C786.051 254.008 786.278 255.114 786.278 256.5V268H783.597V265.636H783.46C783.278 266.015 782.975 266.42 782.551 266.852C782.127 267.284 781.563 267.652 780.858 267.955C780.153 268.258 779.294 268.409 778.278 268.409ZM778.688 266C779.748 266 780.642 265.792 781.369 265.375C782.104 264.958 782.657 264.42 783.028 263.761C783.407 263.102 783.597 262.409 783.597 261.682V259.227C783.483 259.364 783.233 259.489 782.847 259.602C782.468 259.708 782.028 259.803 781.528 259.886C781.036 259.962 780.555 260.03 780.085 260.091C779.623 260.144 779.248 260.189 778.96 260.227C778.263 260.318 777.612 260.466 777.006 260.67C776.407 260.867 775.922 261.167 775.551 261.568C775.188 261.962 775.006 262.5 775.006 263.182C775.006 264.114 775.35 264.818 776.04 265.295C776.737 265.765 777.619 266 778.688 266ZM798.764 250.545V252.818H789.719V250.545H798.764ZM792.355 246.364H795.037V263C795.037 263.758 795.147 264.326 795.366 264.705C795.594 265.076 795.882 265.326 796.23 265.455C796.586 265.576 796.961 265.636 797.355 265.636C797.651 265.636 797.893 265.621 798.082 265.591C798.272 265.553 798.423 265.523 798.537 265.5L799.082 267.909C798.901 267.977 798.647 268.045 798.321 268.114C797.995 268.189 797.582 268.227 797.082 268.227C796.325 268.227 795.582 268.064 794.855 267.739C794.135 267.413 793.537 266.917 793.06 266.25C792.59 265.583 792.355 264.742 792.355 263.727V246.364ZM809.929 268.364C808.247 268.364 806.796 267.992 805.577 267.25C804.365 266.5 803.429 265.455 802.77 264.114C802.118 262.765 801.793 261.197 801.793 259.409C801.793 257.621 802.118 256.045 802.77 254.682C803.429 253.311 804.346 252.242 805.52 251.477C806.702 250.705 808.08 250.318 809.656 250.318C810.565 250.318 811.463 250.47 812.349 250.773C813.236 251.076 814.043 251.568 814.77 252.25C815.497 252.924 816.077 253.818 816.509 254.932C816.94 256.045 817.156 257.417 817.156 259.045V260.182H803.702V257.864H814.429C814.429 256.879 814.232 256 813.838 255.227C813.452 254.455 812.899 253.845 812.179 253.398C811.467 252.951 810.626 252.727 809.656 252.727C808.588 252.727 807.664 252.992 806.884 253.523C806.111 254.045 805.516 254.727 805.099 255.568C804.683 256.409 804.474 257.311 804.474 258.273V259.818C804.474 261.136 804.702 262.254 805.156 263.17C805.618 264.08 806.259 264.773 807.077 265.25C807.895 265.72 808.846 265.955 809.929 265.955C810.634 265.955 811.27 265.856 811.838 265.659C812.414 265.455 812.91 265.152 813.327 264.75C813.743 264.341 814.065 263.833 814.293 263.227L816.884 263.955C816.611 264.833 816.152 265.606 815.509 266.273C814.865 266.932 814.069 267.447 813.122 267.818C812.175 268.182 811.111 268.364 809.929 268.364Z" fill="black"/>
</svg>
