<svg width="354" height="76" viewBox="0 0 354 76" fill="none" xmlns="http://www.w3.org/2000/svg">
<rect opacity="0.6" width="354" height="76" rx="7" fill="#E3E2DE"/>
<path d="M134.6 22.744C137.024 22.744 139.28 23.284 141.368 24.364L140.792 27.1L140.432 27.172C139.28 26.452 138.212 25.936 137.228 25.624C136.268 25.312 135.248 25.156 134.168 25.156C128.96 25.156 126.356 28.372 126.356 34.804C126.356 37.9 126.956 40.18 128.156 41.644C129.38 43.084 131.264 43.804 133.808 43.804C134.48 43.804 135.152 43.744 135.824 43.624C136.52 43.504 137.408 43.276 138.488 42.94L138.56 40.24L138.524 36.784L141.224 36.568L141.152 39.844L141.296 44.884C139.736 45.364 138.356 45.712 137.156 45.928C135.956 46.144 134.792 46.252 133.664 46.252C130.232 46.252 127.652 45.28 125.924 43.336C124.22 41.392 123.368 38.584 123.368 34.912C123.368 30.952 124.34 27.94 126.284 25.876C128.228 23.788 131 22.744 134.6 22.744ZM153.323 29.476C153.611 29.476 153.923 29.5 154.259 29.548V32.32L153.935 32.428C153.527 32.308 153.083 32.248 152.603 32.248C151.811 32.248 151.079 32.572 150.407 33.22C149.759 33.844 149.111 34.852 148.463 36.244L148.427 38.764L148.607 46H145.763L145.943 39.016L145.799 29.692L148.499 29.44L148.463 32.824H148.679C149.351 31.624 150.095 30.772 150.911 30.268C151.727 29.74 152.531 29.476 153.323 29.476ZM163.52 29.224C165.752 29.224 167.48 29.956 168.704 31.42C169.952 32.86 170.576 34.9 170.576 37.54C170.576 40.324 169.928 42.484 168.632 44.02C167.336 45.532 165.488 46.288 163.088 46.288C160.832 46.288 159.08 45.568 157.832 44.128C156.608 42.664 155.996 40.612 155.996 37.972C155.996 35.188 156.644 33.04 157.94 31.528C159.26 29.992 161.12 29.224 163.52 29.224ZM163.34 31.24C161.828 31.24 160.676 31.756 159.884 32.788C159.092 33.82 158.696 35.332 158.696 37.324C158.696 39.628 159.08 41.356 159.848 42.508C160.64 43.66 161.78 44.236 163.268 44.236C164.78 44.236 165.932 43.732 166.724 42.724C167.516 41.716 167.912 40.204 167.912 38.188C167.912 35.908 167.516 34.18 166.724 33.004C165.956 31.828 164.828 31.24 163.34 31.24ZM189.808 43.876L189.52 45.496C188.824 45.904 188.14 46.144 187.468 46.216C186.772 46.12 186.208 45.88 185.776 45.496C185.368 45.088 185.08 44.488 184.912 43.696H184.696C183.256 44.992 181.768 45.832 180.232 46.216C178.456 46.216 177.1 45.796 176.164 44.956C175.252 44.116 174.808 42.916 174.832 41.356L174.868 36.784L174.76 29.692L177.64 29.44L177.424 40.672C177.424 41.656 177.652 42.424 178.108 42.976C178.588 43.528 179.284 43.804 180.196 43.804C181.684 43.804 183.172 43.084 184.66 41.644V29.692L187.396 29.44L187.216 42.472C187.216 42.976 187.288 43.336 187.432 43.552C187.6 43.744 187.876 43.84 188.26 43.84C188.644 43.84 189.064 43.768 189.52 43.624L189.808 43.876ZM200.888 29.332C202.952 29.332 204.536 30.016 205.64 31.384C206.744 32.752 207.296 34.708 207.296 37.252C207.296 40.132 206.6 42.364 205.208 43.948C203.816 45.508 201.836 46.288 199.268 46.288C198.26 46.288 197.216 46.18 196.136 45.964L196.208 52.66H193.4L193.58 39.016L193.4 29.692L196.136 29.44L196.1 31.78H196.352C197.192 31.084 197.948 30.556 198.62 30.196C199.292 29.836 200.048 29.548 200.888 29.332ZM199.628 44.2C201.212 44.2 202.436 43.648 203.3 42.544C204.164 41.44 204.596 39.868 204.596 37.828C204.596 35.836 204.248 34.312 203.552 33.256C202.88 32.2 201.908 31.672 200.636 31.672C199.892 31.672 199.148 31.876 198.404 32.284C197.684 32.692 196.916 33.328 196.1 34.192L196.064 38.764L196.1 43.264C197.276 43.888 198.452 44.2 199.628 44.2ZM227.449 43.228H227.377L227.485 49.096L227.305 49.312L225.145 49.492L224.965 49.276L225.037 43.228H218.305L215.929 43.3L215.749 43.012V41.176L224.785 28.072H227.413L227.341 40.996H230.725L230.941 41.284L230.761 43.3L227.449 43.228ZM225.073 40.996V31.528H224.821L218.269 40.996H225.073Z" fill="#393939"/>
</svg>
