<svg width="162" height="50" viewBox="0 0 162 50" fill="none" xmlns="http://www.w3.org/2000/svg">
<rect x="0.5" y="0.5" width="161" height="49" fill="#D9D9D9" stroke="#ADADAD"/>
<path d="M31.1136 33V15.5455H33.2273V31.125H41.3409V33H31.1136ZM49.8295 33.2727C48.5682 33.2727 47.4801 32.9943 46.5653 32.4375C45.6562 31.875 44.9545 31.0909 44.4602 30.0852C43.9716 29.0739 43.7273 27.8977 43.7273 26.5568C43.7273 25.2159 43.9716 24.0341 44.4602 23.0114C44.9545 21.983 45.642 21.1818 46.5227 20.608C47.4091 20.0284 48.4432 19.7386 49.625 19.7386C50.3068 19.7386 50.9801 19.8523 51.6449 20.0795C52.3097 20.3068 52.9148 20.6761 53.4602 21.1875C54.0057 21.6932 54.4403 22.3636 54.7642 23.1989C55.0881 24.0341 55.25 25.0625 55.25 26.2841V27.1364H45.1591V25.3977H53.2045C53.2045 24.6591 53.0568 24 52.7614 23.4205C52.4716 22.8409 52.0568 22.3835 51.517 22.0483C50.983 21.7131 50.3523 21.5455 49.625 21.5455C48.8239 21.5455 48.1307 21.7443 47.5455 22.142C46.9659 22.5341 46.5199 23.0455 46.2074 23.6761C45.8949 24.3068 45.7386 24.983 45.7386 25.7045V26.8636C45.7386 27.8523 45.9091 28.6903 46.25 29.3778C46.5966 30.0597 47.0767 30.5795 47.6903 30.9375C48.304 31.2898 49.017 31.4659 49.8295 31.4659C50.358 31.4659 50.8352 31.392 51.2614 31.2443C51.6932 31.0909 52.0653 30.8636 52.3778 30.5625C52.6903 30.2557 52.9318 29.875 53.1023 29.4205L55.0455 29.9659C54.8409 30.625 54.4972 31.2045 54.0142 31.7045C53.5313 32.1989 52.9347 32.5852 52.2244 32.8636C51.5142 33.1364 50.7159 33.2727 49.8295 33.2727ZM67.5824 22.8409L65.7756 23.3523C65.6619 23.0511 65.4943 22.7585 65.2727 22.4744C65.0568 22.1847 64.7614 21.946 64.3864 21.7585C64.0114 21.571 63.5312 21.4773 62.946 21.4773C62.1449 21.4773 61.4773 21.6619 60.9432 22.0312C60.4148 22.3949 60.1506 22.858 60.1506 23.4205C60.1506 23.9205 60.3324 24.3153 60.696 24.6051C61.0597 24.8949 61.6278 25.1364 62.4006 25.3295L64.3438 25.8068C65.5142 26.0909 66.3864 26.5256 66.9602 27.1108C67.5341 27.6903 67.821 28.4375 67.821 29.3523C67.821 30.1023 67.6051 30.7727 67.1733 31.3636C66.7472 31.9545 66.1506 32.4205 65.3835 32.7614C64.6165 33.1023 63.7244 33.2727 62.7074 33.2727C61.3722 33.2727 60.267 32.983 59.392 32.4034C58.517 31.8239 57.9631 30.9773 57.7301 29.8636L59.6392 29.3864C59.821 30.0909 60.1648 30.6193 60.6705 30.9716C61.1818 31.3239 61.8494 31.5 62.6733 31.5C63.6108 31.5 64.3551 31.3011 64.9062 30.9034C65.4631 30.5 65.7415 30.017 65.7415 29.4545C65.7415 29 65.5824 28.6193 65.2642 28.3125C64.946 28 64.4574 27.767 63.7983 27.6136L61.6165 27.1023C60.4176 26.8182 59.5369 26.3778 58.9744 25.7812C58.4176 25.179 58.1392 24.4261 58.1392 23.5227C58.1392 22.7841 58.3466 22.1307 58.7614 21.5625C59.1818 20.9943 59.7528 20.5483 60.4744 20.2244C61.2017 19.9006 62.0256 19.7386 62.946 19.7386C64.2415 19.7386 65.2585 20.0227 65.9972 20.5909C66.7415 21.1591 67.2699 21.9091 67.5824 22.8409ZM80.1214 22.8409L78.3146 23.3523C78.201 23.0511 78.0334 22.7585 77.8118 22.4744C77.5959 22.1847 77.3004 21.946 76.9254 21.7585C76.5504 21.571 76.0703 21.4773 75.4851 21.4773C74.6839 21.4773 74.0163 21.6619 73.4822 22.0312C72.9538 22.3949 72.6896 22.858 72.6896 23.4205C72.6896 23.9205 72.8714 24.3153 73.2351 24.6051C73.5987 24.8949 74.1669 25.1364 74.9396 25.3295L76.8828 25.8068C78.0533 26.0909 78.9254 26.5256 79.4993 27.1108C80.0732 27.6903 80.3601 28.4375 80.3601 29.3523C80.3601 30.1023 80.1442 30.7727 79.7124 31.3636C79.2862 31.9545 78.6896 32.4205 77.9226 32.7614C77.1555 33.1023 76.2635 33.2727 75.2464 33.2727C73.9112 33.2727 72.8061 32.983 71.9311 32.4034C71.0561 31.8239 70.5021 30.9773 70.2692 29.8636L72.1783 29.3864C72.3601 30.0909 72.7038 30.6193 73.2095 30.9716C73.7209 31.3239 74.3885 31.5 75.2124 31.5C76.1499 31.5 76.8942 31.3011 77.4453 30.9034C78.0021 30.5 78.2805 30.017 78.2805 29.4545C78.2805 29 78.1214 28.6193 77.8033 28.3125C77.4851 28 76.9964 27.767 76.3374 27.6136L74.1555 27.1023C72.9567 26.8182 72.076 26.3778 71.5135 25.7812C70.9567 25.179 70.6783 24.4261 70.6783 23.5227C70.6783 22.7841 70.8857 22.1307 71.3004 21.5625C71.7209 20.9943 72.2919 20.5483 73.0135 20.2244C73.7408 19.9006 74.5646 19.7386 75.4851 19.7386C76.7805 19.7386 77.7976 20.0227 78.5362 20.5909C79.2805 21.1591 79.8089 21.9091 80.1214 22.8409ZM88.706 33.2727C87.5241 33.2727 86.4872 32.9915 85.5952 32.429C84.7088 31.8665 84.0156 31.0795 83.5156 30.0682C83.0213 29.0568 82.7741 27.875 82.7741 26.5227C82.7741 25.1591 83.0213 23.9687 83.5156 22.9517C84.0156 21.9347 84.7088 21.1449 85.5952 20.5824C86.4872 20.0199 87.5241 19.7386 88.706 19.7386C89.8878 19.7386 90.9219 20.0199 91.8082 20.5824C92.7003 21.1449 93.3935 21.9347 93.8878 22.9517C94.3878 23.9687 94.6378 25.1591 94.6378 26.5227C94.6378 27.875 94.3878 29.0568 93.8878 30.0682C93.3935 31.0795 92.7003 31.8665 91.8082 32.429C90.9219 32.9915 89.8878 33.2727 88.706 33.2727ZM88.706 31.4659C89.6037 31.4659 90.3423 31.2358 90.9219 30.7756C91.5014 30.3153 91.9304 29.7102 92.2088 28.9602C92.4872 28.2102 92.6264 27.3977 92.6264 26.5227C92.6264 25.6477 92.4872 24.8324 92.2088 24.0767C91.9304 23.321 91.5014 22.7102 90.9219 22.2443C90.3423 21.7784 89.6037 21.5455 88.706 21.5455C87.8082 21.5455 87.0696 21.7784 86.4901 22.2443C85.9105 22.7102 85.4815 23.321 85.2031 24.0767C84.9247 24.8324 84.7855 25.6477 84.7855 26.5227C84.7855 27.3977 84.9247 28.2102 85.2031 28.9602C85.4815 29.7102 85.9105 30.3153 86.4901 30.7756C87.0696 31.2358 87.8082 31.4659 88.706 31.4659ZM99.7195 25.125V33H97.7081V19.9091H99.6513V21.9545H99.8217C100.129 21.2898 100.594 20.7557 101.219 20.3523C101.844 19.9432 102.651 19.7386 103.64 19.7386C104.526 19.7386 105.302 19.9205 105.967 20.2841C106.631 20.642 107.148 21.1875 107.518 21.9205C107.887 22.6477 108.072 23.5682 108.072 24.6818V33H106.06V24.8182C106.06 23.7898 105.793 22.9886 105.259 22.4148C104.725 21.8352 103.992 21.5455 103.06 21.5455C102.418 21.5455 101.844 21.6847 101.339 21.9631C100.839 22.2415 100.444 22.6477 100.154 23.1818C99.8643 23.7159 99.7195 24.3636 99.7195 25.125ZM118.054 29.4205V27.6818L125.724 15.5455H126.986V18.2386H126.134L120.338 27.4091V27.5455H130.668V29.4205H118.054ZM126.27 33V28.892V28.0824V15.5455H128.281V33H126.27Z" fill="black"/>
</svg>
