<svg width="354" height="81" viewBox="0 0 354 81" fill="none" xmlns="http://www.w3.org/2000/svg">
<rect opacity="0.6" width="354" height="81" rx="7" fill="#E3E2DE"/>
<path d="M135.6 26.744C138.024 26.744 140.28 27.284 142.368 28.364L141.792 31.1L141.432 31.172C140.28 30.452 139.212 29.936 138.228 29.624C137.268 29.312 136.248 29.156 135.168 29.156C129.96 29.156 127.356 32.372 127.356 38.804C127.356 41.9 127.956 44.18 129.156 45.644C130.38 47.084 132.264 47.804 134.808 47.804C135.48 47.804 136.152 47.744 136.824 47.624C137.52 47.504 138.408 47.276 139.488 46.94L139.56 44.24L139.524 40.784L142.224 40.568L142.152 43.844L142.296 48.884C140.736 49.364 139.356 49.712 138.156 49.928C136.956 50.144 135.792 50.252 134.664 50.252C131.232 50.252 128.652 49.28 126.924 47.336C125.22 45.392 124.368 42.584 124.368 38.912C124.368 34.952 125.34 31.94 127.284 29.876C129.228 27.788 132 26.744 135.6 26.744ZM154.323 33.476C154.611 33.476 154.923 33.5 155.259 33.548V36.32L154.935 36.428C154.527 36.308 154.083 36.248 153.603 36.248C152.811 36.248 152.079 36.572 151.407 37.22C150.759 37.844 150.111 38.852 149.463 40.244L149.427 42.764L149.607 50H146.763L146.943 43.016L146.799 33.692L149.499 33.44L149.463 36.824H149.679C150.351 35.624 151.095 34.772 151.911 34.268C152.727 33.74 153.531 33.476 154.323 33.476ZM164.52 33.224C166.752 33.224 168.48 33.956 169.704 35.42C170.952 36.86 171.576 38.9 171.576 41.54C171.576 44.324 170.928 46.484 169.632 48.02C168.336 49.532 166.488 50.288 164.088 50.288C161.832 50.288 160.08 49.568 158.832 48.128C157.608 46.664 156.996 44.612 156.996 41.972C156.996 39.188 157.644 37.04 158.94 35.528C160.26 33.992 162.12 33.224 164.52 33.224ZM164.34 35.24C162.828 35.24 161.676 35.756 160.884 36.788C160.092 37.82 159.696 39.332 159.696 41.324C159.696 43.628 160.08 45.356 160.848 46.508C161.64 47.66 162.78 48.236 164.268 48.236C165.78 48.236 166.932 47.732 167.724 46.724C168.516 45.716 168.912 44.204 168.912 42.188C168.912 39.908 168.516 38.18 167.724 37.004C166.956 35.828 165.828 35.24 164.34 35.24ZM190.808 47.876L190.52 49.496C189.824 49.904 189.14 50.144 188.468 50.216C187.772 50.12 187.208 49.88 186.776 49.496C186.368 49.088 186.08 48.488 185.912 47.696H185.696C184.256 48.992 182.768 49.832 181.232 50.216C179.456 50.216 178.1 49.796 177.164 48.956C176.252 48.116 175.808 46.916 175.832 45.356L175.868 40.784L175.76 33.692L178.64 33.44L178.424 44.672C178.424 45.656 178.652 46.424 179.108 46.976C179.588 47.528 180.284 47.804 181.196 47.804C182.684 47.804 184.172 47.084 185.66 45.644V33.692L188.396 33.44L188.216 46.472C188.216 46.976 188.288 47.336 188.432 47.552C188.6 47.744 188.876 47.84 189.26 47.84C189.644 47.84 190.064 47.768 190.52 47.624L190.808 47.876ZM201.888 33.332C203.952 33.332 205.536 34.016 206.64 35.384C207.744 36.752 208.296 38.708 208.296 41.252C208.296 44.132 207.6 46.364 206.208 47.948C204.816 49.508 202.836 50.288 200.268 50.288C199.26 50.288 198.216 50.18 197.136 49.964L197.208 56.66H194.4L194.58 43.016L194.4 33.692L197.136 33.44L197.1 35.78H197.352C198.192 35.084 198.948 34.556 199.62 34.196C200.292 33.836 201.048 33.548 201.888 33.332ZM200.628 48.2C202.212 48.2 203.436 47.648 204.3 46.544C205.164 45.44 205.596 43.868 205.596 41.828C205.596 39.836 205.248 38.312 204.552 37.256C203.88 36.2 202.908 35.672 201.636 35.672C200.892 35.672 200.148 35.876 199.404 36.284C198.684 36.692 197.916 37.328 197.1 38.192L197.064 42.764L197.1 47.264C198.276 47.888 199.452 48.2 200.628 48.2ZM222.653 31.892C224.285 31.892 225.605 32.324 226.613 33.188C227.621 34.028 228.125 35.12 228.125 36.464C228.125 37.496 227.813 38.492 227.189 39.452C226.589 40.412 225.701 41.192 224.525 41.792V41.936C225.965 42.272 227.057 42.848 227.801 43.664C228.545 44.48 228.917 45.5 228.917 46.724C228.917 48.044 228.569 49.22 227.873 50.252C227.201 51.284 226.241 52.076 224.993 52.628C223.745 53.204 222.317 53.492 220.709 53.492C219.605 53.492 218.429 53.384 217.181 53.168L217.001 50.72L217.217 50.54C218.345 51.02 219.569 51.26 220.889 51.26C222.473 51.26 223.757 50.876 224.741 50.108C225.725 49.364 226.217 48.356 226.217 47.084C226.217 45.956 225.809 45.068 224.993 44.42C224.201 43.772 223.061 43.424 221.573 43.376H219.449L219.269 43.16L219.341 41.18L220.925 41.144C221.573 41.144 222.233 40.964 222.905 40.604C223.577 40.244 224.129 39.752 224.561 39.128C225.017 38.504 225.245 37.82 225.245 37.076C225.245 36.212 224.957 35.528 224.381 35.024C223.805 34.52 223.049 34.268 222.113 34.268C221.369 34.268 220.637 34.448 219.917 34.808C219.221 35.144 218.465 35.672 217.649 36.392H217.325L216.893 34.124C218.693 32.636 220.613 31.892 222.653 31.892Z" fill="#393939"/>
</svg>
