<svg width="354" height="81" viewBox="0 0 354 81" fill="none" xmlns="http://www.w3.org/2000/svg">
<rect opacity="0.6" width="354" height="81" rx="7" fill="#E3E2DE"/>
<path d="M128.6 27.744C131.024 27.744 133.28 28.284 135.368 29.364L134.792 32.1L134.432 32.172C133.28 31.452 132.212 30.936 131.228 30.624C130.268 30.312 129.248 30.156 128.168 30.156C122.96 30.156 120.356 33.372 120.356 39.804C120.356 42.9 120.956 45.18 122.156 46.644C123.38 48.084 125.264 48.804 127.808 48.804C128.48 48.804 129.152 48.744 129.824 48.624C130.52 48.504 131.408 48.276 132.488 47.94L132.56 45.24L132.524 41.784L135.224 41.568L135.152 44.844L135.296 49.884C133.736 50.364 132.356 50.712 131.156 50.928C129.956 51.144 128.792 51.252 127.664 51.252C124.232 51.252 121.652 50.28 119.924 48.336C118.22 46.392 117.368 43.584 117.368 39.912C117.368 35.952 118.34 32.94 120.284 30.876C122.228 28.788 125 27.744 128.6 27.744ZM147.323 34.476C147.611 34.476 147.923 34.5 148.259 34.548V37.32L147.935 37.428C147.527 37.308 147.083 37.248 146.603 37.248C145.811 37.248 145.079 37.572 144.407 38.22C143.759 38.844 143.111 39.852 142.463 41.244L142.427 43.764L142.607 51H139.763L139.943 44.016L139.799 34.692L142.499 34.44L142.463 37.824H142.679C143.351 36.624 144.095 35.772 144.911 35.268C145.727 34.74 146.531 34.476 147.323 34.476ZM157.52 34.224C159.752 34.224 161.48 34.956 162.704 36.42C163.952 37.86 164.576 39.9 164.576 42.54C164.576 45.324 163.928 47.484 162.632 49.02C161.336 50.532 159.488 51.288 157.088 51.288C154.832 51.288 153.08 50.568 151.832 49.128C150.608 47.664 149.996 45.612 149.996 42.972C149.996 40.188 150.644 38.04 151.94 36.528C153.26 34.992 155.12 34.224 157.52 34.224ZM157.34 36.24C155.828 36.24 154.676 36.756 153.884 37.788C153.092 38.82 152.696 40.332 152.696 42.324C152.696 44.628 153.08 46.356 153.848 47.508C154.64 48.66 155.78 49.236 157.268 49.236C158.78 49.236 159.932 48.732 160.724 47.724C161.516 46.716 161.912 45.204 161.912 43.188C161.912 40.908 161.516 39.18 160.724 38.004C159.956 36.828 158.828 36.24 157.34 36.24ZM183.808 48.876L183.52 50.496C182.824 50.904 182.14 51.144 181.468 51.216C180.772 51.12 180.208 50.88 179.776 50.496C179.368 50.088 179.08 49.488 178.912 48.696H178.696C177.256 49.992 175.768 50.832 174.232 51.216C172.456 51.216 171.1 50.796 170.164 49.956C169.252 49.116 168.808 47.916 168.832 46.356L168.868 41.784L168.76 34.692L171.64 34.44L171.424 45.672C171.424 46.656 171.652 47.424 172.108 47.976C172.588 48.528 173.284 48.804 174.196 48.804C175.684 48.804 177.172 48.084 178.66 46.644V34.692L181.396 34.44L181.216 47.472C181.216 47.976 181.288 48.336 181.432 48.552C181.6 48.744 181.876 48.84 182.26 48.84C182.644 48.84 183.064 48.768 183.52 48.624L183.808 48.876ZM194.888 34.332C196.952 34.332 198.536 35.016 199.64 36.384C200.744 37.752 201.296 39.708 201.296 42.252C201.296 45.132 200.6 47.364 199.208 48.948C197.816 50.508 195.836 51.288 193.268 51.288C192.26 51.288 191.216 51.18 190.136 50.964L190.208 57.66H187.4L187.58 44.016L187.4 34.692L190.136 34.44L190.1 36.78H190.352C191.192 36.084 191.948 35.556 192.62 35.196C193.292 34.836 194.048 34.548 194.888 34.332ZM193.628 49.2C195.212 49.2 196.436 48.648 197.3 47.544C198.164 46.44 198.596 44.868 198.596 42.828C198.596 40.836 198.248 39.312 197.552 38.256C196.88 37.2 195.908 36.672 194.636 36.672C193.892 36.672 193.148 36.876 192.404 37.284C191.684 37.692 190.916 38.328 190.1 39.192L190.064 43.764L190.1 48.264C191.276 48.888 192.452 49.2 193.628 49.2ZM216.877 33.216L216.697 43.548L216.841 51H213.961L214.141 43.908L214.105 36.204L209.461 37.5L209.173 37.356V35.088L216.445 32.928L216.877 33.216Z" fill="#393939"/>
</svg>
