<svg width="165" height="39" viewBox="0 0 165 39" fill="none" xmlns="http://www.w3.org/2000/svg">
<rect y="4" width="165" height="35" rx="10" fill="#D9D9D9"/>
<path d="M51.5455 10.2273V7.72727H69V10.2273H61.6818V31H58.8636V10.2273H51.5455ZM77.7727 31.3636C76.0909 31.3636 74.6402 30.9924 73.4205 30.25C72.2083 29.5 71.2727 28.4545 70.6136 27.1136C69.9621 25.7652 69.6364 24.197 69.6364 22.4091C69.6364 20.6212 69.9621 19.0455 70.6136 17.6818C71.2727 16.3106 72.1894 15.2424 73.3636 14.4773C74.5455 13.7045 75.9242 13.3182 77.5 13.3182C78.4091 13.3182 79.3068 13.4697 80.1932 13.7727C81.0795 14.0758 81.8864 14.5682 82.6136 15.25C83.3409 15.9242 83.9205 16.8182 84.3523 17.9318C84.7841 19.0455 85 20.4167 85 22.0455V23.1818H71.5455V20.8636H82.2727C82.2727 19.8788 82.0758 19 81.6818 18.2273C81.2955 17.4545 80.7424 16.8447 80.0227 16.3977C79.3106 15.9508 78.4697 15.7273 77.5 15.7273C76.4318 15.7273 75.5076 15.9924 74.7273 16.5227C73.9545 17.0455 73.3598 17.7273 72.9432 18.5682C72.5265 19.4091 72.3182 20.3106 72.3182 21.2727V22.8182C72.3182 24.1364 72.5455 25.2538 73 26.1705C73.4621 27.0795 74.1023 27.7727 74.9205 28.25C75.7386 28.7197 76.6894 28.9545 77.7727 28.9545C78.4773 28.9545 79.1136 28.8561 79.6818 28.6591C80.2576 28.4545 80.7538 28.1515 81.1705 27.75C81.5871 27.3409 81.9091 26.8333 82.1364 26.2273L84.7273 26.9545C84.4545 27.8333 83.9962 28.6061 83.3523 29.2727C82.7083 29.9318 81.9129 30.447 80.9659 30.8182C80.0189 31.1818 78.9545 31.3636 77.7727 31.3636ZM101.443 17.4545L99.0341 18.1364C98.8826 17.7348 98.6591 17.3447 98.3636 16.9659C98.0758 16.5795 97.6818 16.2614 97.1818 16.0114C96.6818 15.7614 96.0417 15.6364 95.2614 15.6364C94.1932 15.6364 93.303 15.8826 92.5909 16.375C91.8864 16.8598 91.5341 17.4773 91.5341 18.2273C91.5341 18.8939 91.7765 19.4205 92.2614 19.8068C92.7462 20.1932 93.5038 20.5152 94.5341 20.7727L97.125 21.4091C98.6856 21.7879 99.8485 22.3674 100.614 23.1477C101.379 23.9205 101.761 24.9167 101.761 26.1364C101.761 27.1364 101.473 28.0303 100.898 28.8182C100.33 29.6061 99.5341 30.2273 98.5114 30.6818C97.4886 31.1364 96.2992 31.3636 94.9432 31.3636C93.1629 31.3636 91.6894 30.9773 90.5227 30.2045C89.3561 29.4318 88.6174 28.303 88.3068 26.8182L90.8523 26.1818C91.0947 27.1212 91.553 27.8258 92.2273 28.2955C92.9091 28.7652 93.7992 29 94.8977 29C96.1477 29 97.1402 28.7348 97.875 28.2045C98.6174 27.6667 98.9886 27.0227 98.9886 26.2727C98.9886 25.6667 98.7765 25.1591 98.3523 24.75C97.928 24.3333 97.2765 24.0227 96.3977 23.8182L93.4886 23.1364C91.8902 22.7576 90.7159 22.1705 89.9659 21.375C89.2235 20.572 88.8523 19.5682 88.8523 18.3636C88.8523 17.3788 89.1288 16.5076 89.6818 15.75C90.2424 14.9924 91.0038 14.3977 91.9659 13.9659C92.9356 13.5341 94.0341 13.3182 95.2614 13.3182C96.9886 13.3182 98.3447 13.697 99.3295 14.4545C100.322 15.2121 101.027 16.2121 101.443 17.4545ZM113.389 13.5455V15.8182H104.344V13.5455H113.389ZM106.98 9.36364H109.662V26C109.662 26.7576 109.772 27.3258 109.991 27.7045C110.219 28.0758 110.507 28.3258 110.855 28.4545C111.211 28.5758 111.586 28.6364 111.98 28.6364C112.276 28.6364 112.518 28.6212 112.707 28.5909C112.897 28.553 113.048 28.5227 113.162 28.5L113.707 30.9091C113.526 30.9773 113.272 31.0455 112.946 31.1136C112.62 31.1894 112.207 31.2273 111.707 31.2273C110.95 31.2273 110.207 31.0644 109.48 30.7386C108.76 30.4129 108.162 29.9167 107.685 29.25C107.215 28.5833 106.98 27.7424 106.98 26.7273V9.36364Z" fill="black"/>
</svg>
