<svg width="309" height="81" viewBox="0 0 309 81" fill="none" xmlns="http://www.w3.org/2000/svg">
<rect opacity="0.6" width="309" height="81" rx="7" fill="#E3E2DE"/>
<path d="M112.8 21.992C116.032 21.992 119.04 22.712 121.824 24.152L121.056 27.8L120.576 27.896C119.04 26.936 117.616 26.248 116.304 25.832C115.024 25.416 113.664 25.208 112.224 25.208C105.28 25.208 101.808 29.496 101.808 38.072C101.808 42.2 102.608 45.24 104.208 47.192C105.84 49.112 108.352 50.072 111.744 50.072C112.64 50.072 113.536 49.992 114.432 49.832C115.36 49.672 116.544 49.368 117.984 48.92L118.08 45.32L118.032 40.712L121.632 40.424L121.536 44.792L121.728 51.512C119.648 52.152 117.808 52.616 116.208 52.904C114.608 53.192 113.056 53.336 111.552 53.336C106.976 53.336 103.536 52.04 101.232 49.448C98.96 46.856 97.824 43.112 97.824 38.216C97.824 32.936 99.12 28.92 101.712 26.168C104.304 23.384 108 21.992 112.8 21.992ZM137.764 30.968C138.148 30.968 138.564 31 139.012 31.064V34.76L138.58 34.904C138.036 34.744 137.444 34.664 136.804 34.664C135.748 34.664 134.772 35.096 133.876 35.96C133.012 36.792 132.148 38.136 131.284 39.992L131.236 43.352L131.476 53H127.684L127.924 43.688L127.732 31.256L131.332 30.92L131.284 35.432H131.572C132.468 33.832 133.46 32.696 134.548 32.024C135.636 31.32 136.708 30.968 137.764 30.968ZM151.361 30.632C154.337 30.632 156.641 31.608 158.273 33.56C159.937 35.48 160.769 38.2 160.769 41.72C160.769 45.432 159.905 48.312 158.177 50.36C156.449 52.376 153.985 53.384 150.785 53.384C147.777 53.384 145.441 52.424 143.777 50.504C142.145 48.552 141.329 45.816 141.329 42.296C141.329 38.584 142.193 35.72 143.921 33.704C145.681 31.656 148.161 30.632 151.361 30.632ZM151.121 33.32C149.105 33.32 147.569 34.008 146.513 35.384C145.457 36.76 144.929 38.776 144.929 41.432C144.929 44.504 145.441 46.808 146.465 48.344C147.521 49.88 149.041 50.648 151.025 50.648C153.041 50.648 154.577 49.976 155.633 48.632C156.689 47.288 157.217 45.272 157.217 42.584C157.217 39.544 156.689 37.24 155.633 35.672C154.609 34.104 153.105 33.32 151.121 33.32ZM186.411 50.168L186.027 52.328C185.099 52.872 184.187 53.192 183.291 53.288C182.363 53.16 181.611 52.84 181.035 52.328C180.491 51.784 180.107 50.984 179.883 49.928H179.595C177.675 51.656 175.691 52.776 173.643 53.288C171.275 53.288 169.467 52.728 168.219 51.608C167.003 50.488 166.411 48.888 166.443 46.808L166.491 40.712L166.347 31.256L170.187 30.92L169.899 45.896C169.899 47.208 170.203 48.232 170.811 48.968C171.451 49.704 172.379 50.072 173.595 50.072C175.579 50.072 177.563 49.112 179.547 47.192V31.256L183.195 30.92L182.955 48.296C182.955 48.968 183.051 49.448 183.243 49.736C183.467 49.992 183.835 50.12 184.347 50.12C184.859 50.12 185.419 50.024 186.027 49.832L186.411 50.168ZM201.183 30.776C203.935 30.776 206.047 31.688 207.519 33.512C208.991 35.336 209.727 37.944 209.727 41.336C209.727 45.176 208.799 48.152 206.943 50.264C205.087 52.344 202.447 53.384 199.023 53.384C197.679 53.384 196.287 53.24 194.847 52.952L194.943 61.88H191.199L191.439 43.688L191.199 31.256L194.847 30.92L194.799 34.04H195.135C196.255 33.112 197.263 32.408 198.159 31.928C199.055 31.448 200.063 31.064 201.183 30.776ZM199.503 50.6C201.615 50.6 203.247 49.864 204.399 48.392C205.551 46.92 206.127 44.824 206.127 42.104C206.127 39.448 205.663 37.416 204.735 36.008C203.839 34.6 202.543 33.896 200.847 33.896C199.855 33.896 198.863 34.168 197.871 34.712C196.911 35.256 195.887 36.104 194.799 37.256L194.751 43.352L194.799 49.352C196.367 50.184 197.935 50.6 199.503 50.6ZM221.621 30.68C223.445 30.68 225.205 31.032 226.901 31.736L226.373 34.856L225.797 35C224.197 33.944 222.661 33.416 221.189 33.416C220.101 33.416 219.221 33.72 218.549 34.328C217.877 34.936 217.541 35.672 217.541 36.536C217.541 37.4 217.877 38.104 218.549 38.648C219.253 39.16 220.325 39.752 221.765 40.424C223.013 41 224.005 41.528 224.741 42.008C225.509 42.456 226.165 43.064 226.709 43.832C227.253 44.6 227.525 45.544 227.525 46.664C227.525 47.848 227.221 48.952 226.613 49.976C226.005 51 225.109 51.832 223.925 52.472C222.741 53.08 221.333 53.384 219.701 53.384C217.461 53.384 215.333 52.856 213.317 51.8L213.797 48.536L214.229 48.248C215.125 49.016 216.085 49.608 217.109 50.024C218.165 50.44 219.157 50.648 220.085 50.648C221.269 50.648 222.229 50.328 222.965 49.688C223.701 49.016 224.069 48.232 224.069 47.336C224.069 46.472 223.717 45.784 223.013 45.272C222.341 44.728 221.285 44.12 219.845 43.448C218.597 42.872 217.589 42.36 216.821 41.912C216.053 41.432 215.397 40.792 214.853 39.992C214.309 39.192 214.037 38.2 214.037 37.016C214.037 35.16 214.709 33.64 216.053 32.456C217.429 31.272 219.285 30.68 221.621 30.68Z" fill="#393939"/>
</svg>
