<svg width="354" height="81" viewBox="0 0 354 81" fill="none" xmlns="http://www.w3.org/2000/svg">
<rect opacity="0.6" width="354" height="81" rx="7" fill="#E3E2DE"/>
<path d="M134.6 27.744C137.024 27.744 139.28 28.284 141.368 29.364L140.792 32.1L140.432 32.172C139.28 31.452 138.212 30.936 137.228 30.624C136.268 30.312 135.248 30.156 134.168 30.156C128.96 30.156 126.356 33.372 126.356 39.804C126.356 42.9 126.956 45.18 128.156 46.644C129.38 48.084 131.264 48.804 133.808 48.804C134.48 48.804 135.152 48.744 135.824 48.624C136.52 48.504 137.408 48.276 138.488 47.94L138.56 45.24L138.524 41.784L141.224 41.568L141.152 44.844L141.296 49.884C139.736 50.364 138.356 50.712 137.156 50.928C135.956 51.144 134.792 51.252 133.664 51.252C130.232 51.252 127.652 50.28 125.924 48.336C124.22 46.392 123.368 43.584 123.368 39.912C123.368 35.952 124.34 32.94 126.284 30.876C128.228 28.788 131 27.744 134.6 27.744ZM153.323 34.476C153.611 34.476 153.923 34.5 154.259 34.548V37.32L153.935 37.428C153.527 37.308 153.083 37.248 152.603 37.248C151.811 37.248 151.079 37.572 150.407 38.22C149.759 38.844 149.111 39.852 148.463 41.244L148.427 43.764L148.607 51H145.763L145.943 44.016L145.799 34.692L148.499 34.44L148.463 37.824H148.679C149.351 36.624 150.095 35.772 150.911 35.268C151.727 34.74 152.531 34.476 153.323 34.476ZM163.52 34.224C165.752 34.224 167.48 34.956 168.704 36.42C169.952 37.86 170.576 39.9 170.576 42.54C170.576 45.324 169.928 47.484 168.632 49.02C167.336 50.532 165.488 51.288 163.088 51.288C160.832 51.288 159.08 50.568 157.832 49.128C156.608 47.664 155.996 45.612 155.996 42.972C155.996 40.188 156.644 38.04 157.94 36.528C159.26 34.992 161.12 34.224 163.52 34.224ZM163.34 36.24C161.828 36.24 160.676 36.756 159.884 37.788C159.092 38.82 158.696 40.332 158.696 42.324C158.696 44.628 159.08 46.356 159.848 47.508C160.64 48.66 161.78 49.236 163.268 49.236C164.78 49.236 165.932 48.732 166.724 47.724C167.516 46.716 167.912 45.204 167.912 43.188C167.912 40.908 167.516 39.18 166.724 38.004C165.956 36.828 164.828 36.24 163.34 36.24ZM189.808 48.876L189.52 50.496C188.824 50.904 188.14 51.144 187.468 51.216C186.772 51.12 186.208 50.88 185.776 50.496C185.368 50.088 185.08 49.488 184.912 48.696H184.696C183.256 49.992 181.768 50.832 180.232 51.216C178.456 51.216 177.1 50.796 176.164 49.956C175.252 49.116 174.808 47.916 174.832 46.356L174.868 41.784L174.76 34.692L177.64 34.44L177.424 45.672C177.424 46.656 177.652 47.424 178.108 47.976C178.588 48.528 179.284 48.804 180.196 48.804C181.684 48.804 183.172 48.084 184.66 46.644V34.692L187.396 34.44L187.216 47.472C187.216 47.976 187.288 48.336 187.432 48.552C187.6 48.744 187.876 48.84 188.26 48.84C188.644 48.84 189.064 48.768 189.52 48.624L189.808 48.876ZM200.888 34.332C202.952 34.332 204.536 35.016 205.64 36.384C206.744 37.752 207.296 39.708 207.296 42.252C207.296 45.132 206.6 47.364 205.208 48.948C203.816 50.508 201.836 51.288 199.268 51.288C198.26 51.288 197.216 51.18 196.136 50.964L196.208 57.66H193.4L193.58 44.016L193.4 34.692L196.136 34.44L196.1 36.78H196.352C197.192 36.084 197.948 35.556 198.62 35.196C199.292 34.836 200.048 34.548 200.888 34.332ZM199.628 49.2C201.212 49.2 202.436 48.648 203.3 47.544C204.164 46.44 204.596 44.868 204.596 42.828C204.596 40.836 204.248 39.312 203.552 38.256C202.88 37.2 201.908 36.672 200.636 36.672C199.892 36.672 199.148 36.876 198.404 37.284C197.684 37.692 196.916 38.328 196.1 39.192L196.064 43.764L196.1 48.264C197.276 48.888 198.452 49.2 199.628 49.2ZM223.057 32.928C224.497 32.928 225.673 33.3 226.585 34.044C227.521 34.764 227.989 35.724 227.989 36.924C227.989 37.884 227.653 38.964 226.981 40.164C226.309 41.34 225.241 42.78 223.777 44.484L220.141 48.624L220.213 48.768H226.873L229.897 48.552L230.113 48.732L229.717 51.144L226.045 51H217.981L216.649 51.072L216.469 50.928V49.128L221.473 43.692C222.769 42.252 223.717 41.064 224.317 40.128C224.917 39.168 225.217 38.328 225.217 37.608C225.217 36.96 224.977 36.432 224.497 36.024C224.017 35.592 223.345 35.376 222.481 35.376C221.617 35.376 220.753 35.592 219.889 36.024C219.049 36.456 218.281 37.056 217.585 37.824H217.225L216.757 35.628C217.693 34.764 218.701 34.104 219.781 33.648C220.861 33.168 221.953 32.928 223.057 32.928Z" fill="#393939"/>
</svg>
