<svg width="1088" height="50" viewBox="0 0 1088 50" fill="none" xmlns="http://www.w3.org/2000/svg">
<rect x="0.5" y="0.5" width="1087" height="49" fill="#D9D9D9" stroke="#B5B4B4"/>
<path d="M37.1136 34V16.5455H39.2273V32.125H47.3409V34H37.1136ZM55.8295 34.2727C54.5682 34.2727 53.4801 33.9943 52.5653 33.4375C51.6562 32.875 50.9545 32.0909 50.4602 31.0852C49.9716 30.0739 49.7273 28.8977 49.7273 27.5568C49.7273 26.2159 49.9716 25.0341 50.4602 24.0114C50.9545 22.983 51.642 22.1818 52.5227 21.608C53.4091 21.0284 54.4432 20.7386 55.625 20.7386C56.3068 20.7386 56.9801 20.8523 57.6449 21.0795C58.3097 21.3068 58.9148 21.6761 59.4602 22.1875C60.0057 22.6932 60.4403 23.3636 60.7642 24.1989C61.0881 25.0341 61.25 26.0625 61.25 27.2841V28.1364H51.1591V26.3977H59.2045C59.2045 25.6591 59.0568 25 58.7614 24.4205C58.4716 23.8409 58.0568 23.3835 57.517 23.0483C56.983 22.7131 56.3523 22.5455 55.625 22.5455C54.8239 22.5455 54.1307 22.7443 53.5455 23.142C52.9659 23.5341 52.5199 24.0455 52.2074 24.6761C51.8949 25.3068 51.7386 25.983 51.7386 26.7045V27.8636C51.7386 28.8523 51.9091 29.6903 52.25 30.3778C52.5966 31.0597 53.0767 31.5795 53.6903 31.9375C54.304 32.2898 55.017 32.4659 55.8295 32.4659C56.358 32.4659 56.8352 32.392 57.2614 32.2443C57.6932 32.0909 58.0653 31.8636 58.3778 31.5625C58.6903 31.2557 58.9318 30.875 59.1023 30.4205L61.0455 30.9659C60.8409 31.625 60.4972 32.2045 60.0142 32.7045C59.5313 33.1989 58.9347 33.5852 58.2244 33.8636C57.5142 34.1364 56.7159 34.2727 55.8295 34.2727ZM73.5824 23.8409L71.7756 24.3523C71.6619 24.0511 71.4943 23.7585 71.2727 23.4744C71.0568 23.1847 70.7614 22.946 70.3864 22.7585C70.0114 22.571 69.5312 22.4773 68.946 22.4773C68.1449 22.4773 67.4773 22.6619 66.9432 23.0312C66.4148 23.3949 66.1506 23.858 66.1506 24.4205C66.1506 24.9205 66.3324 25.3153 66.696 25.6051C67.0597 25.8949 67.6278 26.1364 68.4006 26.3295L70.3438 26.8068C71.5142 27.0909 72.3864 27.5256 72.9602 28.1108C73.5341 28.6903 73.821 29.4375 73.821 30.3523C73.821 31.1023 73.6051 31.7727 73.1733 32.3636C72.7472 32.9545 72.1506 33.4205 71.3835 33.7614C70.6165 34.1023 69.7244 34.2727 68.7074 34.2727C67.3722 34.2727 66.267 33.983 65.392 33.4034C64.517 32.8239 63.9631 31.9773 63.7301 30.8636L65.6392 30.3864C65.821 31.0909 66.1648 31.6193 66.6705 31.9716C67.1818 32.3239 67.8494 32.5 68.6733 32.5C69.6108 32.5 70.3551 32.3011 70.9062 31.9034C71.4631 31.5 71.7415 31.017 71.7415 30.4545C71.7415 30 71.5824 29.6193 71.2642 29.3125C70.946 29 70.4574 28.767 69.7983 28.6136L67.6165 28.1023C66.4176 27.8182 65.5369 27.3778 64.9744 26.7812C64.4176 26.179 64.1392 25.4261 64.1392 24.5227C64.1392 23.7841 64.3466 23.1307 64.7614 22.5625C65.1818 21.9943 65.7528 21.5483 66.4744 21.2244C67.2017 20.9006 68.0256 20.7386 68.946 20.7386C70.2415 20.7386 71.2585 21.0227 71.9972 21.5909C72.7415 22.1591 73.2699 22.9091 73.5824 23.8409ZM86.1214 23.8409L84.3146 24.3523C84.201 24.0511 84.0334 23.7585 83.8118 23.4744C83.5959 23.1847 83.3004 22.946 82.9254 22.7585C82.5504 22.571 82.0703 22.4773 81.4851 22.4773C80.6839 22.4773 80.0163 22.6619 79.4822 23.0312C78.9538 23.3949 78.6896 23.858 78.6896 24.4205C78.6896 24.9205 78.8714 25.3153 79.2351 25.6051C79.5987 25.8949 80.1669 26.1364 80.9396 26.3295L82.8828 26.8068C84.0533 27.0909 84.9254 27.5256 85.4993 28.1108C86.0732 28.6903 86.3601 29.4375 86.3601 30.3523C86.3601 31.1023 86.1442 31.7727 85.7124 32.3636C85.2862 32.9545 84.6896 33.4205 83.9226 33.7614C83.1555 34.1023 82.2635 34.2727 81.2464 34.2727C79.9112 34.2727 78.8061 33.983 77.9311 33.4034C77.0561 32.8239 76.5021 31.9773 76.2692 30.8636L78.1783 30.3864C78.3601 31.0909 78.7038 31.6193 79.2095 31.9716C79.7209 32.3239 80.3885 32.5 81.2124 32.5C82.1499 32.5 82.8942 32.3011 83.4453 31.9034C84.0021 31.5 84.2805 31.017 84.2805 30.4545C84.2805 30 84.1214 29.6193 83.8033 29.3125C83.4851 29 82.9964 28.767 82.3374 28.6136L80.1555 28.1023C78.9567 27.8182 78.076 27.3778 77.5135 26.7812C76.9567 26.179 76.6783 25.4261 76.6783 24.5227C76.6783 23.7841 76.8857 23.1307 77.3004 22.5625C77.7209 21.9943 78.2919 21.5483 79.0135 21.2244C79.7408 20.9006 80.5646 20.7386 81.4851 20.7386C82.7805 20.7386 83.7976 21.0227 84.5362 21.5909C85.2805 22.1591 85.8089 22.9091 86.1214 23.8409ZM94.706 34.2727C93.5241 34.2727 92.4872 33.9915 91.5952 33.429C90.7088 32.8665 90.0156 32.0795 89.5156 31.0682C89.0213 30.0568 88.7741 28.875 88.7741 27.5227C88.7741 26.1591 89.0213 24.9687 89.5156 23.9517C90.0156 22.9347 90.7088 22.1449 91.5952 21.5824C92.4872 21.0199 93.5241 20.7386 94.706 20.7386C95.8878 20.7386 96.9219 21.0199 97.8082 21.5824C98.7003 22.1449 99.3935 22.9347 99.8878 23.9517C100.388 24.9687 100.638 26.1591 100.638 27.5227C100.638 28.875 100.388 30.0568 99.8878 31.0682C99.3935 32.0795 98.7003 32.8665 97.8082 33.429C96.9219 33.9915 95.8878 34.2727 94.706 34.2727ZM94.706 32.4659C95.6037 32.4659 96.3423 32.2358 96.9219 31.7756C97.5014 31.3153 97.9304 30.7102 98.2088 29.9602C98.4872 29.2102 98.6264 28.3977 98.6264 27.5227C98.6264 26.6477 98.4872 25.8324 98.2088 25.0767C97.9304 24.321 97.5014 23.7102 96.9219 23.2443C96.3423 22.7784 95.6037 22.5455 94.706 22.5455C93.8082 22.5455 93.0696 22.7784 92.4901 23.2443C91.9105 23.7102 91.4815 24.321 91.2031 25.0767C90.9247 25.8324 90.7855 26.6477 90.7855 27.5227C90.7855 28.3977 90.9247 29.2102 91.2031 29.9602C91.4815 30.7102 91.9105 31.3153 92.4901 31.7756C93.0696 32.2358 93.8082 32.4659 94.706 32.4659ZM105.719 26.125V34H103.708V20.9091H105.651V22.9545H105.822C106.129 22.2898 106.594 21.7557 107.219 21.3523C107.844 20.9432 108.651 20.7386 109.64 20.7386C110.526 20.7386 111.302 20.9205 111.967 21.2841C112.631 21.642 113.148 22.1875 113.518 22.9205C113.887 23.6477 114.072 24.5682 114.072 25.6818V34H112.06V25.8182C112.06 24.7898 111.793 23.9886 111.259 23.4148C110.725 22.8352 109.992 22.5455 109.06 22.5455C108.418 22.5455 107.844 22.6847 107.339 22.9631C106.839 23.2415 106.444 23.6477 106.154 24.1818C105.864 24.7159 105.719 25.3636 105.719 26.125ZM130.599 16.5455V34H128.486V18.7614H128.384L124.122 21.5909V19.4432L128.486 16.5455H130.599Z" fill="black"/>
<rect x="1001" y="8" width="57" height="35" rx="5" fill="white"/>
</svg>
