<svg width="1088" height="203" viewBox="0 0 1088 203" fill="none" xmlns="http://www.w3.org/2000/svg">
<path d="M0.5 1H2.48746H4.97066H7.44963H9.92437H12.3949H14.8612H17.3234H19.7814H22.2353H24.6851H27.1307H29.5723H32.0098H34.4432H36.8726H39.298H41.7194H44.1367H46.5501H48.9596H51.3651H53.7667H56.1644H58.5582H60.9481H63.3342H65.7164H68.0948H70.4694H72.8402H75.2073H77.5705H79.9301H82.2859H84.638H86.9865H89.3312H91.6723H94.0098H96.3437H98.6739H101.001H103.324H105.643H107.959H110.272H112.581H114.886H117.188H119.487H121.782H124.073H126.362H128.647H130.928H133.206H135.481H137.753H140.021H142.286H144.547H146.806H149.061H151.313H153.562H155.807H158.05H160.289H162.525H164.758H166.988H169.214H171.438H173.659H175.876H178.091H180.302H182.511H184.717H186.919H189.119H191.316H193.51H195.701H197.889H200.074H202.257H204.436H206.613H208.787H210.958H213.127H215.293H217.456H219.616H221.774H223.929H226.081H228.231H230.378H232.523H234.664H236.804H238.941H241.075H243.206H245.336H247.462H249.587H251.708H253.828H255.945H258.059H260.171H262.281H264.389H266.494H268.597H270.697H272.795H274.891H276.985H279.076H281.165H283.252H285.337H287.42H289.5H291.579H293.655H295.729H297.801H299.871H301.939H304.005H306.069H308.131H310.191H312.249H314.305H316.359H318.411H320.461H322.509H324.556H326.6H328.643H330.684H332.723H334.76H336.796H338.83H340.862H342.892H344.921H346.948H348.973H350.997H353.019H355.039H357.058H359.075H361.091H363.105H365.118H367.129H369.138H371.146H373.153H375.158H377.162H379.164H381.165H383.165H385.163H387.16H389.155H391.149H393.142H395.133H397.124H399.113H401.101H403.087H405.072H407.057H409.04H411.022H413.002H414.982H416.96H418.938H420.914H422.889H424.864H426.837H428.809H430.78H432.751H434.72H436.689H438.656H440.623H442.588H444.553H446.517H448.48H450.443H452.404H454.365H456.325H458.284H460.243H462.2H464.157H466.114H468.07H470.025H471.979H473.933H475.886H477.839H479.791H481.742H483.693H485.644H487.594H489.543H491.492H493.441H495.389H497.337H499.284H501.231H503.177H505.124H507.07H509.015H510.96H512.905H514.85H516.794H518.739H520.683H522.627H524.57H526.514H528.457H530.4H532.343H534.286H536.229H538.172H540.115H542.057H544H545.943H547.885H549.828H551.771H553.714H555.657H557.6H559.543H561.486H563.43H565.373H567.317H569.261H571.206H573.15H575.095H577.04H578.985H580.93H582.876H584.823H586.769H588.716H590.663H592.611H594.559H596.508H598.457H600.406H602.356H604.307H606.258H608.209H610.161H612.114H614.067H616.021H617.975H619.93H621.886H623.843H625.8H627.757H629.716H631.675H633.635H635.596H637.557H639.52H641.483H643.447H645.412H647.377H649.344H651.312H653.28H655.249H657.22H659.191H661.163H663.136H665.111H667.086H669.062H671.04H673.018H674.998H676.979H678.96H680.943H682.928H684.913H686.899H688.887H690.876H692.867H694.858H696.851H698.845H700.841H702.837H704.835H706.835H708.836H710.838H712.842H714.847H716.854H718.862H720.871H722.882H724.895H726.909H728.924H730.942H732.961H734.981H737.003H739.027H741.052H743.079H745.108H747.138H749.17H751.204H753.24H755.277H757.316H759.357H761.4H763.444H765.491H767.539H769.589H771.641H773.695H775.751H777.809H779.869H781.931H783.995H786.061H788.129H790.199H792.271H794.345H796.421H798.5H800.58H802.663H804.748H806.835H808.924H811.015H813.109H815.205H817.303H819.403H821.506H823.611H825.719H827.828H829.941H832.055H834.172H836.292H838.413H840.538H842.664H844.794H846.925H849.06H851.196H853.336H855.477H857.622H859.769H861.919H864.071H866.226H868.384H870.544H872.707H874.873H877.042H879.213H881.387H883.564H885.743H887.926H890.111H892.299H894.49H896.684H898.881H901.081H903.283H905.489H907.698H909.909H912.124H914.341H916.562H918.786H921.012H923.242H925.475H927.711H929.951H932.193H934.438H936.687H938.939H941.194H943.453H945.714H947.979H950.247H952.519H954.794H957.072H959.353H961.638H963.927H966.218H968.513H970.812H973.114H975.419H977.728H980.041H982.357H984.676H986.999H989.326H991.656H993.99H996.328H998.669H1001.01H1003.36H1005.71H1008.07H1010.43H1012.79H1015.16H1017.53H1019.91H1022.28H1024.67H1027.05H1029.44H1031.84H1034.23H1036.63H1039.04H1041.45H1043.86H1046.28H1048.7H1051.13H1053.56H1055.99H1058.43H1060.87H1063.31H1065.76H1068.22H1070.68H1073.14H1075.61H1078.08H1080.55H1083.03H1085.51H1087.5V50H0.5V1Z" fill="#D9D9D9" stroke="#B4B4B3"/>
<path d="M1003.11 19.5455H1005.64L1011.57 34.0341H1011.77L1017.7 19.5455H1020.23V37H1018.25V23.7386H1018.08L1012.62 37H1010.72L1005.26 23.7386H1005.09V37H1003.11V19.5455ZM1028.04 37.3068C1027.22 37.3068 1026.46 37.1506 1025.79 36.8381C1025.11 36.5199 1024.57 36.0625 1024.18 35.4659C1023.78 34.8636 1023.58 34.1364 1023.58 33.2841C1023.58 32.5341 1023.73 31.9261 1024.02 31.4602C1024.32 30.9886 1024.71 30.6193 1025.21 30.3523C1025.7 30.0852 1026.25 29.8864 1026.84 29.7557C1027.45 29.6193 1028.05 29.5114 1028.66 29.4318C1029.45 29.3295 1030.1 29.2528 1030.59 29.2017C1031.09 29.1449 1031.46 29.0511 1031.68 28.9205C1031.92 28.7898 1032.03 28.5625 1032.03 28.2386V28.1705C1032.03 27.3295 1031.8 26.6761 1031.34 26.2102C1030.89 25.7443 1030.2 25.5114 1029.27 25.5114C1028.31 25.5114 1027.56 25.7216 1027.01 26.142C1026.47 26.5625 1026.08 27.0114 1025.86 27.4886L1023.95 26.8068C1024.29 26.0114 1024.75 25.392 1025.32 24.9489C1025.89 24.5 1026.52 24.1875 1027.19 24.0114C1027.87 23.8295 1028.54 23.7386 1029.2 23.7386C1029.62 23.7386 1030.11 23.7898 1030.65 23.892C1031.2 23.9886 1031.74 24.1903 1032.25 24.4972C1032.76 24.804 1033.19 25.267 1033.53 25.8864C1033.87 26.5057 1034.04 27.3352 1034.04 28.375V37H1032.03V35.2273H1031.93C1031.79 35.5114 1031.57 35.8153 1031.25 36.1392C1030.93 36.4631 1030.51 36.7386 1029.98 36.9659C1029.45 37.1932 1028.81 37.3068 1028.04 37.3068ZM1028.35 35.5C1029.15 35.5 1029.82 35.3438 1030.36 35.0312C1030.91 34.7188 1031.33 34.3153 1031.61 33.821C1031.89 33.3267 1032.03 32.8068 1032.03 32.2614V30.4205C1031.95 30.5227 1031.76 30.6165 1031.47 30.7017C1031.19 30.7812 1030.86 30.8523 1030.48 30.9148C1030.11 30.9716 1029.75 31.0227 1029.4 31.0682C1029.05 31.108 1028.77 31.142 1028.56 31.1705C1028.03 31.2386 1027.54 31.3494 1027.09 31.5028C1026.64 31.6506 1026.28 31.875 1026 32.1761C1025.73 32.4716 1025.59 32.875 1025.59 33.3864C1025.59 34.0852 1025.85 34.6136 1026.37 34.9716C1026.89 35.3239 1027.55 35.5 1028.35 35.5ZM1037.72 37V23.9091H1039.66V25.8864H1039.8C1040.03 25.2386 1040.47 24.7131 1041.09 24.3097C1041.72 23.9062 1042.42 23.7045 1043.2 23.7045C1043.35 23.7045 1043.54 23.7074 1043.76 23.7131C1043.98 23.7187 1044.15 23.7273 1044.26 23.7386V25.7841C1044.19 25.767 1044.04 25.7415 1043.79 25.7074C1043.55 25.6676 1043.3 25.6477 1043.03 25.6477C1042.4 25.6477 1041.83 25.7812 1041.33 26.0483C1040.84 26.3097 1040.44 26.6733 1040.15 27.1392C1039.87 27.5994 1039.73 28.125 1039.73 28.7159V37H1037.72ZM1048.52 32.2273L1048.49 29.7386H1048.9L1054.62 23.9091H1057.11L1051.01 30.0795H1050.84L1048.52 32.2273ZM1046.65 37V19.5455H1048.66V37H1046.65ZM1054.96 37L1049.85 30.5227L1051.28 29.125L1057.52 37H1054.96Z" fill="black"/>
<line x1="971.5" y1="3" x2="971.5" y2="203" stroke="black"/>
<line x1="676.5" y1="3" x2="676.5" y2="203" stroke="black"/>
<path d="M199.114 37V19.5455H201.227V35.125H209.341V37H199.114ZM217.83 37.2727C216.568 37.2727 215.48 36.9943 214.565 36.4375C213.656 35.875 212.955 35.0909 212.46 34.0852C211.972 33.0739 211.727 31.8977 211.727 30.5568C211.727 29.2159 211.972 28.0341 212.46 27.0114C212.955 25.983 213.642 25.1818 214.523 24.608C215.409 24.0284 216.443 23.7386 217.625 23.7386C218.307 23.7386 218.98 23.8523 219.645 24.0795C220.31 24.3068 220.915 24.6761 221.46 25.1875C222.006 25.6932 222.44 26.3636 222.764 27.1989C223.088 28.0341 223.25 29.0625 223.25 30.2841V31.1364H213.159V29.3977H221.205C221.205 28.6591 221.057 28 220.761 27.4205C220.472 26.8409 220.057 26.3835 219.517 26.0483C218.983 25.7131 218.352 25.5455 217.625 25.5455C216.824 25.5455 216.131 25.7443 215.545 26.142C214.966 26.5341 214.52 27.0455 214.207 27.6761C213.895 28.3068 213.739 28.983 213.739 29.7045V30.8636C213.739 31.8523 213.909 32.6903 214.25 33.3778C214.597 34.0597 215.077 34.5795 215.69 34.9375C216.304 35.2898 217.017 35.4659 217.83 35.4659C218.358 35.4659 218.835 35.392 219.261 35.2443C219.693 35.0909 220.065 34.8636 220.378 34.5625C220.69 34.2557 220.932 33.875 221.102 33.4205L223.045 33.9659C222.841 34.625 222.497 35.2045 222.014 35.7045C221.531 36.1989 220.935 36.5852 220.224 36.8636C219.514 37.1364 218.716 37.2727 217.83 37.2727ZM235.582 26.8409L233.776 27.3523C233.662 27.0511 233.494 26.7585 233.273 26.4744C233.057 26.1847 232.761 25.946 232.386 25.7585C232.011 25.571 231.531 25.4773 230.946 25.4773C230.145 25.4773 229.477 25.6619 228.943 26.0312C228.415 26.3949 228.151 26.858 228.151 27.4205C228.151 27.9205 228.332 28.3153 228.696 28.6051C229.06 28.8949 229.628 29.1364 230.401 29.3295L232.344 29.8068C233.514 30.0909 234.386 30.5256 234.96 31.1108C235.534 31.6903 235.821 32.4375 235.821 33.3523C235.821 34.1023 235.605 34.7727 235.173 35.3636C234.747 35.9545 234.151 36.4205 233.384 36.7614C232.616 37.1023 231.724 37.2727 230.707 37.2727C229.372 37.2727 228.267 36.983 227.392 36.4034C226.517 35.8239 225.963 34.9773 225.73 33.8636L227.639 33.3864C227.821 34.0909 228.165 34.6193 228.67 34.9716C229.182 35.3239 229.849 35.5 230.673 35.5C231.611 35.5 232.355 35.3011 232.906 34.9034C233.463 34.5 233.741 34.017 233.741 33.4545C233.741 33 233.582 32.6193 233.264 32.3125C232.946 32 232.457 31.767 231.798 31.6136L229.616 31.1023C228.418 30.8182 227.537 30.3778 226.974 29.7812C226.418 29.179 226.139 28.4261 226.139 27.5227C226.139 26.7841 226.347 26.1307 226.761 25.5625C227.182 24.9943 227.753 24.5483 228.474 24.2244C229.202 23.9006 230.026 23.7386 230.946 23.7386C232.241 23.7386 233.259 24.0227 233.997 24.5909C234.741 25.1591 235.27 25.9091 235.582 26.8409ZM248.121 26.8409L246.315 27.3523C246.201 27.0511 246.033 26.7585 245.812 26.4744C245.596 26.1847 245.3 25.946 244.925 25.7585C244.55 25.571 244.07 25.4773 243.485 25.4773C242.684 25.4773 242.016 25.6619 241.482 26.0312C240.954 26.3949 240.69 26.858 240.69 27.4205C240.69 27.9205 240.871 28.3153 241.235 28.6051C241.599 28.8949 242.167 29.1364 242.94 29.3295L244.883 29.8068C246.053 30.0909 246.925 30.5256 247.499 31.1108C248.073 31.6903 248.36 32.4375 248.36 33.3523C248.36 34.1023 248.144 34.7727 247.712 35.3636C247.286 35.9545 246.69 36.4205 245.923 36.7614C245.156 37.1023 244.263 37.2727 243.246 37.2727C241.911 37.2727 240.806 36.983 239.931 36.4034C239.056 35.8239 238.502 34.9773 238.269 33.8636L240.178 33.3864C240.36 34.0909 240.704 34.6193 241.21 34.9716C241.721 35.3239 242.388 35.5 243.212 35.5C244.15 35.5 244.894 35.3011 245.445 34.9034C246.002 34.5 246.281 34.017 246.281 33.4545C246.281 33 246.121 32.6193 245.803 32.3125C245.485 32 244.996 31.767 244.337 31.6136L242.156 31.1023C240.957 30.8182 240.076 30.3778 239.513 29.7812C238.957 29.179 238.678 28.4261 238.678 27.5227C238.678 26.7841 238.886 26.1307 239.3 25.5625C239.721 24.9943 240.292 24.5483 241.013 24.2244C241.741 23.9006 242.565 23.7386 243.485 23.7386C244.781 23.7386 245.798 24.0227 246.536 24.5909C247.281 25.1591 247.809 25.9091 248.121 26.8409ZM256.706 37.2727C255.524 37.2727 254.487 36.9915 253.595 36.429C252.709 35.8665 252.016 35.0795 251.516 34.0682C251.021 33.0568 250.774 31.875 250.774 30.5227C250.774 29.1591 251.021 27.9687 251.516 26.9517C252.016 25.9347 252.709 25.1449 253.595 24.5824C254.487 24.0199 255.524 23.7386 256.706 23.7386C257.888 23.7386 258.922 24.0199 259.808 24.5824C260.7 25.1449 261.393 25.9347 261.888 26.9517C262.388 27.9687 262.638 29.1591 262.638 30.5227C262.638 31.875 262.388 33.0568 261.888 34.0682C261.393 35.0795 260.7 35.8665 259.808 36.429C258.922 36.9915 257.888 37.2727 256.706 37.2727ZM256.706 35.4659C257.604 35.4659 258.342 35.2358 258.922 34.7756C259.501 34.3153 259.93 33.7102 260.209 32.9602C260.487 32.2102 260.626 31.3977 260.626 30.5227C260.626 29.6477 260.487 28.8324 260.209 28.0767C259.93 27.321 259.501 26.7102 258.922 26.2443C258.342 25.7784 257.604 25.5455 256.706 25.5455C255.808 25.5455 255.07 25.7784 254.49 26.2443C253.911 26.7102 253.482 27.321 253.203 28.0767C252.925 28.8324 252.786 29.6477 252.786 30.5227C252.786 31.3977 252.925 32.2102 253.203 32.9602C253.482 33.7102 253.911 34.3153 254.49 34.7756C255.07 35.2358 255.808 35.4659 256.706 35.4659ZM267.719 29.125V37H265.708V23.9091H267.651V25.9545H267.822C268.129 25.2898 268.594 24.7557 269.219 24.3523C269.844 23.9432 270.651 23.7386 271.64 23.7386C272.526 23.7386 273.302 23.9205 273.967 24.2841C274.631 24.642 275.148 25.1875 275.518 25.9205C275.887 26.6477 276.072 27.5682 276.072 28.6818V37H274.06V28.8182C274.06 27.7898 273.793 26.9886 273.259 26.4148C272.725 25.8352 271.992 25.5455 271.06 25.5455C270.418 25.5455 269.844 25.6847 269.339 25.9631C268.839 26.2415 268.444 26.6477 268.154 27.1818C267.864 27.7159 267.719 28.3636 267.719 29.125ZM289.02 26.8409L287.213 27.3523C287.099 27.0511 286.932 26.7585 286.71 26.4744C286.494 26.1847 286.199 25.946 285.824 25.7585C285.449 25.571 284.969 25.4773 284.384 25.4773C283.582 25.4773 282.915 25.6619 282.381 26.0312C281.852 26.3949 281.588 26.858 281.588 27.4205C281.588 27.9205 281.77 28.3153 282.134 28.6051C282.497 28.8949 283.065 29.1364 283.838 29.3295L285.781 29.8068C286.952 30.0909 287.824 30.5256 288.398 31.1108C288.972 31.6903 289.259 32.4375 289.259 33.3523C289.259 34.1023 289.043 34.7727 288.611 35.3636C288.185 35.9545 287.588 36.4205 286.821 36.7614C286.054 37.1023 285.162 37.2727 284.145 37.2727C282.81 37.2727 281.705 36.983 280.83 36.4034C279.955 35.8239 279.401 34.9773 279.168 33.8636L281.077 33.3864C281.259 34.0909 281.602 34.6193 282.108 34.9716C282.619 35.3239 283.287 35.5 284.111 35.5C285.048 35.5 285.793 35.3011 286.344 34.9034C286.901 34.5 287.179 34.017 287.179 33.4545C287.179 33 287.02 32.6193 286.702 32.3125C286.384 32 285.895 31.767 285.236 31.6136L283.054 31.1023C281.855 30.8182 280.974 30.3778 280.412 29.7812C279.855 29.179 279.577 28.4261 279.577 27.5227C279.577 26.7841 279.784 26.1307 280.199 25.5625C280.619 24.9943 281.19 24.5483 281.912 24.2244C282.639 23.9006 283.463 23.7386 284.384 23.7386C285.679 23.7386 286.696 24.0227 287.435 24.5909C288.179 25.1591 288.707 25.9091 289.02 26.8409ZM304.729 23.9091V25.6136H297.945V23.9091H304.729ZM299.923 20.7727H301.934V33.25C301.934 33.8182 302.016 34.2443 302.181 34.5284C302.352 34.8068 302.567 34.9943 302.829 35.0909C303.096 35.1818 303.377 35.2273 303.673 35.2273C303.894 35.2273 304.076 35.2159 304.218 35.1932C304.36 35.1648 304.474 35.142 304.559 35.125L304.968 36.9318C304.832 36.983 304.641 37.0341 304.397 37.0852C304.153 37.142 303.843 37.1705 303.468 37.1705C302.9 37.1705 302.343 37.0483 301.798 36.804C301.258 36.5597 300.809 36.1875 300.451 35.6875C300.099 35.1875 299.923 34.5568 299.923 33.7955V20.7727ZM310.048 29.125V37H308.036V19.5455H310.048V25.9545H310.218C310.525 25.2784 310.985 24.7415 311.599 24.3438C312.218 23.9403 313.042 23.7386 314.07 23.7386C314.962 23.7386 315.744 23.9176 316.414 24.2756C317.085 24.6278 317.604 25.1705 317.974 25.9034C318.349 26.6307 318.536 27.5568 318.536 28.6818V37H316.525V28.8182C316.525 27.7784 316.255 26.9744 315.715 26.4062C315.181 25.8324 314.44 25.5455 313.491 25.5455C312.832 25.5455 312.241 25.6847 311.718 25.9631C311.201 26.2415 310.792 26.6477 310.491 27.1818C310.195 27.7159 310.048 28.3636 310.048 29.125ZM327.705 37.2727C326.443 37.2727 325.355 36.9943 324.44 36.4375C323.531 35.875 322.83 35.0909 322.335 34.0852C321.847 33.0739 321.602 31.8977 321.602 30.5568C321.602 29.2159 321.847 28.0341 322.335 27.0114C322.83 25.983 323.517 25.1818 324.398 24.608C325.284 24.0284 326.318 23.7386 327.5 23.7386C328.182 23.7386 328.855 23.8523 329.52 24.0795C330.185 24.3068 330.79 24.6761 331.335 25.1875C331.881 25.6932 332.315 26.3636 332.639 27.1989C332.963 28.0341 333.125 29.0625 333.125 30.2841V31.1364H323.034V29.3977H331.08C331.08 28.6591 330.932 28 330.636 27.4205C330.347 26.8409 329.932 26.3835 329.392 26.0483C328.858 25.7131 328.227 25.5455 327.5 25.5455C326.699 25.5455 326.006 25.7443 325.42 26.142C324.841 26.5341 324.395 27.0455 324.082 27.6761C323.77 28.3068 323.614 28.983 323.614 29.7045V30.8636C323.614 31.8523 323.784 32.6903 324.125 33.3778C324.472 34.0597 324.952 34.5795 325.565 34.9375C326.179 35.2898 326.892 35.4659 327.705 35.4659C328.233 35.4659 328.71 35.392 329.136 35.2443C329.568 35.0909 329.94 34.8636 330.253 34.5625C330.565 34.2557 330.807 33.875 330.977 33.4205L332.92 33.9659C332.716 34.625 332.372 35.2045 331.889 35.7045C331.406 36.1989 330.81 36.5852 330.099 36.8636C329.389 37.1364 328.591 37.2727 327.705 37.2727ZM336.185 37V23.9091H338.128V25.9545H338.298C338.571 25.2557 339.011 24.7131 339.619 24.3267C340.227 23.9347 340.957 23.7386 341.81 23.7386C342.673 23.7386 343.392 23.9347 343.966 24.3267C344.545 24.7131 344.997 25.2557 345.321 25.9545H345.457C345.793 25.2784 346.295 24.7415 346.966 24.3438C347.636 23.9403 348.44 23.7386 349.378 23.7386C350.548 23.7386 351.506 24.1051 352.25 24.8381C352.994 25.5653 353.366 26.6989 353.366 28.2386V37H351.355V28.2386C351.355 27.2727 351.091 26.5824 350.562 26.1676C350.034 25.7528 349.412 25.5455 348.696 25.5455C347.776 25.5455 347.063 25.8239 346.557 26.3807C346.051 26.9318 345.798 27.6307 345.798 28.4773V37H343.753V28.0341C343.753 27.2898 343.511 26.6903 343.028 26.2358C342.545 25.7756 341.923 25.5455 341.162 25.5455C340.639 25.5455 340.151 25.6847 339.696 25.9631C339.247 26.2415 338.884 26.6278 338.605 27.1222C338.332 27.6108 338.196 28.1761 338.196 28.8182V37H336.185ZM362.533 37.2727C361.271 37.2727 360.183 36.9943 359.268 36.4375C358.359 35.875 357.658 35.0909 357.163 34.0852C356.675 33.0739 356.43 31.8977 356.43 30.5568C356.43 29.2159 356.675 28.0341 357.163 27.0114C357.658 25.983 358.345 25.1818 359.226 24.608C360.112 24.0284 361.146 23.7386 362.328 23.7386C363.01 23.7386 363.683 23.8523 364.348 24.0795C365.013 24.3068 365.618 24.6761 366.163 25.1875C366.709 25.6932 367.143 26.3636 367.467 27.1989C367.791 28.0341 367.953 29.0625 367.953 30.2841V31.1364H357.862V29.3977H365.908C365.908 28.6591 365.76 28 365.464 27.4205C365.175 26.8409 364.76 26.3835 364.22 26.0483C363.686 25.7131 363.055 25.5455 362.328 25.5455C361.527 25.5455 360.834 25.7443 360.249 26.142C359.669 26.5341 359.223 27.0455 358.911 27.6761C358.598 28.3068 358.442 28.983 358.442 29.7045V30.8636C358.442 31.8523 358.612 32.6903 358.953 33.3778C359.3 34.0597 359.78 34.5795 360.393 34.9375C361.007 35.2898 361.72 35.4659 362.533 35.4659C363.061 35.4659 363.538 35.392 363.964 35.2443C364.396 35.0909 364.768 34.8636 365.081 34.5625C365.393 34.2557 365.635 33.875 365.805 33.4205L367.749 33.9659C367.544 34.625 367.2 35.2045 366.717 35.7045C366.234 36.1989 365.638 36.5852 364.928 36.8636C364.217 37.1364 363.419 37.2727 362.533 37.2727Z" fill="black"/>
<path d="M804.5 37H799.114V19.5455H804.739C806.432 19.5455 807.881 19.8949 809.085 20.5938C810.29 21.2869 811.213 22.2841 811.855 23.5852C812.497 24.8807 812.818 26.4318 812.818 28.2386C812.818 30.0568 812.494 31.6222 811.847 32.9347C811.199 34.2415 810.256 35.2472 809.017 35.9517C807.778 36.6506 806.273 37 804.5 37ZM801.227 35.125H804.364C805.807 35.125 807.003 34.8466 807.952 34.2898C808.901 33.733 809.608 32.9403 810.074 31.9119C810.54 30.8835 810.773 29.6591 810.773 28.2386C810.773 26.8295 810.543 25.6165 810.082 24.5994C809.622 23.5767 808.935 22.7926 808.02 22.2472C807.105 21.696 805.966 21.4205 804.602 21.4205H801.227V35.125ZM819.943 37.3068C819.114 37.3068 818.361 37.1506 817.685 36.8381C817.009 36.5199 816.472 36.0625 816.074 35.4659C815.676 34.8636 815.477 34.1364 815.477 33.2841C815.477 32.5341 815.625 31.9261 815.92 31.4602C816.216 30.9886 816.611 30.6193 817.105 30.3523C817.599 30.0852 818.145 29.8864 818.741 29.7557C819.344 29.6193 819.949 29.5114 820.557 29.4318C821.352 29.3295 821.997 29.2528 822.491 29.2017C822.991 29.1449 823.355 29.0511 823.582 28.9205C823.815 28.7898 823.932 28.5625 823.932 28.2386V28.1705C823.932 27.3295 823.702 26.6761 823.241 26.2102C822.787 25.7443 822.097 25.5114 821.17 25.5114C820.21 25.5114 819.457 25.7216 818.912 26.142C818.366 26.5625 817.983 27.0114 817.761 27.4886L815.852 26.8068C816.193 26.0114 816.648 25.392 817.216 24.9489C817.79 24.5 818.415 24.1875 819.091 24.0114C819.773 23.8295 820.443 23.7386 821.102 23.7386C821.523 23.7386 822.006 23.7898 822.551 23.892C823.102 23.9886 823.634 24.1903 824.145 24.4972C824.662 24.804 825.091 25.267 825.432 25.8864C825.773 26.5057 825.943 27.3352 825.943 28.375V37H823.932V35.2273H823.83C823.693 35.5114 823.466 35.8153 823.148 36.1392C822.83 36.4631 822.406 36.7386 821.878 36.9659C821.349 37.1932 820.705 37.3068 819.943 37.3068ZM820.25 35.5C821.045 35.5 821.716 35.3438 822.261 35.0312C822.813 34.7188 823.227 34.3153 823.506 33.821C823.79 33.3267 823.932 32.8068 823.932 32.2614V30.4205C823.847 30.5227 823.659 30.6165 823.369 30.7017C823.085 30.7812 822.756 30.8523 822.381 30.9148C822.011 30.9716 821.651 31.0227 821.298 31.0682C820.952 31.108 820.67 31.142 820.455 31.1705C819.932 31.2386 819.443 31.3494 818.989 31.5028C818.54 31.6506 818.176 31.875 817.898 32.1761C817.625 32.4716 817.489 32.875 817.489 33.3864C817.489 34.0852 817.747 34.6136 818.264 34.9716C818.787 35.3239 819.449 35.5 820.25 35.5ZM835.308 23.9091V25.6136H828.523V23.9091H835.308ZM830.501 20.7727H832.512V33.25C832.512 33.8182 832.594 34.2443 832.759 34.5284C832.93 34.8068 833.146 34.9943 833.407 35.0909C833.674 35.1818 833.955 35.2273 834.251 35.2273C834.472 35.2273 834.654 35.2159 834.796 35.1932C834.938 35.1648 835.052 35.142 835.137 35.125L835.546 36.9318C835.41 36.983 835.219 37.0341 834.975 37.0852C834.731 37.142 834.421 37.1705 834.046 37.1705C833.478 37.1705 832.921 37.0483 832.376 36.804C831.836 36.5597 831.387 36.1875 831.029 35.6875C830.677 35.1875 830.501 34.5568 830.501 33.7955V20.7727ZM843.681 37.2727C842.42 37.2727 841.332 36.9943 840.417 36.4375C839.508 35.875 838.806 35.0909 838.312 34.0852C837.823 33.0739 837.579 31.8977 837.579 30.5568C837.579 29.2159 837.823 28.0341 838.312 27.0114C838.806 25.983 839.494 25.1818 840.374 24.608C841.261 24.0284 842.295 23.7386 843.477 23.7386C844.158 23.7386 844.832 23.8523 845.496 24.0795C846.161 24.3068 846.766 24.6761 847.312 25.1875C847.857 25.6932 848.292 26.3636 848.616 27.1989C848.94 28.0341 849.102 29.0625 849.102 30.2841V31.1364H839.011V29.3977H847.056C847.056 28.6591 846.908 28 846.613 27.4205C846.323 26.8409 845.908 26.3835 845.369 26.0483C844.835 25.7131 844.204 25.5455 843.477 25.5455C842.675 25.5455 841.982 25.7443 841.397 26.142C840.817 26.5341 840.371 27.0455 840.059 27.6761C839.746 28.3068 839.59 28.983 839.59 29.7045V30.8636C839.59 31.8523 839.761 32.6903 840.102 33.3778C840.448 34.0597 840.928 34.5795 841.542 34.9375C842.156 35.2898 842.869 35.4659 843.681 35.4659C844.21 35.4659 844.687 35.392 845.113 35.2443C845.545 35.0909 845.917 34.8636 846.229 34.5625C846.542 34.2557 846.783 33.875 846.954 33.4205L848.897 33.9659C848.692 34.625 848.349 35.2045 847.866 35.7045C847.383 36.1989 846.786 36.5852 846.076 36.8636C845.366 37.1364 844.567 37.2727 843.681 37.2727Z" fill="black"/>
</svg>
