<svg width="1088" height="200" viewBox="0 0 1088 200" fill="none" xmlns="http://www.w3.org/2000/svg">
<rect x="0.5" y="50.5" width="1087" height="49" fill="#D9D9D9" stroke="#B5B4B4"/>
<path d="M37.1136 84V66.5455H39.2273V82.125H47.3409V84H37.1136ZM55.8295 84.2727C54.5682 84.2727 53.4801 83.9943 52.5653 83.4375C51.6562 82.875 50.9545 82.0909 50.4602 81.0852C49.9716 80.0739 49.7273 78.8977 49.7273 77.5568C49.7273 76.2159 49.9716 75.0341 50.4602 74.0114C50.9545 72.983 51.642 72.1818 52.5227 71.608C53.4091 71.0284 54.4432 70.7386 55.625 70.7386C56.3068 70.7386 56.9801 70.8523 57.6449 71.0795C58.3097 71.3068 58.9148 71.6761 59.4602 72.1875C60.0057 72.6932 60.4403 73.3636 60.7642 74.1989C61.0881 75.0341 61.25 76.0625 61.25 77.2841V78.1364H51.1591V76.3977H59.2045C59.2045 75.6591 59.0568 75 58.7614 74.4205C58.4716 73.8409 58.0568 73.3835 57.517 73.0483C56.983 72.7131 56.3523 72.5455 55.625 72.5455C54.8239 72.5455 54.1307 72.7443 53.5455 73.142C52.9659 73.5341 52.5199 74.0455 52.2074 74.6761C51.8949 75.3068 51.7386 75.983 51.7386 76.7045V77.8636C51.7386 78.8523 51.9091 79.6903 52.25 80.3778C52.5966 81.0597 53.0767 81.5795 53.6903 81.9375C54.304 82.2898 55.017 82.4659 55.8295 82.4659C56.358 82.4659 56.8352 82.392 57.2614 82.2443C57.6932 82.0909 58.0653 81.8636 58.3778 81.5625C58.6903 81.2557 58.9318 80.875 59.1023 80.4205L61.0455 80.9659C60.8409 81.625 60.4972 82.2045 60.0142 82.7045C59.5313 83.1989 58.9347 83.5852 58.2244 83.8636C57.5142 84.1364 56.7159 84.2727 55.8295 84.2727ZM73.5824 73.8409L71.7756 74.3523C71.6619 74.0511 71.4943 73.7585 71.2727 73.4744C71.0568 73.1847 70.7614 72.946 70.3864 72.7585C70.0114 72.571 69.5312 72.4773 68.946 72.4773C68.1449 72.4773 67.4773 72.6619 66.9432 73.0312C66.4148 73.3949 66.1506 73.858 66.1506 74.4205C66.1506 74.9205 66.3324 75.3153 66.696 75.6051C67.0597 75.8949 67.6278 76.1364 68.4006 76.3295L70.3438 76.8068C71.5142 77.0909 72.3864 77.5256 72.9602 78.1108C73.5341 78.6903 73.821 79.4375 73.821 80.3523C73.821 81.1023 73.6051 81.7727 73.1733 82.3636C72.7472 82.9545 72.1506 83.4205 71.3835 83.7614C70.6165 84.1023 69.7244 84.2727 68.7074 84.2727C67.3722 84.2727 66.267 83.983 65.392 83.4034C64.517 82.8239 63.9631 81.9773 63.7301 80.8636L65.6392 80.3864C65.821 81.0909 66.1648 81.6193 66.6705 81.9716C67.1818 82.3239 67.8494 82.5 68.6733 82.5C69.6108 82.5 70.3551 82.3011 70.9062 81.9034C71.4631 81.5 71.7415 81.017 71.7415 80.4545C71.7415 80 71.5824 79.6193 71.2642 79.3125C70.946 79 70.4574 78.767 69.7983 78.6136L67.6165 78.1023C66.4176 77.8182 65.5369 77.3778 64.9744 76.7812C64.4176 76.179 64.1392 75.4261 64.1392 74.5227C64.1392 73.7841 64.3466 73.1307 64.7614 72.5625C65.1818 71.9943 65.7528 71.5483 66.4744 71.2244C67.2017 70.9006 68.0256 70.7386 68.946 70.7386C70.2415 70.7386 71.2585 71.0227 71.9972 71.5909C72.7415 72.1591 73.2699 72.9091 73.5824 73.8409ZM86.1214 73.8409L84.3146 74.3523C84.201 74.0511 84.0334 73.7585 83.8118 73.4744C83.5959 73.1847 83.3004 72.946 82.9254 72.7585C82.5504 72.571 82.0703 72.4773 81.4851 72.4773C80.6839 72.4773 80.0163 72.6619 79.4822 73.0312C78.9538 73.3949 78.6896 73.858 78.6896 74.4205C78.6896 74.9205 78.8714 75.3153 79.2351 75.6051C79.5987 75.8949 80.1669 76.1364 80.9396 76.3295L82.8828 76.8068C84.0533 77.0909 84.9254 77.5256 85.4993 78.1108C86.0732 78.6903 86.3601 79.4375 86.3601 80.3523C86.3601 81.1023 86.1442 81.7727 85.7124 82.3636C85.2862 82.9545 84.6896 83.4205 83.9226 83.7614C83.1555 84.1023 82.2635 84.2727 81.2464 84.2727C79.9112 84.2727 78.8061 83.983 77.9311 83.4034C77.0561 82.8239 76.5021 81.9773 76.2692 80.8636L78.1783 80.3864C78.3601 81.0909 78.7038 81.6193 79.2095 81.9716C79.7209 82.3239 80.3885 82.5 81.2124 82.5C82.1499 82.5 82.8942 82.3011 83.4453 81.9034C84.0021 81.5 84.2805 81.017 84.2805 80.4545C84.2805 80 84.1214 79.6193 83.8033 79.3125C83.4851 79 82.9964 78.767 82.3374 78.6136L80.1555 78.1023C78.9567 77.8182 78.076 77.3778 77.5135 76.7812C76.9567 76.179 76.6783 75.4261 76.6783 74.5227C76.6783 73.7841 76.8857 73.1307 77.3004 72.5625C77.7209 71.9943 78.2919 71.5483 79.0135 71.2244C79.7408 70.9006 80.5646 70.7386 81.4851 70.7386C82.7805 70.7386 83.7976 71.0227 84.5362 71.5909C85.2805 72.1591 85.8089 72.9091 86.1214 73.8409ZM94.706 84.2727C93.5241 84.2727 92.4872 83.9915 91.5952 83.429C90.7088 82.8665 90.0156 82.0795 89.5156 81.0682C89.0213 80.0568 88.7741 78.875 88.7741 77.5227C88.7741 76.1591 89.0213 74.9687 89.5156 73.9517C90.0156 72.9347 90.7088 72.1449 91.5952 71.5824C92.4872 71.0199 93.5241 70.7386 94.706 70.7386C95.8878 70.7386 96.9219 71.0199 97.8082 71.5824C98.7003 72.1449 99.3935 72.9347 99.8878 73.9517C100.388 74.9687 100.638 76.1591 100.638 77.5227C100.638 78.875 100.388 80.0568 99.8878 81.0682C99.3935 82.0795 98.7003 82.8665 97.8082 83.429C96.9219 83.9915 95.8878 84.2727 94.706 84.2727ZM94.706 82.4659C95.6037 82.4659 96.3423 82.2358 96.9219 81.7756C97.5014 81.3153 97.9304 80.7102 98.2088 79.9602C98.4872 79.2102 98.6264 78.3977 98.6264 77.5227C98.6264 76.6477 98.4872 75.8324 98.2088 75.0767C97.9304 74.321 97.5014 73.7102 96.9219 73.2443C96.3423 72.7784 95.6037 72.5455 94.706 72.5455C93.8082 72.5455 93.0696 72.7784 92.4901 73.2443C91.9105 73.7102 91.4815 74.321 91.2031 75.0767C90.9247 75.8324 90.7855 76.6477 90.7855 77.5227C90.7855 78.3977 90.9247 79.2102 91.2031 79.9602C91.4815 80.7102 91.9105 81.3153 92.4901 81.7756C93.0696 82.2358 93.8082 82.4659 94.706 82.4659ZM105.719 76.125V84H103.708V70.9091H105.651V72.9545H105.822C106.129 72.2898 106.594 71.7557 107.219 71.3523C107.844 70.9432 108.651 70.7386 109.64 70.7386C110.526 70.7386 111.302 70.9205 111.967 71.2841C112.631 71.642 113.148 72.1875 113.518 72.9205C113.887 73.6477 114.072 74.5682 114.072 75.6818V84H112.06V75.8182C112.06 74.7898 111.793 73.9886 111.259 73.4148C110.725 72.8352 109.992 72.5455 109.06 72.5455C108.418 72.5455 107.844 72.6847 107.339 72.9631C106.839 73.2415 106.444 73.6477 106.154 74.1818C105.864 74.7159 105.719 75.3636 105.719 76.125ZM130.599 66.5455V84H128.486V68.7614H128.384L124.122 71.5909V69.4432L128.486 66.5455H130.599Z" fill="black"/>
<path opacity="0.7" d="M777.25 82.1989C776.18 82.1989 775.268 81.9077 774.516 81.3253C773.763 80.7382 773.188 79.8883 772.79 78.7756C772.392 77.6581 772.193 76.3087 772.193 74.7273C772.193 73.1553 772.392 71.813 772.79 70.7003C773.192 69.5829 773.77 68.7306 774.523 68.1435C775.28 67.5516 776.189 67.2557 777.25 67.2557C778.311 67.2557 779.217 67.5516 779.97 68.1435C780.728 68.7306 781.305 69.5829 781.703 70.7003C782.106 71.813 782.307 73.1553 782.307 74.7273C782.307 76.3087 782.108 77.6581 781.71 78.7756C781.312 79.8883 780.737 80.7382 779.984 81.3253C779.232 81.9077 778.32 82.1989 777.25 82.1989ZM777.25 80.6364C778.311 80.6364 779.134 80.125 779.722 79.1023C780.309 78.0795 780.602 76.6212 780.602 74.7273C780.602 73.4678 780.467 72.3954 780.197 71.5099C779.932 70.6245 779.549 69.9498 779.047 69.4858C778.55 69.0218 777.951 68.7898 777.25 68.7898C776.199 68.7898 775.377 69.3082 774.786 70.3452C774.194 71.3774 773.898 72.8381 773.898 74.7273C773.898 75.9867 774.03 77.0568 774.295 77.9375C774.561 78.8182 774.942 79.4882 775.439 79.9474C775.941 80.4067 776.545 80.6364 777.25 80.6364ZM789.835 82.1989C789.239 82.1894 788.642 82.0758 788.045 81.858C787.449 81.6402 786.904 81.2732 786.412 80.7571C785.92 80.2363 785.524 79.5331 785.226 78.6477C784.928 77.7576 784.778 76.6402 784.778 75.2955C784.778 74.0076 784.899 72.8665 785.141 71.8722C785.382 70.8731 785.732 70.0327 786.192 69.3509C786.651 68.6643 787.205 68.1435 787.854 67.7884C788.507 67.4332 789.243 67.2557 790.062 67.2557C790.877 67.2557 791.601 67.419 792.236 67.7457C792.875 68.0677 793.396 68.5175 793.798 69.0952C794.201 69.6728 794.461 70.3381 794.58 71.0909H792.847C792.686 70.4375 792.373 69.8954 791.909 69.4645C791.445 69.0336 790.83 68.8182 790.062 68.8182C788.936 68.8182 788.048 69.3082 787.399 70.2884C786.755 71.2685 786.431 72.6439 786.426 74.4148H786.54C786.805 74.0123 787.12 73.669 787.484 73.3849C787.854 73.0961 788.261 72.8736 788.706 72.7173C789.151 72.5611 789.622 72.483 790.119 72.483C790.953 72.483 791.715 72.6913 792.406 73.108C793.098 73.5199 793.652 74.0904 794.068 74.8196C794.485 75.544 794.693 76.375 794.693 77.3125C794.693 78.2121 794.492 79.036 794.089 79.7841C793.687 80.5275 793.121 81.1193 792.392 81.5597C791.668 81.9953 790.815 82.2083 789.835 82.1989ZM789.835 80.6364C790.432 80.6364 790.967 80.4872 791.44 80.1889C791.919 79.8906 792.295 79.4905 792.57 78.9886C792.849 78.4867 792.989 77.928 792.989 77.3125C792.989 76.7112 792.854 76.1643 792.584 75.6719C792.319 75.1747 791.952 74.7794 791.483 74.4858C791.019 74.1922 790.489 74.0455 789.892 74.0455C789.442 74.0455 789.023 74.1354 788.635 74.3153C788.247 74.4905 787.906 74.732 787.612 75.0398C787.323 75.3475 787.096 75.7003 786.93 76.098C786.765 76.491 786.682 76.9053 786.682 77.3409C786.682 77.9186 786.817 78.4583 787.087 78.9602C787.361 79.4621 787.735 79.867 788.209 80.1747C788.687 80.4825 789.229 80.6364 789.835 80.6364ZM798.053 82.1136C797.702 82.1136 797.402 81.9882 797.151 81.7372C796.9 81.4863 796.774 81.1856 796.774 80.8352C796.774 80.4848 796.9 80.1842 797.151 79.9332C797.402 79.6823 797.702 79.5568 798.053 79.5568C798.403 79.5568 798.704 79.6823 798.955 79.9332C799.205 80.1842 799.331 80.4848 799.331 80.8352C799.331 81.0672 799.272 81.2803 799.153 81.4744C799.04 81.6686 798.886 81.8248 798.692 81.9432C798.502 82.0568 798.289 82.1136 798.053 82.1136ZM805.686 67.4545V82H803.924V69.3011H803.839L800.288 71.6591V69.8693L803.924 67.4545H805.686ZM809.869 82V80.7216L814.67 75.4659C815.234 74.8504 815.698 74.3153 816.062 73.8608C816.427 73.4015 816.697 72.9706 816.872 72.5682C817.052 72.161 817.142 71.7348 817.142 71.2898C817.142 70.7784 817.019 70.3357 816.772 69.9616C816.531 69.5876 816.199 69.2988 815.778 69.0952C815.357 68.8916 814.883 68.7898 814.358 68.7898C813.799 68.7898 813.311 68.9058 812.895 69.1378C812.483 69.3651 812.163 69.6847 811.936 70.0966C811.713 70.5085 811.602 70.9915 811.602 71.5455H809.926C809.926 70.6932 810.122 69.9451 810.515 69.3011C810.908 68.6572 811.443 68.1553 812.12 67.7955C812.802 67.4356 813.567 67.2557 814.414 67.2557C815.267 67.2557 816.022 67.4356 816.68 67.7955C817.338 68.1553 817.854 68.6406 818.228 69.2514C818.602 69.8622 818.789 70.5417 818.789 71.2898C818.789 71.8248 818.692 72.348 818.498 72.8594C818.309 73.366 817.977 73.9318 817.504 74.5568C817.035 75.1771 816.384 75.9347 815.551 76.8295L812.284 80.3239V80.4375H819.045V82H809.869ZM823.228 82.1136C822.878 82.1136 822.577 81.9882 822.326 81.7372C822.075 81.4863 821.95 81.1856 821.95 80.8352C821.95 80.4848 822.075 80.1842 822.326 79.9332C822.577 79.6823 822.878 79.5568 823.228 79.5568C823.579 79.5568 823.879 79.6823 824.13 79.9332C824.381 80.1842 824.507 80.4848 824.507 80.8352C824.507 81.0672 824.448 81.2803 824.329 81.4744C824.216 81.6686 824.062 81.8248 823.868 81.9432C823.678 82.0568 823.465 82.1136 823.228 82.1136ZM827.486 82V80.7216L832.287 75.4659C832.851 74.8504 833.315 74.3153 833.679 73.8608C834.044 73.4015 834.314 72.9706 834.489 72.5682C834.669 72.161 834.759 71.7348 834.759 71.2898C834.759 70.7784 834.636 70.3357 834.39 69.9616C834.148 69.5876 833.817 69.2988 833.395 69.0952C832.974 68.8916 832.5 68.7898 831.975 68.7898C831.416 68.7898 830.928 68.9058 830.512 69.1378C830.1 69.3651 829.78 69.6847 829.553 70.0966C829.33 70.5085 829.219 70.9915 829.219 71.5455H827.543C827.543 70.6932 827.739 69.9451 828.132 69.3011C828.525 68.6572 829.06 68.1553 829.738 67.7955C830.419 67.4356 831.184 67.2557 832.032 67.2557C832.884 67.2557 833.639 67.4356 834.297 67.7955C834.955 68.1553 835.471 68.6406 835.846 69.2514C836.22 69.8622 836.407 70.5417 836.407 71.2898C836.407 71.8248 836.31 72.348 836.115 72.8594C835.926 73.366 835.595 73.9318 835.121 74.5568C834.652 75.1771 834.001 75.9347 833.168 76.8295L829.901 80.3239V80.4375H836.662V82H827.486ZM844.34 82.1989C843.27 82.1989 842.358 81.9077 841.605 81.3253C840.853 80.7382 840.277 79.8883 839.88 78.7756C839.482 77.6581 839.283 76.3087 839.283 74.7273C839.283 73.1553 839.482 71.813 839.88 70.7003C840.282 69.5829 840.86 68.7306 841.613 68.1435C842.37 67.5516 843.279 67.2557 844.34 67.2557C845.4 67.2557 846.307 67.5516 847.06 68.1435C847.818 68.7306 848.395 69.5829 848.793 70.7003C849.195 71.813 849.397 73.1553 849.397 74.7273C849.397 76.3087 849.198 77.6581 848.8 78.7756C848.402 79.8883 847.827 80.7382 847.074 81.3253C846.321 81.9077 845.41 82.1989 844.34 82.1989ZM844.34 80.6364C845.4 80.6364 846.224 80.125 846.811 79.1023C847.399 78.0795 847.692 76.6212 847.692 74.7273C847.692 73.4678 847.557 72.3954 847.287 71.5099C847.022 70.6245 846.639 69.9498 846.137 69.4858C845.64 69.0218 845.041 68.7898 844.34 68.7898C843.289 68.7898 842.467 69.3082 841.875 70.3452C841.283 71.3774 840.988 72.8381 840.988 74.7273C840.988 75.9867 841.12 77.0568 841.385 77.9375C841.65 78.8182 842.032 79.4882 842.529 79.9474C843.031 80.4067 843.634 80.6364 844.34 80.6364ZM852.096 82V80.7216L856.897 75.4659C857.46 74.8504 857.924 74.3153 858.289 73.8608C858.653 73.4015 858.923 72.9706 859.098 72.5682C859.278 72.161 859.368 71.7348 859.368 71.2898C859.368 70.7784 859.245 70.3357 858.999 69.9616C858.757 69.5876 858.426 69.2988 858.005 69.0952C857.583 68.8916 857.11 68.7898 856.584 68.7898C856.025 68.7898 855.538 68.9058 855.121 69.1378C854.709 69.3651 854.39 69.6847 854.162 70.0966C853.94 70.5085 853.828 70.9915 853.828 71.5455H852.152C852.152 70.6932 852.349 69.9451 852.742 69.3011C853.135 68.6572 853.67 68.1553 854.347 67.7955C855.029 67.4356 855.793 67.2557 856.641 67.2557C857.493 67.2557 858.248 67.4356 858.907 67.7955C859.565 68.1553 860.081 68.6406 860.455 69.2514C860.829 69.8622 861.016 70.5417 861.016 71.2898C861.016 71.8248 860.919 72.348 860.725 72.8594C860.535 73.366 860.204 73.9318 859.73 74.5568C859.262 75.1771 858.611 75.9347 857.777 76.8295L854.51 80.3239V80.4375H861.272V82H852.096ZM869.12 82.1989C868.182 82.1989 867.346 82.0379 866.613 81.7159C865.883 81.3939 865.303 80.9465 864.873 80.3736C864.446 79.7959 864.214 79.1259 864.176 78.3636H865.966C866.004 78.8324 866.165 79.2372 866.449 79.5781C866.733 79.9143 867.105 80.1747 867.564 80.3594C868.024 80.544 868.533 80.6364 869.091 80.6364C869.716 80.6364 870.27 80.5275 870.753 80.3097C871.236 80.0919 871.615 79.7888 871.89 79.4006C872.164 79.0123 872.301 78.5625 872.301 78.0511C872.301 77.5161 872.169 77.045 871.904 76.6378C871.639 76.2259 871.25 75.9039 870.739 75.6719C870.228 75.4399 869.603 75.3239 868.864 75.3239H867.699V73.7614H868.864C869.442 73.7614 869.948 73.6572 870.384 73.4489C870.824 73.2405 871.167 72.947 871.414 72.5682C871.665 72.1894 871.79 71.7443 871.79 71.233C871.79 70.7405 871.681 70.312 871.463 69.9474C871.246 69.5829 870.938 69.2988 870.54 69.0952C870.147 68.8916 869.683 68.7898 869.148 68.7898C868.646 68.7898 868.173 68.8821 867.728 69.0668C867.287 69.2467 866.927 69.5095 866.648 69.8551C866.369 70.196 866.217 70.608 866.194 71.0909H864.489C864.517 70.3286 864.747 69.661 865.178 69.0881C865.609 68.5104 866.172 68.0606 866.868 67.7386C867.569 67.4167 868.338 67.2557 869.176 67.2557C870.076 67.2557 870.848 67.438 871.492 67.8026C872.136 68.1624 872.631 68.6383 872.976 69.2301C873.322 69.822 873.495 70.4612 873.495 71.1477C873.495 71.9669 873.279 72.6652 872.848 73.2429C872.422 73.8205 871.842 74.2206 871.108 74.4432V74.5568C872.027 74.7083 872.744 75.099 873.26 75.7287C873.776 76.3537 874.034 77.1278 874.034 78.0511C874.034 78.8419 873.819 79.5521 873.388 80.1818C872.962 80.8068 872.38 81.2992 871.641 81.6591C870.902 82.0189 870.062 82.1989 869.12 82.1989Z" fill="black"/>
<line x1="1025.05" x2="1025.05" y2="200" stroke="black"/>
<line x1="713.779" x2="713.779" y2="200" stroke="black"/>
<rect x="1001" y="58" width="57" height="35" rx="5" fill="white"/>
<path d="M1011.25 82H1006.76V67.4545H1011.45C1012.86 67.4545 1014.07 67.7457 1015.07 68.3281C1016.07 68.9058 1016.84 69.7367 1017.38 70.821C1017.91 71.9006 1018.18 73.1932 1018.18 74.6989C1018.18 76.214 1017.91 77.5185 1017.37 78.6122C1016.83 79.7012 1016.05 80.5393 1015.01 81.1264C1013.98 81.7088 1012.73 82 1011.25 82ZM1008.52 80.4375H1011.14C1012.34 80.4375 1013.34 80.2055 1014.13 79.7415C1014.92 79.2775 1015.51 78.617 1015.89 77.7599C1016.28 76.9029 1016.48 75.8826 1016.48 74.6989C1016.48 73.5246 1016.29 72.5137 1015.9 71.6662C1015.52 70.8139 1014.95 70.1605 1014.18 69.706C1013.42 69.2467 1012.47 69.017 1011.34 69.017H1008.52V80.4375ZM1025.34 82.2273C1024.36 82.2273 1023.49 81.9929 1022.75 81.5241C1022.01 81.0554 1021.43 80.3996 1021.02 79.5568C1020.6 78.714 1020.4 77.7292 1020.4 76.6023C1020.4 75.4659 1020.6 74.474 1021.02 73.6264C1021.43 72.7789 1022.01 72.1207 1022.75 71.652C1023.49 71.1832 1024.36 70.9489 1025.34 70.9489C1026.33 70.9489 1027.19 71.1832 1027.93 71.652C1028.67 72.1207 1029.25 72.7789 1029.66 73.6264C1030.08 74.474 1030.28 75.4659 1030.28 76.6023C1030.28 77.7292 1030.08 78.714 1029.66 79.5568C1029.25 80.3996 1028.67 81.0554 1027.93 81.5241C1027.19 81.9929 1026.33 82.2273 1025.34 82.2273ZM1025.34 80.7216C1026.09 80.7216 1026.7 80.5298 1027.19 80.1463C1027.67 79.7628 1028.03 79.2585 1028.26 78.6335C1028.49 78.0085 1028.61 77.3314 1028.61 76.6023C1028.61 75.8731 1028.49 75.1937 1028.26 74.5639C1028.03 73.9342 1027.67 73.4252 1027.19 73.0369C1026.7 72.6487 1026.09 72.4545 1025.34 72.4545C1024.59 72.4545 1023.98 72.6487 1023.49 73.0369C1023.01 73.4252 1022.65 73.9342 1022.42 74.5639C1022.19 75.1937 1022.07 75.8731 1022.07 76.6023C1022.07 77.3314 1022.19 78.0085 1022.42 78.6335C1022.65 79.2585 1023.01 79.7628 1023.49 80.1463C1023.98 80.5298 1024.59 80.7216 1025.34 80.7216ZM1034.52 75.4375V82H1032.84V71.0909H1034.46V72.7955H1034.6C1034.86 72.2415 1035.25 71.7964 1035.77 71.4602C1036.29 71.1193 1036.96 70.9489 1037.79 70.9489C1038.52 70.9489 1039.17 71.1004 1039.72 71.4034C1040.28 71.7017 1040.71 72.1562 1041.02 72.767C1041.33 73.3731 1041.48 74.1402 1041.48 75.0682V82H1039.8V75.1818C1039.8 74.3248 1039.58 73.6572 1039.14 73.179C1038.69 72.696 1038.08 72.4545 1037.3 72.4545C1036.77 72.4545 1036.29 72.5705 1035.87 72.8026C1035.45 73.0346 1035.12 73.3731 1034.88 73.8182C1034.64 74.2633 1034.52 74.803 1034.52 75.4375ZM1049.12 82.2273C1048.06 82.2273 1047.16 81.9953 1046.4 81.5312C1045.64 81.0625 1045.05 80.4091 1044.64 79.571C1044.23 78.7282 1044.03 77.7481 1044.03 76.6307C1044.03 75.5133 1044.23 74.5284 1044.64 73.6761C1045.05 72.8191 1045.63 72.1515 1046.36 71.6733C1047.1 71.1903 1047.96 70.9489 1048.95 70.9489C1049.51 70.9489 1050.07 71.0436 1050.63 71.233C1051.18 71.4223 1051.69 71.7301 1052.14 72.1562C1052.6 72.5777 1052.96 73.1364 1053.23 73.8324C1053.5 74.5284 1053.63 75.3854 1053.63 76.4034V77.1136H1045.22V75.6648H1051.93C1051.93 75.0492 1051.81 74.5 1051.56 74.017C1051.32 73.5341 1050.97 73.1529 1050.52 72.8736C1050.08 72.5942 1049.55 72.4545 1048.95 72.4545C1048.28 72.4545 1047.7 72.6203 1047.21 72.9517C1046.73 73.2784 1046.36 73.7045 1046.1 74.2301C1045.84 74.7557 1045.71 75.3191 1045.71 75.9205V76.8864C1045.71 77.7102 1045.85 78.4086 1046.13 78.9815C1046.42 79.5497 1046.82 79.983 1047.33 80.2812C1047.84 80.5748 1048.44 80.7216 1049.12 80.7216C1049.56 80.7216 1049.95 80.66 1050.31 80.5369C1050.67 80.4091 1050.98 80.2197 1051.24 79.9688C1051.5 79.7131 1051.7 79.3958 1051.84 79.017L1053.46 79.4716C1053.29 80.0208 1053.01 80.5038 1052.6 80.9205C1052.2 81.3324 1051.7 81.6544 1051.11 81.8864C1050.52 82.1136 1049.85 82.2273 1049.12 82.2273Z" fill="#ADADAD"/>
</svg>
