<svg width="162" height="50" viewBox="0 0 162 50" fill="none" xmlns="http://www.w3.org/2000/svg">
<rect x="0.5" y="0.5" width="161" height="49" fill="#D9D9D9" stroke="#ADADAD"/>
<path d="M27.1136 16.5455H29.6364L35.5682 31.0341H35.7727L41.7045 16.5455H44.2273V34H42.25V20.7386H42.0795L36.625 34H34.7159L29.2614 20.7386H29.0909V34H27.1136V16.5455ZM52.0447 34.3068C51.2152 34.3068 50.4624 34.1506 49.7862 33.8381C49.1101 33.5199 48.5732 33.0625 48.1754 32.4659C47.7777 31.8636 47.5788 31.1364 47.5788 30.2841C47.5788 29.5341 47.7266 28.9261 48.022 28.4602C48.3175 27.9886 48.7124 27.6193 49.2067 27.3523C49.701 27.0852 50.2464 26.8864 50.843 26.7557C51.4453 26.6193 52.0504 26.5114 52.6584 26.4318C53.4538 26.3295 54.0987 26.2528 54.593 26.2017C55.093 26.1449 55.4567 26.0511 55.6839 25.9205C55.9169 25.7898 56.0334 25.5625 56.0334 25.2386V25.1705C56.0334 24.3295 55.8033 23.6761 55.343 23.2102C54.8885 22.7443 54.1982 22.5114 53.272 22.5114C52.3118 22.5114 51.5589 22.7216 51.0135 23.142C50.468 23.5625 50.0845 24.0114 49.8629 24.4886L47.9538 23.8068C48.2947 23.0114 48.7493 22.392 49.3175 21.9489C49.8913 21.5 50.5163 21.1875 51.1925 21.0114C51.8743 20.8295 52.5447 20.7386 53.2038 20.7386C53.6243 20.7386 54.1072 20.7898 54.6527 20.892C55.2038 20.9886 55.7351 21.1903 56.2464 21.4972C56.7635 21.804 57.1925 22.267 57.5334 22.8864C57.8743 23.5057 58.0447 24.3352 58.0447 25.375V34H56.0334V32.2273H55.9311C55.7947 32.5114 55.5675 32.8153 55.2493 33.1392C54.9311 33.4631 54.5078 33.7386 53.9794 33.9659C53.451 34.1932 52.8061 34.3068 52.0447 34.3068ZM52.3516 32.5C53.147 32.5 53.8175 32.3438 54.3629 32.0312C54.9141 31.7188 55.3288 31.3153 55.6072 30.821C55.8913 30.3267 56.0334 29.8068 56.0334 29.2614V27.4205C55.9482 27.5227 55.7607 27.6165 55.4709 27.7017C55.1868 27.7812 54.8572 27.8523 54.4822 27.9148C54.1129 27.9716 53.7521 28.0227 53.3999 28.0682C53.0533 28.108 52.772 28.142 52.5561 28.1705C52.0334 28.2386 51.5447 28.3494 51.0902 28.5028C50.6413 28.6506 50.2777 28.875 49.9993 29.1761C49.7266 29.4716 49.5902 29.875 49.5902 30.3864C49.5902 31.0852 49.8487 31.6136 50.3658 31.9716C50.8885 32.3239 51.5504 32.5 52.3516 32.5ZM61.7159 34V20.9091H63.7273V34H61.7159ZM62.7386 18.7273C62.3466 18.7273 62.0085 18.5938 61.7244 18.3267C61.446 18.0597 61.3068 17.7386 61.3068 17.3636C61.3068 16.9886 61.446 16.6676 61.7244 16.4006C62.0085 16.1335 62.3466 16 62.7386 16C63.1307 16 63.4659 16.1335 63.7443 16.4006C64.0284 16.6676 64.1705 16.9886 64.1705 17.3636C64.1705 17.7386 64.0284 18.0597 63.7443 18.3267C63.4659 18.5938 63.1307 18.7273 62.7386 18.7273ZM69.4226 26.125V34H67.4112V20.9091H69.3544V22.9545H69.5249C69.8317 22.2898 70.2976 21.7557 70.9226 21.3523C71.5476 20.9432 72.3544 20.7386 73.343 20.7386C74.2294 20.7386 75.005 20.9205 75.6697 21.2841C76.3345 21.642 76.8516 22.1875 77.2209 22.9205C77.5902 23.6477 77.7749 24.5682 77.7749 25.6818V34H75.7635V25.8182C75.7635 24.7898 75.4964 23.9886 74.9624 23.4148C74.4283 22.8352 73.6953 22.5455 72.7635 22.5455C72.1214 22.5455 71.5476 22.6847 71.0419 22.9631C70.5419 23.2415 70.147 23.6477 69.8572 24.1818C69.5675 24.7159 69.4226 25.3636 69.4226 26.125ZM88.2003 38.9091V20.9091H90.1435V22.9886H90.3821C90.5298 22.7614 90.7344 22.4716 90.9957 22.1193C91.2628 21.7614 91.6435 21.4432 92.1378 21.1648C92.6378 20.8807 93.3139 20.7386 94.1662 20.7386C95.2685 20.7386 96.2401 21.0142 97.081 21.5653C97.9219 22.1165 98.5781 22.8977 99.0497 23.9091C99.5213 24.9205 99.7571 26.1136 99.7571 27.4886C99.7571 28.875 99.5213 30.0767 99.0497 31.0938C98.5781 32.1051 97.9247 32.8892 97.0895 33.446C96.2543 33.9972 95.2912 34.2727 94.2003 34.2727C93.3594 34.2727 92.6861 34.1335 92.1804 33.8551C91.6747 33.571 91.2855 33.25 91.0128 32.892C90.7401 32.5284 90.5298 32.2273 90.3821 31.9886H90.2116V38.9091H88.2003ZM90.1776 27.4545C90.1776 28.4432 90.3224 29.3153 90.6122 30.071C90.902 30.821 91.3253 31.4091 91.8821 31.8352C92.4389 32.2557 93.1207 32.4659 93.9276 32.4659C94.7685 32.4659 95.4702 32.2443 96.0327 31.8011C96.6009 31.3523 97.027 30.75 97.3111 29.9943C97.6009 29.233 97.7457 28.3864 97.7457 27.4545C97.7457 26.5341 97.6037 25.7045 97.3196 24.9659C97.0412 24.2216 96.6179 23.6335 96.0497 23.2017C95.4872 22.7642 94.7798 22.5455 93.9276 22.5455C93.1094 22.5455 92.4219 22.7528 91.8651 23.1676C91.3082 23.5767 90.8878 24.1506 90.6037 24.8892C90.3196 25.6222 90.1776 26.4773 90.1776 27.4545ZM106.678 34.3068C105.848 34.3068 105.095 34.1506 104.419 33.8381C103.743 33.5199 103.206 33.0625 102.808 32.4659C102.411 31.8636 102.212 31.1364 102.212 30.2841C102.212 29.5341 102.359 28.9261 102.655 28.4602C102.95 27.9886 103.345 27.6193 103.839 27.3523C104.334 27.0852 104.879 26.8864 105.476 26.7557C106.078 26.6193 106.683 26.5114 107.291 26.4318C108.087 26.3295 108.732 26.2528 109.226 26.2017C109.726 26.1449 110.089 26.0511 110.317 25.9205C110.55 25.7898 110.666 25.5625 110.666 25.2386V25.1705C110.666 24.3295 110.436 23.6761 109.976 23.2102C109.521 22.7443 108.831 22.5114 107.905 22.5114C106.945 22.5114 106.192 22.7216 105.646 23.142C105.101 23.5625 104.717 24.0114 104.496 24.4886L102.587 23.8068C102.928 23.0114 103.382 22.392 103.95 21.9489C104.524 21.5 105.149 21.1875 105.825 21.0114C106.507 20.8295 107.178 20.7386 107.837 20.7386C108.257 20.7386 108.74 20.7898 109.286 20.892C109.837 20.9886 110.368 21.1903 110.879 21.4972C111.396 21.804 111.825 22.267 112.166 22.8864C112.507 23.5057 112.678 24.3352 112.678 25.375V34H110.666V32.2273H110.564C110.428 32.5114 110.2 32.8153 109.882 33.1392C109.564 33.4631 109.141 33.7386 108.612 33.9659C108.084 34.1932 107.439 34.3068 106.678 34.3068ZM106.984 32.5C107.78 32.5 108.45 32.3438 108.996 32.0312C109.547 31.7188 109.962 31.3153 110.24 30.821C110.524 30.3267 110.666 29.8068 110.666 29.2614V27.4205C110.581 27.5227 110.393 27.6165 110.104 27.7017C109.82 27.7812 109.49 27.8523 109.115 27.9148C108.746 27.9716 108.385 28.0227 108.033 28.0682C107.686 28.108 107.405 28.142 107.189 28.1705C106.666 28.2386 106.178 28.3494 105.723 28.5028C105.274 28.6506 104.911 28.875 104.632 29.1761C104.359 29.4716 104.223 29.875 104.223 30.3864C104.223 31.0852 104.482 31.6136 104.999 31.9716C105.521 32.3239 106.183 32.5 106.984 32.5ZM121.633 39.1818C120.661 39.1818 119.826 39.0568 119.127 38.8068C118.428 38.5625 117.846 38.2386 117.38 37.8352C116.92 37.4375 116.553 37.0114 116.281 36.5568L117.883 35.4318C118.065 35.6705 118.295 35.9432 118.573 36.25C118.852 36.5625 119.232 36.8324 119.715 37.0597C120.204 37.2926 120.843 37.4091 121.633 37.4091C122.69 37.4091 123.562 37.1534 124.249 36.642C124.937 36.1307 125.281 35.3295 125.281 34.2386V31.5795H125.11C124.962 31.8182 124.752 32.1136 124.479 32.4659C124.212 32.8125 123.826 33.1222 123.32 33.3949C122.82 33.6619 122.144 33.7955 121.292 33.7955C120.235 33.7955 119.286 33.5455 118.445 33.0455C117.61 32.5455 116.948 31.8182 116.46 30.8636C115.977 29.9091 115.735 28.75 115.735 27.3864C115.735 26.0455 115.971 24.8778 116.442 23.8835C116.914 22.8835 117.57 22.1108 118.411 21.5653C119.252 21.0142 120.224 20.7386 121.326 20.7386C122.178 20.7386 122.854 20.8807 123.354 21.1648C123.86 21.4432 124.246 21.7614 124.513 22.1193C124.786 22.4716 124.996 22.7614 125.144 22.9886H125.349V20.9091H127.292V34.375C127.292 35.5 127.036 36.4148 126.525 37.1193C126.019 37.8295 125.337 38.3494 124.479 38.679C123.627 39.0142 122.678 39.1818 121.633 39.1818ZM121.565 31.9886C122.371 31.9886 123.053 31.804 123.61 31.4347C124.167 31.0653 124.59 30.5341 124.88 29.8409C125.17 29.1477 125.315 28.3182 125.315 27.3523C125.315 26.4091 125.173 25.5767 124.888 24.8551C124.604 24.1335 124.184 23.5682 123.627 23.1591C123.07 22.75 122.383 22.5455 121.565 22.5455C120.712 22.5455 120.002 22.7614 119.434 23.1932C118.871 23.625 118.448 24.2045 118.164 24.9318C117.886 25.6591 117.746 26.4659 117.746 27.3523C117.746 28.2614 117.888 29.0653 118.173 29.7642C118.462 30.4574 118.888 31.0028 119.451 31.4006C120.019 31.7926 120.724 31.9886 121.565 31.9886ZM136.462 34.2727C135.201 34.2727 134.113 33.9943 133.198 33.4375C132.289 32.875 131.587 32.0909 131.093 31.0852C130.604 30.0739 130.36 28.8977 130.36 27.5568C130.36 26.2159 130.604 25.0341 131.093 24.0114C131.587 22.983 132.275 22.1818 133.156 21.608C134.042 21.0284 135.076 20.7386 136.258 20.7386C136.94 20.7386 137.613 20.8523 138.278 21.0795C138.942 21.3068 139.548 21.6761 140.093 22.1875C140.638 22.6932 141.073 23.3636 141.397 24.1989C141.721 25.0341 141.883 26.0625 141.883 27.2841V28.1364H131.792V26.3977H139.837C139.837 25.6591 139.69 25 139.394 24.4205C139.104 23.8409 138.69 23.3835 138.15 23.0483C137.616 22.7131 136.985 22.5455 136.258 22.5455C135.457 22.5455 134.763 22.7443 134.178 23.142C133.599 23.5341 133.153 24.0455 132.84 24.6761C132.528 25.3068 132.371 25.983 132.371 26.7045V27.8636C132.371 28.8523 132.542 29.6903 132.883 30.3778C133.229 31.0597 133.71 31.5795 134.323 31.9375C134.937 32.2898 135.65 32.4659 136.462 32.4659C136.991 32.4659 137.468 32.392 137.894 32.2443C138.326 32.0909 138.698 31.8636 139.011 31.5625C139.323 31.2557 139.565 30.875 139.735 30.4205L141.678 30.9659C141.474 31.625 141.13 32.2045 140.647 32.7045C140.164 33.1989 139.567 33.5852 138.857 33.8636C138.147 34.1364 137.349 34.2727 136.462 34.2727Z" fill="black"/>
</svg>
