<svg width="162" height="50" viewBox="0 0 162 50" fill="none" xmlns="http://www.w3.org/2000/svg">
<rect x="0.5" y="0.5" width="161" height="49" fill="#D9D9D9" stroke="#2D2652"/>
<path d="M51.7614 32V17.4545H56.6761C57.8172 17.4545 58.75 17.6605 59.4744 18.0724C60.2036 18.4796 60.7434 19.0312 61.0938 19.7273C61.4441 20.4233 61.6193 21.1998 61.6193 22.0568C61.6193 22.9138 61.4441 23.6927 61.0938 24.3935C60.7481 25.0942 60.2131 25.6529 59.4886 26.0696C58.7642 26.4815 57.8362 26.6875 56.7045 26.6875H53.1818V25.125H56.6477C57.429 25.125 58.0563 24.9901 58.5298 24.7202C59.0033 24.4503 59.3466 24.0857 59.5597 23.6264C59.7775 23.1624 59.8864 22.6392 59.8864 22.0568C59.8864 21.4744 59.7775 20.9536 59.5597 20.4943C59.3466 20.035 59.0009 19.6752 58.5227 19.4148C58.0445 19.1496 57.41 19.017 56.6193 19.017H53.5227V32H51.7614ZM64.2294 32V21.0909H65.8487V22.7386H65.9624C66.1612 22.1989 66.5211 21.7609 67.0419 21.4247C67.5627 21.0885 68.1499 20.9205 68.8033 20.9205C68.9264 20.9205 69.0803 20.9228 69.2649 20.9276C69.4496 20.9323 69.5893 20.9394 69.6839 20.9489V22.6534C69.6271 22.6392 69.4969 22.6179 69.2933 22.5895C69.0945 22.5563 68.8838 22.5398 68.6612 22.5398C68.1309 22.5398 67.6574 22.651 67.2408 22.8736C66.8288 23.0914 66.5021 23.3944 66.2607 23.7827C66.0239 24.1662 65.9055 24.6042 65.9055 25.0966V32H64.2294ZM75.7706 32.2273C74.7857 32.2273 73.9216 31.9929 73.1783 31.5241C72.4396 31.0554 71.862 30.3996 71.4453 29.5568C71.0334 28.714 70.8274 27.7292 70.8274 26.6023C70.8274 25.4659 71.0334 24.474 71.4453 23.6264C71.862 22.7789 72.4396 22.1207 73.1783 21.652C73.9216 21.1832 74.7857 20.9489 75.7706 20.9489C76.7554 20.9489 77.6172 21.1832 78.3558 21.652C79.0992 22.1207 79.6768 22.7789 80.0888 23.6264C80.5054 24.474 80.7138 25.4659 80.7138 26.6023C80.7138 27.7292 80.5054 28.714 80.0888 29.5568C79.6768 30.3996 79.0992 31.0554 78.3558 31.5241C77.6172 31.9929 76.7554 32.2273 75.7706 32.2273ZM75.7706 30.7216C76.5187 30.7216 77.1342 30.5298 77.6172 30.1463C78.1001 29.7628 78.4576 29.2585 78.6896 28.6335C78.9216 28.0085 79.0376 27.3314 79.0376 26.6023C79.0376 25.8731 78.9216 25.1937 78.6896 24.5639C78.4576 23.9342 78.1001 23.4252 77.6172 23.0369C77.1342 22.6487 76.5187 22.4545 75.7706 22.4545C75.0225 22.4545 74.407 22.6487 73.924 23.0369C73.4411 23.4252 73.0836 23.9342 72.8516 24.5639C72.6196 25.1937 72.5036 25.8731 72.5036 26.6023C72.5036 27.3314 72.6196 28.0085 72.8516 28.6335C73.0836 29.2585 73.4411 29.7628 73.924 30.1463C74.407 30.5298 75.0225 30.7216 75.7706 30.7216ZM88.1303 21.0909V22.5114H82.2496V21.0909H88.1303ZM84.011 32V19.5852C84.011 18.9602 84.1578 18.4394 84.4513 18.0227C84.7449 17.6061 85.1261 17.2936 85.5948 17.0852C86.0636 16.8769 86.5584 16.7727 87.0792 16.7727C87.4911 16.7727 87.8273 16.8059 88.0877 16.8722C88.3481 16.9384 88.5423 17 88.6701 17.0568L88.1871 18.5057C88.1019 18.4773 87.9835 18.4418 87.832 18.3991C87.6853 18.3565 87.4911 18.3352 87.2496 18.3352C86.6957 18.3352 86.2956 18.4749 86.0494 18.7543C85.8079 19.0336 85.6871 19.4432 85.6871 19.983V32H84.011ZM90.4794 32V21.0909H92.1555V32H90.4794ZM91.3317 19.2727C91.005 19.2727 90.7232 19.1615 90.4865 18.9389C90.2545 18.7164 90.1385 18.4489 90.1385 18.1364C90.1385 17.8239 90.2545 17.5563 90.4865 17.3338C90.7232 17.1113 91.005 17 91.3317 17C91.6584 17 91.9377 17.1113 92.1697 17.3338C92.4065 17.5563 92.5249 17.8239 92.5249 18.1364C92.5249 18.4489 92.4065 18.7164 92.1697 18.9389C91.9377 19.1615 91.6584 19.2727 91.3317 19.2727ZM96.9016 17.4545V32H95.2255V17.4545H96.9016ZM104.545 32.2273C103.494 32.2273 102.588 31.9953 101.825 31.5312C101.068 31.0625 100.483 30.4091 100.071 29.571C99.6638 28.7282 99.4602 27.7481 99.4602 26.6307C99.4602 25.5133 99.6638 24.5284 100.071 23.6761C100.483 22.8191 101.056 22.1515 101.79 21.6733C102.528 21.1903 103.39 20.9489 104.375 20.9489C104.943 20.9489 105.504 21.0436 106.058 21.233C106.612 21.4223 107.116 21.7301 107.571 22.1562C108.026 22.5777 108.388 23.1364 108.658 23.8324C108.928 24.5284 109.062 25.3854 109.062 26.4034V27.1136H100.653V25.6648H107.358C107.358 25.0492 107.235 24.5 106.989 24.017C106.747 23.5341 106.402 23.1529 105.952 22.8736C105.507 22.5942 104.981 22.4545 104.375 22.4545C103.707 22.4545 103.13 22.6203 102.642 22.9517C102.159 23.2784 101.787 23.7045 101.527 24.2301C101.267 24.7557 101.136 25.3191 101.136 25.9205V26.8864C101.136 27.7102 101.278 28.4086 101.562 28.9815C101.851 29.5497 102.251 29.983 102.763 30.2812C103.274 30.5748 103.868 30.7216 104.545 30.7216C104.986 30.7216 105.384 30.66 105.739 30.5369C106.098 30.4091 106.409 30.2197 106.669 29.9688C106.929 29.7131 107.131 29.3958 107.273 29.017L108.892 29.4716C108.722 30.0208 108.435 30.5038 108.033 30.9205C107.63 31.3324 107.133 31.6544 106.541 31.8864C105.949 32.1136 105.284 32.2273 104.545 32.2273Z" fill="black"/>
</svg>
