<svg width="253" height="35" viewBox="0 0 253 35" fill="none" xmlns="http://www.w3.org/2000/svg">
<rect width="253" height="35" fill="#D9D9D9"/>
<path opacity="0.7" d="M24.2614 16.5341L22.7557 16.9602C22.661 16.7093 22.5213 16.4654 22.3366 16.2287C22.1567 15.9872 21.9105 15.7884 21.598 15.6321C21.2855 15.4759 20.8854 15.3977 20.3977 15.3977C19.7301 15.3977 19.1738 15.5516 18.7287 15.8594C18.2884 16.1624 18.0682 16.5483 18.0682 17.017C18.0682 17.4337 18.2197 17.7628 18.5227 18.0043C18.8258 18.2457 19.2992 18.447 19.9432 18.608L21.5625 19.0057C22.5379 19.2424 23.2647 19.6046 23.7429 20.0923C24.2211 20.5753 24.4602 21.1979 24.4602 21.9602C24.4602 22.5852 24.2803 23.1439 23.9205 23.6364C23.5653 24.1288 23.0682 24.517 22.429 24.8011C21.7898 25.0852 21.0464 25.2273 20.1989 25.2273C19.0862 25.2273 18.1652 24.9858 17.4361 24.5028C16.7069 24.0199 16.2453 23.3144 16.0511 22.3864L17.642 21.9886C17.7936 22.5758 18.08 23.0161 18.5014 23.3097C18.9276 23.6032 19.4839 23.75 20.1705 23.75C20.9517 23.75 21.572 23.5843 22.0312 23.2528C22.4953 22.9167 22.7273 22.5142 22.7273 22.0455C22.7273 21.6667 22.5947 21.3494 22.3295 21.0938C22.0644 20.8333 21.6572 20.6392 21.108 20.5114L19.2898 20.0852C18.2907 19.8485 17.5568 19.4815 17.0881 18.9844C16.6241 18.4825 16.392 17.8551 16.392 17.1023C16.392 16.4867 16.5649 15.9422 16.9105 15.4688C17.2609 14.9953 17.7367 14.6236 18.3381 14.3537C18.9441 14.0838 19.6307 13.9489 20.3977 13.9489C21.4773 13.9489 22.3248 14.1856 22.9403 14.6591C23.5606 15.1326 24.0009 15.7576 24.2614 16.5341ZM33.8583 20.5398V14.0909H35.5344V25H33.8583V23.1534H33.7447C33.489 23.7074 33.0913 24.1785 32.5515 24.5668C32.0117 24.9503 31.3299 25.142 30.506 25.142C29.8242 25.142 29.2182 24.9929 28.6879 24.6946C28.1576 24.3916 27.7409 23.937 27.4379 23.331C27.1348 22.7202 26.9833 21.9508 26.9833 21.0227V14.0909H28.6594V20.9091C28.6594 21.7045 28.882 22.339 29.3271 22.8125C29.7769 23.286 30.3498 23.5227 31.0458 23.5227C31.4625 23.5227 31.8862 23.4162 32.3171 23.2031C32.7527 22.9901 33.1173 22.6634 33.4109 22.223C33.7092 21.7827 33.8583 21.2216 33.8583 20.5398ZM38.6044 25V14.0909H40.2237V15.7386H40.3374C40.5362 15.1989 40.8961 14.7609 41.4169 14.4247C41.9377 14.0885 42.5249 13.9205 43.1783 13.9205C43.3014 13.9205 43.4553 13.9228 43.6399 13.9276C43.8246 13.9323 43.9643 13.9394 44.0589 13.9489V15.6534C44.0021 15.6392 43.8719 15.6179 43.6683 15.5895C43.4695 15.5563 43.2588 15.5398 43.0362 15.5398C42.5059 15.5398 42.0324 15.651 41.6158 15.8736C41.2038 16.0914 40.8771 16.3944 40.6357 16.7827C40.3989 17.1662 40.2805 17.6042 40.2805 18.0966V25H38.6044ZM47.7219 18.4375V25H46.0458V14.0909H47.6651V15.7955H47.8072C48.0629 15.2415 48.4511 14.7964 48.9719 14.4602C49.4928 14.1193 50.1651 13.9489 50.989 13.9489C51.7276 13.9489 52.3739 14.1004 52.9279 14.4034C53.4819 14.7017 53.9128 15.1562 54.2205 15.767C54.5283 16.3731 54.6822 17.1402 54.6822 18.0682V25H53.006V18.1818C53.006 17.3248 52.7835 16.6572 52.3384 16.179C51.8933 15.696 51.2826 15.4545 50.506 15.4545C49.971 15.4545 49.4928 15.5705 49.0714 15.8026C48.6547 16.0346 48.3256 16.3731 48.0842 16.8182C47.8427 17.2633 47.7219 17.803 47.7219 18.4375ZM60.9553 25.2557C60.264 25.2557 59.6366 25.1255 59.0732 24.8651C58.5097 24.5999 58.0623 24.2188 57.7308 23.7216C57.3994 23.2197 57.2337 22.6136 57.2337 21.9034C57.2337 21.2784 57.3568 20.7718 57.603 20.3835C57.8492 19.9905 58.1783 19.6828 58.5902 19.4602C59.0021 19.2377 59.4567 19.072 59.9538 18.9631C60.4557 18.8494 60.96 18.7595 61.4666 18.6932C62.1295 18.608 62.6669 18.544 63.0788 18.5014C63.4955 18.4541 63.7985 18.3759 63.9879 18.267C64.1821 18.1581 64.2791 17.9687 64.2791 17.6989V17.642C64.2791 16.9413 64.0874 16.3968 63.7038 16.0085C63.325 15.6203 62.7498 15.4261 61.978 15.4261C61.1778 15.4261 60.5504 15.6013 60.0959 15.9517C59.6413 16.3021 59.3217 16.6761 59.1371 17.0739L57.5462 16.5057C57.8303 15.8428 58.209 15.3267 58.6825 14.9574C59.1607 14.5833 59.6816 14.3229 60.245 14.1761C60.8132 14.0246 61.3719 13.9489 61.9212 13.9489C62.2715 13.9489 62.674 13.9915 63.1286 14.0767C63.5878 14.1572 64.0305 14.3253 64.4567 14.581C64.8875 14.8366 65.245 15.2225 65.5291 15.7386C65.8132 16.2547 65.9553 16.946 65.9553 17.8125V25H64.2791V23.5227H64.1939C64.0803 23.7595 63.8909 24.0128 63.6257 24.2827C63.3606 24.5526 63.0078 24.7822 62.5675 24.9716C62.1271 25.161 61.5897 25.2557 60.9553 25.2557ZM61.2109 23.75C61.8738 23.75 62.4325 23.6198 62.8871 23.3594C63.3464 23.099 63.692 22.7628 63.924 22.3509C64.1607 21.9389 64.2791 21.5057 64.2791 21.0511V19.517C64.2081 19.6023 64.0518 19.6804 63.8104 19.7514C63.5736 19.8177 63.299 19.8769 62.9865 19.929C62.6787 19.9763 62.3781 20.0189 62.0845 20.0568C61.7957 20.09 61.5613 20.1184 61.3814 20.142C60.9458 20.1989 60.5386 20.2912 60.1598 20.419C59.7857 20.5421 59.4827 20.7292 59.2507 20.9801C59.0234 21.2263 58.9098 21.5625 58.9098 21.9886C58.9098 22.571 59.1252 23.0114 59.5561 23.3097C59.9917 23.6032 60.5433 23.75 61.2109 23.75ZM69.0146 25V14.0909H70.6339V15.7955H70.7759C71.0032 15.2131 71.3701 14.7609 71.8768 14.4389C72.3834 14.1122 72.9918 13.9489 73.7021 13.9489C74.4218 13.9489 75.0207 14.1122 75.4989 14.4389C75.9819 14.7609 76.3583 15.2131 76.6282 15.7955H76.7418C77.0212 15.232 77.4402 14.7846 77.9989 14.4531C78.5576 14.117 79.2276 13.9489 80.0089 13.9489C80.9843 13.9489 81.7821 14.2543 82.4023 14.8651C83.0226 15.4711 83.3327 16.4157 83.3327 17.6989V25H81.6566V17.6989C81.6566 16.8939 81.4364 16.3187 80.9961 15.973C80.5558 15.6274 80.0373 15.4545 79.4407 15.4545C78.6737 15.4545 78.0794 15.6866 77.658 16.1506C77.2366 16.6098 77.0259 17.1922 77.0259 17.8977V25H75.3214V17.5284C75.3214 16.9081 75.1201 16.4086 74.7177 16.0298C74.3152 15.6463 73.7968 15.4545 73.1623 15.4545C72.7267 15.4545 72.3195 15.5705 71.9407 15.8026C71.5666 16.0346 71.2636 16.3565 71.0316 16.7685C70.8043 17.1757 70.6907 17.6468 70.6907 18.1818V25H69.0146ZM90.9712 25.2273C89.9201 25.2273 89.0134 24.9953 88.2511 24.5312C87.4935 24.0625 86.9087 23.4091 86.4968 22.571C86.0896 21.7282 85.886 20.7481 85.886 19.6307C85.886 18.5133 86.0896 17.5284 86.4968 16.6761C86.9087 15.8191 87.4817 15.1515 88.2156 14.6733C88.9542 14.1903 89.8159 13.9489 90.8008 13.9489C91.369 13.9489 91.93 14.0436 92.484 14.233C93.038 14.4223 93.5423 14.7301 93.9968 15.1562C94.4513 15.5777 94.8136 16.1364 95.0835 16.8324C95.3533 17.5284 95.4883 18.3854 95.4883 19.4034V20.1136H87.0792V18.6648H93.7837C93.7837 18.0492 93.6606 17.5 93.4144 17.017C93.1729 16.5341 92.8273 16.1529 92.3775 15.8736C91.9324 15.5942 91.4068 15.4545 90.8008 15.4545C90.1332 15.4545 89.5555 15.6203 89.0678 15.9517C88.5849 16.2784 88.2132 16.7045 87.9528 17.2301C87.6924 17.7557 87.5621 18.3191 87.5621 18.9205V19.8864C87.5621 20.7102 87.7042 21.4086 87.9883 21.9815C88.2771 22.5497 88.6772 22.983 89.1886 23.2812C89.6999 23.5748 90.2942 23.7216 90.9712 23.7216C91.4116 23.7216 91.8093 23.66 92.1644 23.5369C92.5243 23.4091 92.8344 23.2197 93.0948 22.9688C93.3552 22.7131 93.5565 22.3958 93.6985 22.017L95.3178 22.4716C95.1474 23.0208 94.8609 23.5038 94.4585 23.9205C94.056 24.3324 93.5588 24.6544 92.967 24.8864C92.3751 25.1136 91.7099 25.2273 90.9712 25.2273Z" fill="black"/>
</svg>
