<svg width="253" height="35" viewBox="0 0 253 35" fill="none" xmlns="http://www.w3.org/2000/svg">
<rect width="253" height="35" fill="#D9D9D9"/>
<path opacity="0.7" d="M23.4091 20.5398V14.0909H25.0852V25H23.4091V23.1534H23.2955C23.0398 23.7074 22.642 24.1785 22.1023 24.5668C21.5625 24.9503 20.8807 25.142 20.0568 25.142C19.375 25.142 18.7689 24.9929 18.2386 24.6946C17.7083 24.3916 17.2917 23.937 16.9886 23.331C16.6856 22.7202 16.5341 21.9508 16.5341 21.0227V14.0909H18.2102V20.9091C18.2102 21.7045 18.4328 22.339 18.8778 22.8125C19.3277 23.286 19.9006 23.5227 20.5966 23.5227C21.0133 23.5227 21.437 23.4162 21.8679 23.2031C22.3035 22.9901 22.6681 22.6634 22.9616 22.223C23.2599 21.7827 23.4091 21.2216 23.4091 20.5398ZM35.8825 16.5341L34.3768 16.9602C34.2821 16.7093 34.1424 16.4654 33.9577 16.2287C33.7778 15.9872 33.5316 15.7884 33.2191 15.6321C32.9066 15.4759 32.5065 15.3977 32.0188 15.3977C31.3512 15.3977 30.7949 15.5516 30.3498 15.8594C29.9094 16.1624 29.6893 16.5483 29.6893 17.017C29.6893 17.4337 29.8408 17.7628 30.1438 18.0043C30.4469 18.2457 30.9203 18.447 31.5643 18.608L33.1836 19.0057C34.159 19.2424 34.8858 19.6046 35.364 20.0923C35.8422 20.5753 36.0813 21.1979 36.0813 21.9602C36.0813 22.5852 35.9014 23.1439 35.5415 23.6364C35.1864 24.1288 34.6893 24.517 34.0501 24.8011C33.4109 25.0852 32.6675 25.2273 31.82 25.2273C30.7073 25.2273 29.7863 24.9858 29.0572 24.5028C28.328 24.0199 27.8664 23.3144 27.6722 22.3864L29.2631 21.9886C29.4147 22.5758 29.7011 23.0161 30.1225 23.3097C30.5487 23.6032 31.105 23.75 31.7915 23.75C32.5728 23.75 33.1931 23.5843 33.6523 23.2528C34.1164 22.9167 34.3484 22.5142 34.3484 22.0455C34.3484 21.6667 34.2158 21.3494 33.9506 21.0938C33.6855 20.8333 33.2783 20.6392 32.729 20.5114L30.9109 20.0852C29.9118 19.8485 29.1779 19.4815 28.7092 18.9844C28.2451 18.4825 28.0131 17.8551 28.0131 17.1023C28.0131 16.4867 28.186 15.9422 28.5316 15.4688C28.882 14.9953 29.3578 14.6236 29.9592 14.3537C30.5652 14.0838 31.2518 13.9489 32.0188 13.9489C33.0984 13.9489 33.9459 14.1856 34.5614 14.6591C35.1817 15.1326 35.622 15.7576 35.8825 16.5341ZM43.1783 25.2273C42.1271 25.2273 41.2204 24.9953 40.4581 24.5312C39.7005 24.0625 39.1158 23.4091 38.7038 22.571C38.2966 21.7282 38.093 20.7481 38.093 19.6307C38.093 18.5133 38.2966 17.5284 38.7038 16.6761C39.1158 15.8191 39.6887 15.1515 40.4226 14.6733C41.1612 14.1903 42.023 13.9489 43.0078 13.9489C43.576 13.9489 44.1371 14.0436 44.6911 14.233C45.245 14.4223 45.7493 14.7301 46.2038 15.1562C46.6584 15.5777 47.0206 16.1364 47.2905 16.8324C47.5604 17.5284 47.6953 18.3854 47.6953 19.4034V20.1136H39.2862V18.6648H45.9908C45.9908 18.0492 45.8677 17.5 45.6214 17.017C45.38 16.5341 45.0343 16.1529 44.5845 15.8736C44.1394 15.5942 43.6139 15.4545 43.0078 15.4545C42.3402 15.4545 41.7625 15.6203 41.2749 15.9517C40.7919 16.2784 40.4202 16.7045 40.1598 17.2301C39.8994 17.7557 39.7692 18.3191 39.7692 18.9205V19.8864C39.7692 20.7102 39.9112 21.4086 40.1953 21.9815C40.4841 22.5497 40.8842 22.983 41.3956 23.2812C41.907 23.5748 42.5012 23.7216 43.1783 23.7216C43.6186 23.7216 44.0163 23.66 44.3714 23.5369C44.7313 23.4091 45.0414 23.2197 45.3018 22.9688C45.5623 22.7131 45.7635 22.3958 45.9055 22.017L47.5249 22.4716C47.3544 23.0208 47.0679 23.5038 46.6655 23.9205C46.263 24.3324 45.7659 24.6544 45.174 24.8864C44.5821 25.1136 43.9169 25.2273 43.1783 25.2273ZM50.245 25V14.0909H51.8643V15.7386H51.978C52.1768 15.1989 52.5367 14.7609 53.0575 14.4247C53.5784 14.0885 54.1655 13.9205 54.8189 13.9205C54.942 13.9205 55.0959 13.9228 55.2805 13.9276C55.4652 13.9323 55.6049 13.9394 55.6996 13.9489V15.6534C55.6428 15.6392 55.5125 15.6179 55.3089 15.5895C55.1101 15.5563 54.8994 15.5398 54.6768 15.5398C54.1465 15.5398 53.6731 15.651 53.2564 15.8736C52.8445 16.0914 52.5178 16.3944 52.2763 16.7827C52.0395 17.1662 51.9212 17.6042 51.9212 18.0966V25H50.245ZM59.3626 18.4375V25H57.6864V14.0909H59.3058V15.7955H59.4478C59.7035 15.2415 60.0917 14.7964 60.6126 14.4602C61.1334 14.1193 61.8058 13.9489 62.6296 13.9489C63.3683 13.9489 64.0146 14.1004 64.5685 14.4034C65.1225 14.7017 65.5534 15.1562 65.8612 15.767C66.1689 16.3731 66.3228 17.1402 66.3228 18.0682V25H64.6467V18.1818C64.6467 17.3248 64.4241 16.6572 63.979 16.179C63.534 15.696 62.9232 15.4545 62.1467 15.4545C61.6116 15.4545 61.1334 15.5705 60.712 15.8026C60.2953 16.0346 59.9663 16.3731 59.7248 16.8182C59.4833 17.2633 59.3626 17.803 59.3626 18.4375ZM72.5959 25.2557C71.9046 25.2557 71.2772 25.1255 70.7138 24.8651C70.1503 24.5999 69.7029 24.2188 69.3714 23.7216C69.04 23.2197 68.8743 22.6136 68.8743 21.9034C68.8743 21.2784 68.9974 20.7718 69.2436 20.3835C69.4898 19.9905 69.8189 19.6828 70.2308 19.4602C70.6428 19.2377 71.0973 19.072 71.5945 18.9631C72.0964 18.8494 72.6006 18.7595 73.1072 18.6932C73.7701 18.608 74.3075 18.544 74.7195 18.5014C75.1361 18.4541 75.4392 18.3759 75.6286 18.267C75.8227 18.1581 75.9197 17.9687 75.9197 17.6989V17.642C75.9197 16.9413 75.728 16.3968 75.3445 16.0085C74.9657 15.6203 74.3904 15.4261 73.6186 15.4261C72.8184 15.4261 72.1911 15.6013 71.7365 15.9517C71.282 16.3021 70.9624 16.6761 70.7777 17.0739L69.1868 16.5057C69.4709 15.8428 69.8497 15.3267 70.3232 14.9574C70.8014 14.5833 71.3222 14.3229 71.8857 14.1761C72.4538 14.0246 73.0125 13.9489 73.5618 13.9489C73.9122 13.9489 74.3146 13.9915 74.7692 14.0767C75.2285 14.1572 75.6712 14.3253 76.0973 14.581C76.5282 14.8366 76.8857 15.2225 77.1697 15.7386C77.4538 16.2547 77.5959 16.946 77.5959 17.8125V25H75.9197V23.5227H75.8345C75.7209 23.7595 75.5315 24.0128 75.2663 24.2827C75.0012 24.5526 74.6484 24.7822 74.2081 24.9716C73.7678 25.161 73.2304 25.2557 72.5959 25.2557ZM72.8516 23.75C73.5144 23.75 74.0732 23.6198 74.5277 23.3594C74.987 23.099 75.3326 22.7628 75.5646 22.3509C75.8014 21.9389 75.9197 21.5057 75.9197 21.0511V19.517C75.8487 19.6023 75.6925 19.6804 75.451 19.7514C75.2143 19.8177 74.9396 19.8769 74.6271 19.929C74.3194 19.9763 74.0187 20.0189 73.7251 20.0568C73.4363 20.09 73.2019 20.1184 73.022 20.142C72.5864 20.1989 72.1792 20.2912 71.8004 20.419C71.4264 20.5421 71.1233 20.7292 70.8913 20.9801C70.6641 21.2263 70.5504 21.5625 70.5504 21.9886C70.5504 22.571 70.7659 23.0114 71.1967 23.3097C71.6323 23.6032 72.1839 23.75 72.8516 23.75ZM80.6552 25V14.0909H82.2745V15.7955H82.4165C82.6438 15.2131 83.0108 14.7609 83.5174 14.4389C84.024 14.1122 84.6325 13.9489 85.3427 13.9489C86.0624 13.9489 86.6613 14.1122 87.1396 14.4389C87.6225 14.7609 87.9989 15.2131 88.2688 15.7955H88.3825C88.6618 15.232 89.0808 14.7846 89.6396 14.4531C90.1983 14.117 90.8683 13.9489 91.6495 13.9489C92.6249 13.9489 93.4227 14.2543 94.043 14.8651C94.6632 15.4711 94.9734 16.4157 94.9734 17.6989V25H93.2972V17.6989C93.2972 16.8939 93.0771 16.3187 92.6367 15.973C92.1964 15.6274 91.6779 15.4545 91.0813 15.4545C90.3143 15.4545 89.7201 15.6866 89.2987 16.1506C88.8772 16.6098 88.6665 17.1922 88.6665 17.8977V25H86.962V17.5284C86.962 16.9081 86.7608 16.4086 86.3583 16.0298C85.9558 15.6463 85.4374 15.4545 84.8029 15.4545C84.3673 15.4545 83.9601 15.5705 83.5813 15.8026C83.2073 16.0346 82.9042 16.3565 82.6722 16.7685C82.445 17.1757 82.3313 17.6468 82.3313 18.1818V25H80.6552ZM102.612 25.2273C101.561 25.2273 100.654 24.9953 99.8917 24.5312C99.1341 24.0625 98.5494 23.4091 98.1374 22.571C97.7302 21.7282 97.5266 20.7481 97.5266 19.6307C97.5266 18.5133 97.7302 17.5284 98.1374 16.6761C98.5494 15.8191 99.1223 15.1515 99.8562 14.6733C100.595 14.1903 101.457 13.9489 102.441 13.9489C103.01 13.9489 103.571 14.0436 104.125 14.233C104.679 14.4223 105.183 14.7301 105.637 15.1562C106.092 15.5777 106.454 16.1364 106.724 16.8324C106.994 17.5284 107.129 18.3854 107.129 19.4034V20.1136H98.7198V18.6648H105.424C105.424 18.0492 105.301 17.5 105.055 17.017C104.814 16.5341 104.468 16.1529 104.018 15.8736C103.573 15.5942 103.047 15.4545 102.441 15.4545C101.774 15.4545 101.196 15.6203 100.708 15.9517C100.225 16.2784 99.8538 16.7045 99.5934 17.2301C99.333 17.7557 99.2028 18.3191 99.2028 18.9205V19.8864C99.2028 20.7102 99.3448 21.4086 99.6289 21.9815C99.9177 22.5497 100.318 22.983 100.829 23.2812C101.341 23.5748 101.935 23.7216 102.612 23.7216C103.052 23.7216 103.45 23.66 103.805 23.5369C104.165 23.4091 104.475 23.2197 104.735 22.9688C104.996 22.7131 105.197 22.3958 105.339 22.017L106.958 22.4716C106.788 23.0208 106.502 23.5038 106.099 23.9205C105.697 24.3324 105.199 24.6544 104.608 24.8864C104.016 25.1136 103.35 25.2273 102.612 25.2273Z" fill="black"/>
</svg>
